<?xml version="1.0" encoding="UTF-8"?><svg id="Layer_1" xmlns="http://www.w3.org/2000/svg" width="1920" height="1080" xmlns:xlink="http://www.w3.org/1999/xlink" viewBox="0 0 1920 1080"><defs><style>.cls-1{fill:url(#linear-gradient);}.cls-2{fill:#b3b3b3;}.cls-3{fill:gray;}.cls-4{fill:url(#linear-gradient-3);}.cls-5{fill:url(#linear-gradient-2);}.cls-6{opacity:.89;}</style><linearGradient id="linear-gradient" x1="-.262" y1="536.81" x2="558.563" y2="536.81" gradientUnits="userSpaceOnUse"><stop offset="0" stop-color="#333"/><stop offset=".999" stop-color="gray"/></linearGradient><linearGradient id="linear-gradient-2" x1="1405.269" y1="536.81" x2="1921.759" y2="536.81" gradientUnits="userSpaceOnUse"><stop offset="0" stop-color="gray"/><stop offset="1" stop-color="#4d4d4d"/></linearGradient><linearGradient id="linear-gradient-3" x1="960.418" y1="1047.947" x2="955.392" y2="430.179" gradientUnits="userSpaceOnUse"><stop offset="0" stop-color="#a67c52"/><stop offset="1" stop-color="#a67c52" stop-opacity=".99"/></linearGradient></defs><g class="cls-6"><rect class="cls-3" x="558.563" y="-7.534" width="846.706" height="397.051"/></g><polygon class="cls-1" points="558.563 389.517 -.262 1081.154 -.262 -7.534 558.563 -7.534 558.563 389.517"/><polygon class="cls-5" points="1405.269 389.517 1921.759 1081.154 1921.759 -7.534 1405.269 -7.534 1405.269 389.517"/><g><g><rect class="cls-2" x="651.826" y="18.207" width="262.229" height="255.912"/><path d="M913.93,18.332v255.662h-261.979V18.332h261.979m.25-.25h-262.479V274.244h262.479V18.082h0Z"/></g><g><rect class="cls-2" x="659.546" y="25.633" width="246.789" height="237.349"/><path d="M906.21,25.757v237.099h-246.539V25.757h246.539m.25-.25h-247.039v237.599h247.039V25.507h0Z"/></g><g><rect class="cls-2" x="779.205" y="25.633" width="3.61" height="237.349"/><path d="M782.69,25.757v237.099h-3.36V25.757h3.36m.25-.25h-3.86v237.599h3.86V25.507h0Z"/></g><g><rect class="cls-2" x="659.546" y="144.432" width="246.789" height="3.463"/><path d="M906.21,144.557v3.213h-246.539v-3.213h246.539m.25-.25h-247.039v3.713h247.039v-3.713h0Z"/></g></g><g><g><rect class="cls-2" x="1054.011" y="18.772" width="249.528" height="255.347"/><path d="M1303.414,18.897v255.097h-249.278V18.897h249.278m.25-.25h-249.778v255.597h249.778V18.647h0Z"/></g><g><rect class="cls-2" x="1061.357" y="26.181" width="234.836" height="236.825"/><path d="M1296.068,26.306v236.575h-234.585V26.306h234.585m.25-.25h-235.085v237.075h235.085V26.056h0Z"/></g><g><rect class="cls-2" x="1174.667" y="26.181" width="3.423" height="236.825"/><path d="M1177.965,26.306v236.575h-3.173V26.306h3.173m.25-.25h-3.673v237.075h3.673V26.056h0Z"/></g><g><rect class="cls-2" x="1061.357" y="144.719" width="234.836" height="3.454"/><path d="M1296.068,144.844v3.204h-234.585v-3.204h234.585m.25-.25h-235.085v3.704h235.085v-3.704h0Z"/></g></g><polygon class="cls-4" points="1405.185 389.517 558.53 389.517 -.262 1081.525 1921.645 1081.525 1405.185 389.517"/></svg>