<?xml version="1.0" encoding="UTF-8"?><svg id="Layer_1" xmlns="http://www.w3.org/2000/svg" width="1920" height="1080" xmlns:xlink="http://www.w3.org/1999/xlink" viewBox="0 0 1920 1080"><defs><style>.cls-1{fill:url(#linear-gradient);}.cls-2{fill:#b3b3b3;}.cls-3{fill:gray;}.cls-4{fill:url(#linear-gradient-3);}.cls-5{fill:url(#linear-gradient-2);}.cls-6{opacity:.89;}</style><linearGradient id="linear-gradient" x1=".241" y1="540.023" x2="558.519" y2="540.023" gradientUnits="userSpaceOnUse"><stop offset="0" stop-color="#333"/><stop offset=".999" stop-color="gray"/></linearGradient><linearGradient id="linear-gradient-2" x1="1404.394" y1="540.023" x2="1920.377" y2="540.023" gradientUnits="userSpaceOnUse"><stop offset="0" stop-color="gray"/><stop offset="1" stop-color="#4d4d4d"/></linearGradient><linearGradient id="linear-gradient-3" x1="960.039" y1="1046.087" x2="955.062" y2="434.346" gradientUnits="userSpaceOnUse"><stop offset="0" stop-color="#a67c52"/><stop offset="1" stop-color="#a67c52" stop-opacity=".99"/></linearGradient></defs><g class="cls-6"><rect class="cls-3" x="558.519" y=".778" width="845.875" height="393.332"/></g><polygon class="cls-1" points="558.519 394.11 .241 1079.268 .241 .778 558.519 .778 558.519 394.11"/><polygon class="cls-5" points="1404.394 394.109 1920.377 1079.268 1920.377 .778 1404.394 .778 1404.394 394.109"/><g><g><rect class="cls-2" x="651.69" y="26.279" width="261.971" height="253.513"/><path d="M913.536,26.404v253.263h-261.721V26.404h261.721m.25-.25h-262.221v253.763h262.221V26.154h0Z"/></g><g><rect class="cls-2" x="659.402" y="33.634" width="246.546" height="235.124"/><path d="M905.824,33.759v234.874h-246.296V33.759h246.296m.25-.25h-246.796v235.374h246.796V33.509h0Z"/></g><g><rect class="cls-2" x="778.944" y="33.634" width="3.606" height="235.124"/><path d="M782.425,33.759v234.874h-3.356V33.759h3.356m.25-.25h-3.856v235.374h3.856V33.509h0Z"/></g><g><rect class="cls-2" x="659.402" y="151.321" width="246.546" height="3.428"/><path d="M905.824,151.446v3.178h-246.296v-3.178h246.296m.25-.25h-246.796v3.678h246.796v-3.678h0Z"/></g></g><g><g><rect class="cls-2" x="1053.48" y="26.839" width="249.283" height="252.953"/><path d="M1302.639,26.964v252.703h-249.033V26.964h249.033m.25-.25h-249.533v253.203h249.533V26.714h0Z"/></g><g><rect class="cls-2" x="1060.819" y="34.178" width="234.605" height="234.605"/><path d="M1295.299,34.303v234.355h-234.355V34.303h234.355m.25-.25h-234.855v234.855h234.855V34.053h0Z"/></g><g><rect class="cls-2" x="1174.018" y="34.178" width="3.42" height="234.605"/><path d="M1177.312,34.303v234.355h-3.17V34.303h3.17m.25-.25h-3.67v234.855h3.67V34.053h0Z"/></g><g><rect class="cls-2" x="1060.819" y="151.605" width="234.605" height="3.419"/><path d="M1295.299,151.73v3.17h-234.355v-3.17h234.355m.25-.25h-234.855v3.67h234.855v-3.67h0Z"/></g></g><polygon class="cls-4" points="1404.394 394.11 558.519 394.11 .241 1079.268 1920.377 1079.268 1404.394 394.11"/></svg>