<?xml version="1.0" encoding="UTF-8"?><svg id="Layer_1" xmlns="http://www.w3.org/2000/svg" width="175" height="140" viewBox="0 0 175 140"><defs><style>.cls-1{fill:#e6e6e6;}.cls-2{fill:#c1272d;}</style></defs><path class="cls-1" d="M69.584,123.002L12.437,69.141C-3.543,54.08-4.978,29.407,9.248,14.313l2.331-2.473c14.226-15.094,38.94-15.121,54.92-.059l57.147,53.861c15.98,15.061,15.183,19.875-1.786,49.947l-9.261,15.871c-14.226,15.094-27.035,6.604-43.015-8.457Z"/><path class="cls-2" d="M65.917,69.113L109.175,15.946C123.006-1.053,146.494-5.057,161.371,7.048l2.438,1.984c14.877,12.105,15.734,35.916,1.903,52.915l-40.351,54.952c-13.831,16.999-26.061,30.518-40.938,18.414l-26.22-20.262c-7.878-6.41-15.063-13.409-10.864-21.276,3.477-6.513,12.07-16.664,18.577-24.661Z"/><rect class="cls-1" x="64.929" y="99.295" width="26.736" height="27.122" transform="translate(86.098 -24.279) rotate(38.008)"/><rect class="cls-1" x="62.01" y="61.477" width="26.736" height="27.122" transform="translate(62.192 -30.502) rotate(38.008)"/><rect class="cls-1" x="101.936" y="94.749" width="26.736" height="27.122" transform="translate(91.147 -48.031) rotate(38.008)"/><rect class="cls-1" x="98.608" y="58.15" width="26.736" height="27.122" transform="translate(67.905 -53.744) rotate(38.008)"/></svg>