<?xml version="1.0" encoding="UTF-8"?><svg id="Layer_1" xmlns="http://www.w3.org/2000/svg" width="545" height="90" viewBox="0 0 545 90"><defs><style>.cls-1{fill:#ed1c24;}</style></defs><path class="cls-1" d="M12.876,49.441c-.143,.049-.167,1.393-.071,4.031,.094,2.639,.189,5.147,.285,7.522,.095,2.375,0,3.875-.285,4.499-.62,.575-2.784,.888-6.496,.936-3.711,.049-5.638-.192-5.78-.72-.191-.432-.428-4.211-.715-11.337-.285-7.126-.381-14.695-.285-22.709,.095-8.013,.572-12.884,1.427-14.612,.286-.575,1.903-.731,4.854-.468,2.95,.265,4.783,.709,5.496,1.332,.428,.385,.738,2.4,.928,6.046,.19,3.647,.285,7.198,.285,10.652v5.182c1.38-.19,2.879-.335,4.496-.432,.143-.143,.179-.887,.108-2.231-.071-1.342-.167-3.13-.285-5.361-.12-2.231-.24-4.403-.357-6.514-.119-2.111-.119-3.995,0-5.65,.118-1.656,.368-2.579,.749-2.772,.572-.335,2.486-.442,5.746-.323,3.259,.12,4.984,.42,5.174,.9,.143,.385,.428,3.826,.857,10.329,.428,6.503,.713,11.984,.857,16.447,.332,12.429,.309,19.459-.071,21.09-.143,.575-2.118,.936-5.925,1.079-3.807,.144-5.852-.095-6.137-.72-.476-.864-.739-2.615-.786-5.254-.048-2.639,0-5.086,.143-7.342l.285-3.311c-.143,0-.298-.01-.464-.036-.167-.023-.499-.059-1-.107-.499-.047-.916-.083-1.248-.109-.333-.023-.713-.047-1.142-.072-.428-.023-.643-.012-.643,.036Z"/><path class="cls-1" d="M62.052,29.935c.572,.625,.583,2.532,.035,5.723s-1.345,6.85-2.39,10.977c-1.048,4.127-1.596,6.238-1.642,6.334-.333,1.824-1.926,5.495-4.781,11.013-.525,.96-1.427,1.668-2.712,2.123-1.285,.458-2.606,.659-3.962,.612-1.356-.047-2.796-.239-4.318-.576-.953-.19-1.774-.851-2.462-1.978-.691-1.127-1.214-2.376-1.57-3.743-.357-1.367-.81-3.095-1.357-5.182s-1.082-3.802-1.606-5.147c-1.047-2.735-1.987-6.442-2.818-11.12-.834-4.679-1.035-7.45-.607-8.313,.428-.815,2.355-1.608,5.781-2.376,3.425-.767,5.376-.936,5.852-.504,.19,.144,.38,.672,.572,1.583,.189,.913,.321,1.848,.392,2.807,.072,.961,.143,1.897,.214,2.808,.072,.913,.108,1.392,.108,1.439,.047,.385,.201,2.173,.464,5.363,.261,3.192,.546,5.999,.857,8.422,.309,2.423,.653,3.659,1.034,3.706,.38,.049,.738-1.091,1.071-3.419,.332-2.327,.63-5.075,.892-8.242,.261-3.167,.416-4.895,.464-5.182,.809-5.998,1.546-9.165,2.213-9.501,.285-.192,.928-.227,1.928-.109,.999,.121,2.045,.277,3.14,.469,1.094,.192,2.152,.479,3.176,.863,1.023,.385,1.701,.768,2.034,1.151Z"/><path class="cls-1" d="M93.956,42.963c.095,.817,.166,1.716,.214,2.699,.047,.984,.047,2.28,0,3.888-.048,1.608-.167,3.143-.357,4.606-.19,1.465-.559,2.999-1.105,4.607-.549,1.608-1.227,2.999-2.035,4.174-.809,1.177-1.891,2.16-3.247,2.951-1.356,.792-2.939,1.236-4.746,1.332-4.617,.192-8.566-.481-11.849-2.015-3.282-1.535-5.377-3.862-6.281-6.982-.667-2.206-1.106-5.002-1.321-8.385-.214-3.383-.011-6.826,.607-10.329,.618-3.502,1.665-5.998,3.14-7.485,4.14-4.175,10.159-5.35,18.058-3.527,2.189,.529,4.128,2.316,5.817,5.363,1.689,3.048,2.723,6.082,3.105,9.105Zm-14.418,12.596c.523-.047,.939-.527,1.25-1.439,.309-.911,.499-2.051,.572-3.419,.071-1.367,.106-2.507,.106-3.419v-2.447c-.048-1.104-.262-2.171-.643-3.204-.381-1.03-.784-1.642-1.213-1.835-.381-.239-.928-.095-1.642,.432-.713,.529-1.284,1.249-1.712,2.16-.428,.817-.667,2.28-.713,4.39-.048,2.113,.047,3.743,.285,4.895,.142,1.249,.594,2.231,1.356,2.951,.76,.72,1.546,1.033,2.355,.936Z"/><path class="cls-1" d="M122.148,30.44c.667,.817,1.416,2.472,2.248,4.966,.833,2.496,.987,3.984,.464,4.463-.618,.575-2.069,1.332-4.353,2.267-2.284,.936-3.665,1.284-4.14,1.043-.238-.095-.654-.622-1.248-1.583-.596-.959-1.154-1.535-1.678-1.727-.713-.192-1.404-.192-2.069,0-.667,.192-1.238,.456-1.713,.791l-.643,.504,1,17.923c.142,3.647,.118,5.663-.071,6.046-.335,.624-2.369,.913-6.103,.864-3.736-.047-5.865-.456-6.387-1.224-.24-.383-.381-1.151-.428-2.303-.048-1.151-.025-2.47,.071-3.958,.095-1.488,.166-3.168,.214-5.039,.047-1.871,.023-3.718-.071-5.543-.048-.815-.191-2.314-.428-4.499-.24-2.183-.454-4.114-.643-5.793-.191-1.679-.31-3.443-.357-5.291-.048-1.847,.118-2.842,.499-2.987,.428-.528,1.796-.96,4.105-1.296,2.308-.335,3.675-.359,4.103-.072,.238,.192,.464,.492,.678,.9s.369,.755,.464,1.043l.143,.505c.285-.192,.701-.42,1.25-.684,.546-.263,1.688-.636,3.425-1.116,1.736-.479,3.508-.767,5.318-.864,.38-.096,.796-.096,1.248,0,.452,.097,.797,.12,1.035,.072,.237-.047,.523,0,.857,.144,.332,.143,.57,.216,.713,.216s.345,.096,.607,.288c.261,.193,.428,.313,.499,.36,.071,.049,.201,.169,.393,.359,.189,.193,.309,.325,.356,.396s.155,.204,.322,.396c.166,.192,.272,.336,.321,.432Z"/><path class="cls-1" d="M153.622,56.567c0,.913,.072,2.123,.214,3.635,.143,1.512,.226,2.592,.25,3.238,.024,.648-.084,1.357-.321,2.124-.238,.385-1.666,.659-4.282,.828-2.618,.169-4.022,.156-4.211-.037-.143-.143-.285-.335-.428-.575s-.238-.456-.285-.648l-.143-.288c-.096,.192-.25,.408-.464,.648s-.667,.539-1.356,.9c-.691,.359-1.369,.539-2.034,.539-1.713-.097-3.272-.371-4.675-.828-1.404-.455-2.594-1.067-3.569-1.835-.976-.767-1.857-1.606-2.641-2.519-.786-.911-1.417-1.944-1.892-3.095s-.881-2.231-1.213-3.238c-.333-1.008-.583-2.124-.749-3.347-.167-1.224-.275-2.243-.322-3.06-.048-.815-.095-1.679-.142-2.591-.048-1.824,.094-3.719,.427-5.687,.333-1.967,.868-3.934,1.607-5.902,.736-1.967,1.855-3.61,3.355-4.931,1.498-1.319,3.247-2.003,5.245-2.051,.332-.047,.76-.023,1.285,.073,.523,.096,1.046,.204,1.57,.323,.523,.12,1.023,.24,1.499,.36,.475,.12,.857,.204,1.142,.252l.428,.143c.142-.72,.142-2.11,0-4.174-.143-2.063-.275-3.779-.393-5.147-.119-1.367-.106-2.34,.035-2.915,.428-.576,2.391-.78,5.889-.612,3.496,.169,5.316,.493,5.459,.973,.19,.768,.368,1.92,.535,3.454,.167,1.536,.286,3.227,.357,5.074,.071,1.848,.118,3.912,.143,6.191,.023,2.28,.035,4.451,.035,6.514s-.024,4.2-.071,6.405c-.048,2.208-.084,4.056-.108,5.543-.024,1.488-.06,2.879-.106,4.175-.048,1.295-.072,1.991-.072,2.087Zm-15.273-7.917c.095,2.303,.487,4.115,1.177,5.434,.689,1.32,1.308,1.932,1.855,1.835,.547-.096,.868-.144,.964-.144-.048-.479-.096-1.403-.143-2.771-.048-1.367-.084-2.759-.106-4.175-.025-1.415-.084-2.925-.179-4.534-.096-1.606-.191-2.89-.285-3.851-.048-.575-.406-.622-1.071-.143-1.381,.96-2.142,3.167-2.285,6.621,0,.529,.024,1.104,.072,1.728Z"/><path class="cls-1" d="M182.672,57.142c0,.817,.071,1.932,.214,3.347,.142,1.416,.224,2.412,.25,2.988,.023,.575-.084,1.223-.322,1.943-.238,.385-1.725,.648-4.461,.792-2.736,.143-4.2,.12-4.389-.073-.191-.143-.357-.323-.501-.539-.142-.216-.238-.396-.285-.539l-.071-.289-.572,.576c-.238,.24-.713,.529-1.427,.864-.713,.336-1.428,.481-2.142,.432-2.712-.144-5.258-.767-7.637-1.872-2.38-1.103-3.807-2.375-4.282-3.815-.381-1.247-.643-3.226-.786-5.938-.142-2.711,0-4.786,.428-6.226,.475-1.295,1.272-2.339,2.391-3.131,1.118-.791,2.843-1.306,5.174-1.546,.523-.047,1.308,.012,2.356,.179,1.046,.169,1.95,.349,2.712,.541l1.142,.359c.189-1.199,.201-2.483,.035-3.851-.167-1.367-.417-2.074-.749-2.123-.333-.047-.596,.049-.786,.288-.19,.24-.321,.539-.393,.9-.071,.36-.167,.755-.285,1.187-.119,.432-.274,.745-.464,.936-.476,.481-2.034,.529-4.675,.144-2.641-.383-4.247-.815-4.818-1.296-.618-.383-.713-2.074-.285-5.074,.428-2.998,1.118-4.931,2.069-5.795,1.952-1.728,6.091-2.591,12.419-2.591,1.047,0,1.999,.204,2.855,.611,.857,.409,1.593,1.02,2.213,1.835,.617,.817,1.094,1.5,1.427,2.052s.713,1.307,1.142,2.267c.095,.24,.167,.408,.214,.504,1.76,3.791,2.522,11.108,2.285,21.952Zm-11.492-1.511c.143-.383,.226-1.091,.25-2.124,.024-1.031-.084-1.858-.321-2.483-.24-.72-.94-.707-2.106,.036-1.166,.745-1.844,1.668-2.034,2.772-.095,.72,.179,1.307,.821,1.764s1.295,.659,1.963,.611c.665-.047,1.142-.239,1.427-.575Z"/><path class="cls-1" d="M211.719,33.319c.762,1.727,1.214,5.135,1.357,10.22,.142,5.086,.094,9.73-.143,13.928-.238,4.2-.428,6.538-.572,7.018-.142,.481-1.712,.9-4.71,1.26-2.997,.359-4.781,.252-5.353-.325-.095-.143-.226-.695-.393-1.655-.167-.96-.285-2.256-.356-3.886-.071-1.631-.084-3.214-.035-4.752,.095-2.254,.131-4.426,.106-6.513-.024-2.088-.071-3.852-.142-5.291-.072-1.439-.132-2.207-.179-2.303-.286-.624-.821-.757-1.606-.396-.786,.36-1.321,.877-1.607,1.548-.285,.575-.417,4.295-.392,11.156,.023,6.863-.179,10.822-.607,11.877-.285,.625-2.153,.852-5.603,.684-3.451-.167-5.318-.515-5.603-1.043-.24-.289-.393-.695-.464-1.224-.072-.527-.096-1.367-.072-2.519,.024-1.151,.06-2.327,.108-3.527,.047-1.199,.118-3.01,.214-5.434,.094-2.422,.166-4.786,.214-7.089,.047-2.111,.023-4.211-.072-6.298-.095-2.088-.203-3.719-.321-4.895-.119-1.176-.179-2.267-.179-3.276s.118-1.774,.357-2.303c.237-.432,2.092-.72,5.567-.864,3.472-.143,5.447-.047,5.923,.289,.523,.336,.797,.863,.821,1.583,.023,.72-.061,1.284-.25,1.691-.191,.409-.167,.661,.071,.755,.047-.095,.108-.239,.179-.431s.272-.528,.607-1.008c.332-.479,.701-.911,1.106-1.296,.403-.383,.963-.72,1.677-1.007s1.474-.432,2.284-.432c1,0,1.939,.169,2.82,.504,.879,.336,1.593,.72,2.142,1.151,.546,.432,1.07,.948,1.57,1.548,.499,.601,.844,1.093,1.034,1.476,.19,.385,.357,.744,.499,1.08Z"/><path class="cls-1" d="M257.47,46.851c1.095,.817,1.987,1.824,2.677,3.022,.689,1.2,1.118,2.412,1.285,3.635,.166,1.224,.214,2.376,.143,3.456-.071,1.079-.25,2.075-.536,2.987-.238,.817-.475,1.5-.713,2.051-.238,.552-.57,1.164-.999,1.835-.428,.672-.964,1.213-1.606,1.619-.643,.409-1.393,.684-2.249,.828-1.475,.24-3.152,.409-5.031,.504-1.881,.096-4.021,.036-6.424-.179-2.403-.216-4.318-.636-5.746-1.26-1.237-.576-2.438-1.247-3.604-2.015-1.166-.767-1.749-1.367-1.749-1.799,0-.72,.715-2.35,2.142-4.895,1.427-2.542,2.45-3.934,3.069-4.174,.904-.336,2.462,.132,4.675,1.403,2.213,1.272,3.627,1.884,4.247,1.835,.665-.047,.975-.335,.928-.864-.048-.575-.62-1.054-1.713-1.439-5.567-1.824-8.612-4.463-9.136-7.917-.19-1.199-.119-3.035,.214-5.507,.332-2.47,.738-4.211,1.214-5.218,.142-.432,.356-.875,.643-1.332,.285-.455,.617-.936,.999-1.439,.38-.505,.786-.973,1.213-1.405,.428-.432,.904-.851,1.428-1.259,.523-.408,1.071-.757,1.641-1.044,.572-.288,1.189-.515,1.857-.684,.665-.167,1.331-.252,1.997-.252,2.427,0,4.283,.18,5.567,.539,1.285,.36,2.499,1.068,3.641,2.124,.95,.864,1.628,2.819,2.034,5.866,.403,3.048,.321,4.763-.25,5.147-.62,.481-2.13,.911-4.533,1.296-2.403,.383-3.842,.359-4.318-.073-.238-.239-.428-.684-.57-1.332-.143-.648-.31-1.174-.501-1.583-.19-.406-.475-.587-.857-.539-.667,.143-1.059,.588-1.177,1.332-.119,.744,.06,1.356,.536,1.835,.237,.24,.975,.636,2.211,1.187,1.237,.552,2.593,1.177,4.069,1.872,1.474,.695,2.569,1.307,3.282,1.835Z"/><path class="cls-1" d="M277.026,27.56c2.187,.097,4.176,.539,5.96,1.332,1.784,.791,3.223,1.788,4.318,2.987,1.094,1.2,2.034,2.58,2.82,4.139,.784,1.559,1.321,3.155,1.606,4.786,.285,1.632,.487,3.264,.607,4.895,.118,1.631,.058,3.12-.179,4.462-1.142,10.365-4.688,15.86-10.635,16.484-.525,.049-1.274-.036-2.248-.252-.976-.216-1.845-.42-2.606-.612l-1.071-.36c-.095,.72-.071,2.447,.072,5.182,.142,2.735,.285,5.086,.428,7.055,.142,1.967,.142,3.286,0,3.958-.381,.576-2.296,1.067-5.746,1.476-3.451,.406-5.222,.396-5.318-.036-.57-1.921-.94-6.827-1.106-14.72-.167-7.893-.226-14.071-.179-18.534,.047-4.463,.095-8.445,.143-11.948,0-.911-.061-2.124-.179-3.635-.119-1.512-.203-2.579-.25-3.204-.048-.622,.047-1.342,.285-2.159,.238-.383,1.665-.659,4.283-.828,2.616-.167,4.02-.132,4.21,.107,.19,.097,.357,.265,.501,.505,.142,.24,.237,.456,.285,.648l.071,.288c.143-.192,.322-.396,.536-.612s.653-.515,1.321-.9c.665-.383,1.356-.551,2.069-.504Zm-1.142,27.783c.095,.529,.451,.576,1.071,.144,1.379-1.007,2.14-3.214,2.284-6.621v-1.728c-.191-4.223-1.167-6.646-2.926-7.269-.572-.192-.928-.144-1.071,.143-.62,1.344-.406,6.455,.643,15.331Z"/><path class="cls-1" d="M306.36,20.65c1.522,1.536,1.95,3.792,1.285,6.766-.096,.432-.333,.852-.713,1.26-.381,.408-.834,.744-1.356,1.007s-1.059,.493-1.607,.684c-.547,.193-1.082,.337-1.606,.432-.381,.144-1.047,.18-1.999,.109-.952-.073-1.916-.18-2.891-.325-.976-.143-1.855-.564-2.641-1.259-.784-.695-1.201-1.619-1.248-2.772-.048-1.727,.201-3.214,.749-4.462,.546-1.247,1.391-2.04,2.535-2.376,1.046-.432,2.687-.587,4.925-.468,2.235,.12,3.757,.588,4.567,1.403Zm-.57,12.525c.57,.24,.986,1.619,1.248,4.138,.261,2.519,.38,5.075,.357,7.666-.025,2.592-.132,4.391-.322,5.398-.19,1.249-.285,3.06-.285,5.435s-.024,4.487-.071,6.334c-.048,1.848-.262,3.035-.643,3.563-.285,.431-2.19,.599-5.71,.504-3.522-.096-5.353-.335-5.495-.72-.096-.289-.191-.96-.286-2.015s-.203-2.699-.321-4.931c-.119-2.231-.108-4.835,.035-7.81,.143-3.743,.393-7.378,.749-10.905,.357-3.526,.773-5.625,1.25-6.298,.237-.288,1.76-.478,4.569-.575,2.806-.096,4.448-.024,4.925,.216Z"/><path class="cls-1" d="M322.347,32.598c0,1.2,.047,2.928,.142,5.182,.095,2.257,.203,4.511,.322,6.766,.118,2.257,.237,4.632,.356,7.126,.119,2.496,.19,4.703,.214,6.623,.024,1.92-.047,3.562-.214,4.929-.167,1.369-.417,2.124-.749,2.268-.525,.385-2.415,.515-5.674,.395-3.261-.119-5.008-.442-5.247-.971-.143-.383-.428-3.826-.857-10.329-.428-6.501-.689-11.984-.784-16.447-.333-12.427-.31-19.458,.071-21.09,.095-.575,2.058-.936,5.888-1.08,3.83-.143,5.889,.097,6.174,.721,.428,.863,.678,2.243,.75,4.138,.071,1.897,.023,4.2-.143,6.91-.167,2.711-.25,4.331-.25,4.858Z"/><path class="cls-1" d="M338.406,32.598c0,1.2,.047,2.928,.142,5.182,.095,2.257,.203,4.511,.322,6.766,.118,2.257,.237,4.632,.356,7.126,.119,2.496,.19,4.703,.214,6.623,.024,1.92-.047,3.562-.214,4.929-.167,1.369-.417,2.124-.749,2.268-.525,.385-2.415,.515-5.674,.395-3.261-.119-5.008-.442-5.247-.971-.143-.383-.428-3.826-.857-10.329-.428-6.501-.689-11.984-.784-16.447-.333-12.427-.31-19.458,.071-21.09,.095-.575,2.058-.936,5.888-1.08,3.83-.143,5.889,.097,6.174,.721,.428,.863,.678,2.243,.75,4.138,.071,1.897,.023,4.2-.143,6.91-.167,2.711-.25,4.331-.25,4.858Z"/><path class="cls-1" d="M361.03,48.577l-6.281,.648c-.19,1.151-.071,2.545,.357,4.175,.428,1.632,.831,2.472,1.213,2.519,.428,.049,.796-.203,1.106-.755,.309-.552,.607-1.224,.892-2.015,.285-.792,.523-1.307,.713-1.548,.475-.528,2.045-.288,4.71,.72,2.665,1.007,4.116,1.968,4.354,2.879,.237,.72,0,2.148-.713,4.283-.715,2.136-1.523,3.635-2.427,4.499-1.903,1.775-5.996,2.663-12.276,2.663-2.095,0-3.866-.684-5.318-2.051-1.452-1.369-2.581-2.915-3.39-4.643-1.238-2.782-2.047-6.334-2.427-10.652-.381-4.32-.333-7.487,.142-9.502,.19-.767,.475-1.655,.857-2.663,.38-1.007,.964-2.134,1.749-3.383,.786-1.246,1.701-2.375,2.747-3.383,1.047-1.007,2.367-1.858,3.962-2.555,1.594-.695,3.319-1.044,5.174-1.044,2.474,0,4.747,.576,6.817,1.728,2.069,1.151,3.604,2.545,4.604,4.175,.617,1.007,.986,2.807,1.106,5.398,.118,2.591-.037,4.534-.464,5.83-.24,.672-.512,1.236-.821,1.691-.31,.456-.726,.9-1.25,1.332s-1.213,.781-2.069,1.044-1.881,.468-3.069,.611Zm-6.923-5.541c.19,.575,.904,.528,2.142-.144,1.094-.671,1.759-1.439,1.999-2.303,.142-.576-.096-1.031-.713-1.367-.62-.335-1.285-.492-1.999-.468-.715,.024-1.167,.179-1.357,.468-.142,.336-.238,.924-.285,1.764-.048,.84,.024,1.523,.214,2.051Z"/><path class="cls-1" d="M396.787,30.44c.667,.817,1.416,2.472,2.248,4.966,.833,2.496,.987,3.984,.464,4.463-.618,.575-2.069,1.332-4.353,2.267-2.284,.936-3.665,1.284-4.14,1.043-.238-.095-.654-.622-1.248-1.583-.596-.959-1.154-1.535-1.678-1.727-.713-.192-1.404-.192-2.069,0-.667,.192-1.238,.456-1.713,.791l-.643,.504,1,17.923c.142,3.647,.118,5.663-.071,6.046-.335,.624-2.369,.913-6.103,.864-3.736-.047-5.865-.456-6.387-1.224-.24-.383-.381-1.151-.428-2.303-.048-1.151-.025-2.47,.071-3.958,.095-1.488,.166-3.168,.214-5.039,.047-1.871,.023-3.718-.071-5.543-.048-.815-.191-2.314-.428-4.499-.24-2.183-.454-4.114-.643-5.793-.191-1.679-.31-3.443-.357-5.291-.048-1.847,.118-2.842,.499-2.987,.428-.528,1.796-.96,4.105-1.296,2.308-.335,3.675-.359,4.103-.072,.238,.192,.464,.492,.678,.9s.369,.755,.464,1.043l.143,.505c.285-.192,.701-.42,1.25-.684,.546-.263,1.688-.636,3.425-1.116,1.736-.479,3.508-.767,5.318-.864,.38-.096,.796-.096,1.248,0,.452,.097,.797,.12,1.035,.072,.237-.047,.523,0,.857,.144,.332,.143,.57,.216,.713,.216s.345,.096,.607,.288c.261,.193,.428,.313,.499,.36,.071,.049,.201,.169,.393,.359,.189,.193,.309,.325,.356,.396s.155,.204,.322,.396c.166,.192,.272,.336,.321,.432Z"/><path class="cls-1" d="M461.879,36.486c.19,1.2,.404,5.902,.643,14.107,.237,8.206,.19,12.909-.143,14.108-.047,.193-.892,.445-2.533,.755-1.641,.313-3.415,.396-5.318,.253-1.903-.144-3.116-.672-3.64-1.585-.333-.527-.525-2.061-.572-4.606-.048-2.543,0-5.194,.143-7.953s.201-5.291,.179-7.594c-.025-2.303-.179-3.527-.464-3.67-.476-.144-.94-.192-1.393-.144-.452,.049-.845,.156-1.177,.323-.333,.169-.499,.325-.499,.468,.143,3.264,.179,6.623,.106,10.077-.071,3.456-.19,6.478-.356,9.07-.167,2.591-.298,4.03-.393,4.318-.143,.528-1.713,.96-4.71,1.296-2.998,.336-4.783,.215-5.353-.36-.096-.144-.227-.695-.393-1.655-.167-.96-.285-2.256-.356-3.888-.072-1.631-.084-3.214-.037-4.75,.095-2.254,.131-4.427,.108-6.514-.024-2.087-.071-3.851-.143-5.29-.071-1.44-.132-2.207-.179-2.304-.285-.622-.82-.755-1.606-.395-.784,.359-1.321,.875-1.606,1.548-.285,.575-.417,4.294-.393,11.156,.024,6.863-.179,10.822-.606,11.877-.286,.624-2.154,.852-5.604,.684-3.45-.167-5.316-.515-5.603-1.044-.238-.288-.392-.694-.464-1.223-.071-.528-.095-1.367-.071-2.519,.023-1.151,.06-2.327,.106-3.527,.047-1.199,.119-3.011,.214-5.434,.095-2.423,.166-4.786,.214-7.09,.047-2.11,.024-4.174-.071-6.189-.096-2.015-.203-3.575-.321-4.679-.12-1.103-.179-2.123-.179-3.06s.118-1.642,.356-2.123c.238-.479,1.296-.828,3.177-1.044,1.878-.216,3.08-.203,3.604,.037,.522,.288,.867,.791,1.034,1.511s.345,1.08,.536,1.08c.047-.096,.118-.216,.214-.36,.095-.143,.332-.395,.713-.755,.38-.36,.809-.671,1.285-.936,.475-.263,1.116-.504,1.926-.72,.809-.216,1.665-.325,2.57-.325,.809,.049,1.582,.144,2.319,.289,.738,.143,1.332,.3,1.784,.468,.452,.169,.928,.42,1.428,.755,.499,.336,.844,.588,1.034,.755,.19,.169,.475,.445,.857,.828,.38,.385,.594,.601,.643,.648,.095,.097,.285,.024,.572-.216,.285-.239,.701-.551,1.248-.936,.546-.383,1.177-.757,1.892-1.116,.713-.36,1.641-.659,2.783-.9s2.331-.312,3.569-.216c2.189,.144,4.115,.997,5.781,2.555,1.665,1.56,2.712,3.612,3.14,6.155Z"/><path class="cls-1" d="M490.929,57.142c0,.817,.071,1.932,.214,3.347,.142,1.416,.224,2.412,.25,2.988,.023,.575-.084,1.223-.322,1.943-.238,.385-1.725,.648-4.461,.792-2.736,.143-4.2,.12-4.389-.073-.191-.143-.357-.323-.501-.539-.142-.216-.238-.396-.285-.539l-.071-.289-.572,.576c-.238,.24-.713,.529-1.427,.864-.713,.336-1.428,.481-2.142,.432-2.712-.144-5.258-.767-7.637-1.872-2.38-1.103-3.807-2.375-4.282-3.815-.381-1.247-.643-3.226-.786-5.938-.142-2.711,0-4.786,.428-6.226,.475-1.295,1.272-2.339,2.391-3.131,1.118-.791,2.843-1.306,5.174-1.546,.523-.047,1.308,.012,2.356,.179,1.046,.169,1.95,.349,2.712,.541l1.142,.359c.189-1.199,.201-2.483,.035-3.851-.167-1.367-.417-2.074-.749-2.123-.333-.047-.596,.049-.786,.288-.19,.24-.321,.539-.393,.9-.071,.36-.167,.755-.285,1.187-.119,.432-.274,.745-.464,.936-.476,.481-2.034,.529-4.675,.144-2.641-.383-4.247-.815-4.818-1.296-.618-.383-.713-2.074-.285-5.074,.428-2.998,1.118-4.931,2.069-5.795,1.952-1.728,6.091-2.591,12.419-2.591,1.047,0,1.999,.204,2.855,.611,.857,.409,1.593,1.02,2.213,1.835,.617,.817,1.094,1.5,1.427,2.052s.713,1.307,1.142,2.267c.095,.24,.167,.408,.214,.504,1.76,3.791,2.522,11.108,2.285,21.952Zm-11.492-1.511c.143-.383,.226-1.091,.25-2.124,.024-1.031-.084-1.858-.321-2.483-.24-.72-.94-.707-2.106,.036-1.166,.745-1.844,1.668-2.034,2.772-.095,.72,.179,1.307,.821,1.764s1.295,.659,1.963,.611c.665-.047,1.142-.239,1.427-.575Z"/><path class="cls-1" d="M519.976,33.319c.762,1.727,1.214,5.135,1.357,10.22,.142,5.086,.094,9.73-.143,13.928-.238,4.2-.428,6.538-.572,7.018-.142,.481-1.712,.9-4.71,1.26-2.997,.359-4.781,.252-5.353-.325-.095-.143-.226-.695-.393-1.655s-.285-2.256-.356-3.886c-.071-1.631-.084-3.214-.035-4.752,.095-2.254,.131-4.426,.106-6.513-.024-2.088-.071-3.852-.142-5.291-.072-1.439-.132-2.207-.179-2.303-.286-.624-.821-.757-1.606-.396-.786,.36-1.321,.877-1.607,1.548-.285,.575-.417,4.295-.392,11.156,.023,6.863-.179,10.822-.607,11.877-.285,.625-2.153,.852-5.603,.684-3.451-.167-5.318-.515-5.603-1.043-.24-.289-.393-.695-.464-1.224-.072-.527-.096-1.367-.072-2.519s.06-2.327,.108-3.527c.047-1.199,.118-3.01,.214-5.434,.094-2.422,.166-4.786,.214-7.089,.047-2.111,.023-4.211-.072-6.298-.095-2.088-.203-3.719-.321-4.895-.119-1.176-.179-2.267-.179-3.276s.118-1.774,.357-2.303c.237-.432,2.092-.72,5.567-.864,3.472-.143,5.447-.047,5.923,.289,.523,.336,.797,.863,.821,1.583,.023,.72-.061,1.284-.25,1.691-.191,.409-.167,.661,.071,.755,.047-.095,.108-.239,.179-.431s.272-.528,.607-1.008c.332-.479,.701-.911,1.106-1.296,.403-.383,.963-.72,1.677-1.007s1.474-.432,2.284-.432c1,0,1.939,.169,2.82,.504,.879,.336,1.593,.72,2.142,1.151,.546,.432,1.07,.948,1.57,1.548,.499,.601,.844,1.093,1.034,1.476,.19,.385,.357,.744,.499,1.08Z"/><path class="cls-1" d="M543.673,22.953c.38,1.008,.738,2.28,1.071,3.815,.332,1.536,.57,3.276,.713,5.219,.143,1.943-.024,3.419-.499,4.426-.857,1.872-1.987,3.563-3.39,5.075-1.404,1.512-2.51,2.532-3.319,3.058-.81,.529-1.452,.889-1.928,1.08,0,.049-.013,.097-.035,.144-.024,.049-.048,.169-.071,.359-.025,.193-.048,.373-.072,.541-.024,.169-.035,.396-.035,.684s.024,.552,.071,.791c.047,.289,.143,.732,.286,1.332,.142,.601,.237,1.033,.285,1.296,.047,.265,.023,.636-.071,1.116-.24,.529-1.928,.936-5.068,1.224-3.14,.288-4.925,.072-5.353-.648-.428-.815-.749-2.207-.963-4.175-.214-1.967-.204-3.695,.035-5.182,.332-1.679,1.474-3.406,3.425-5.182,2.522-2.303,4.115-3.886,4.783-4.75,.474-.576,.653-1.319,.535-2.231-.119-.911-.512-1.415-1.177-1.512-.381-.096-.668,.109-.857,.612-.191,.504-.357,1.14-.499,1.907-.143,.768-.31,1.296-.501,1.583-.475,.529-1.915,.565-4.318,.109-2.403-.455-3.889-.971-4.461-1.548-.572-.479-.655-2.555-.25-6.226,.403-3.67,1.082-6.009,2.034-7.018,1.142-1.296,2.343-2.159,3.604-2.591s3.081-.648,5.461-.648c2.284,0,4.461,.755,6.53,2.267,2.069,1.512,3.414,3.203,4.032,5.074Zm-13.703,32.318c.38-.144,1.023-.18,1.926-.107,.904,.072,1.82,.179,2.749,.323,.928,.144,1.759,.565,2.498,1.26,.736,.695,1.129,1.619,1.177,2.771,.095,1.728-.119,3.203-.643,4.427-.523,1.223-1.332,2.027-2.427,2.41-.999,.432-2.557,.588-4.675,.468-2.118-.119-3.557-.587-4.318-1.403-1.475-1.583-1.881-3.838-1.213-6.766,.142-.864,.736-1.606,1.784-2.231,1.046-.622,2.092-1.007,3.14-1.151Z"/></svg>