<?xml version="1.0" encoding="UTF-8"?><svg id="Layer_1" xmlns="http://www.w3.org/2000/svg" width="215" height="547.871" viewBox="0 0 215 547.871"><defs><style>.cls-1{fill:#006837;}.cls-2{fill:#e6e6e6;}.cls-3{fill:#fbb03b;}.cls-4{fill:#c1272d;}.cls-5{fill:#2e3192;}.cls-6{fill:#534741;}</style></defs><g><circle class="cls-1" cx="181.824" cy="335.518" r="33.976"/><g><rect x="177.702" y=".125" width="8.244" height="288.55"/><path d="M185.821,.25V288.55h-7.994V.25h7.994M186.071,0h-8.494V288.8h8.494V0h0Z"/></g><rect class="cls-6" x="173.329" y="288.8" width="16.988" height="8.494"/><rect class="cls-3" x="169.082" y="297.294" width="25.482" height="8.494" rx=".5" ry=".5"/><path class="cls-2" d="M169.082,310.035c2.271,.507,4.52,2.61,4.247,4.247-.343,2.056-4.382,1.667-8.494,4.247-6.958,4.366-7.394,13.013-8.494,12.741-1.173-.289-1.735-10.388,4.247-16.988,1.135-1.253,4.631-5.109,8.494-4.247Z"/></g><g><g><rect x="101.254" y=".125" width="8.244" height="466.926"/><path d="M109.374,.25V466.926h-7.994V.25h7.994M109.624,0h-8.494V467.176h8.494V0h0Z"/></g><circle class="cls-4" cx="105.376" cy="513.894" r="33.976"/><rect class="cls-6" x="96.882" y="467.176" width="16.988" height="8.494"/><rect class="cls-3" x="92.635" y="475.671" width="25.482" height="8.494" rx=".5" ry=".5"/><path class="cls-2" d="M92.635,488.412c2.271,.507,4.52,2.61,4.247,4.247-.343,2.056-4.382,1.667-8.494,4.247-6.958,4.366-7.394,13.013-8.494,12.741-1.173-.289-1.735-10.388,4.247-16.988,1.135-1.253,4.631-5.109,8.494-4.247Z"/></g><g><g><rect x="29.054" y=".125" width="8.244" height="352.256"/><path d="M37.174,.25V352.256h-7.994V.25h7.994m.25-.25h-8.494V352.506h8.494V0h0Z"/></g><circle class="cls-5" cx="33.176" cy="399.224" r="33.976"/><rect class="cls-6" x="24.682" y="352.506" width="16.988" height="8.494"/><rect class="cls-3" x="20.435" y="361" width="25.482" height="8.494" rx=".5" ry=".5"/><path class="cls-2" d="M20.435,373.741c2.271,.507,4.52,2.61,4.247,4.247-.343,2.056-4.382,1.667-8.494,4.247-6.958,4.366-7.394,13.013-8.494,12.741-1.173-.289-1.735-10.388,4.247-16.988,1.135-1.253,4.631-5.109,8.494-4.247Z"/></g></svg>