<?xml version="1.0" encoding="UTF-8"?><svg id="Layer_1" xmlns="http://www.w3.org/2000/svg" width="40" height="40" viewBox="0 0 40 40"><path d="M.908,9.739l31.436,27.982c2.058,1.832,5.229,1.633,7.046-.443h0c1.817-2.076,1.619-5.273-.439-7.105L7.515,2.191C5.456,.359,2.286,.558,.469,2.634h0c-1.817,2.076-1.619,5.273,.439,7.105Z"/><path d="M39.092,9.827L7.656,37.809c-2.058,1.832-5.229,1.633-7.046-.443h0c-1.817-2.076-1.619-5.273,.439-7.105L32.485,2.279c2.058-1.832,5.229-1.633,7.046,.443h0c1.817,2.076,1.619,5.273-.439,7.105Z"/></svg>