<?xml version="1.0" encoding="UTF-8"?><svg id="Layer_1" xmlns="http://www.w3.org/2000/svg" width="155" height="200" viewBox="0 0 155 200"><defs><style>.cls-1{fill:#e6e6e6;}.cls-2{fill:#ffb4d0;}.cls-3{fill:#999;}.cls-4{fill:#666;}.cls-5{fill:#42210b;}.cls-6{fill:gray;}.cls-7{fill:#603813;}.cls-8{fill:#534741;}</style></defs><g><path class="cls-6" d="M80.083,7.841c5.72,8.466,6.667,25.063-2.027,30.938-8.695,5.875-23.739-1.198-29.459-9.664-5.72-8.466-3.308-20.091,5.386-25.966,8.695-5.875,20.38-3.774,26.1,4.692Z"/><path class="cls-8" d="M74.448,20.573c2.391,3.538,2.787,10.475-.847,12.93s-9.921-.501-12.312-4.039-1.383-8.397,2.251-10.852,8.518-1.577,10.908,1.961Z"/></g><g><path class="cls-6" d="M119.613,9.112c-5.72,8.466-6.667,25.063,2.027,30.938,8.695,5.875,23.739-1.198,29.459-9.664,5.72-8.466,3.308-20.091-5.386-25.966-8.695-5.875-20.38-3.774-26.1,4.692Z"/><path class="cls-8" d="M124.298,21.751c-2.391,3.538-2.787,10.475,.847,12.93s9.921-.501,12.312-4.039,1.383-8.397-2.251-10.852-8.518-1.577-10.908,1.961Z"/></g><path class="cls-3" d="M133.252,145.193c-8.84-30.931-17.018-54.989-38.012-54.989-20.993,0-25.523,25.776-38.012,54.989-11.815,27.637,17.018,54.989,38.012,54.989,20.993,0,46.374-25.727,38.012-54.989Z"/><path class="cls-8" d="M73.154,150.349c-6.344,15.861,10.386,30.931,23.198,30.931s27.693-14.45,23.198-30.931c-5.155-18.902-10.386-30.931-23.198-30.931s-16.325,13.747-23.198,30.931Z"/><path class="cls-3" d="M135.016,99.656c-1.434,5.019,4.908,7.651,10.31,9.451,5.155,1.718,12.249-4.605,10.31-9.451-1.718-4.296-10.31-2.578-10.31-4.296,0-3.437,0-5.155-1.718-5.155-3.437,0-6.874,3.437-8.592,9.451Z"/><rect class="cls-3" x="118.121" y="108.988" width="25.776" height="7.69" rx="1.465" ry="1.465" transform="translate(-41.413 125.685) rotate(-45)"/><path class="cls-8" d="M137.648,100.889c-.772,2.007,1.199,4.783,3.796,4.782,2.164,0,5.227-.695,5.406-2.838,.194-2.318-3.242-2.318-3.796-4.782-.667-2.968-4.601,.746-5.406,2.838Z"/><path class="cls-3" d="M23.32,155.504c-1.718-10.31,7.856-27.576,1.718-37.805-5.155-8.592-5.155-6.874-13.747-10.31-10.091-4.036-13.175-2.967-12.029-6.874,.399-1.358,6.874-3.437,20.621,1.718,6.119,2.295,10.386,6.354,12.029,13.747,3.437,15.466-2.396,21.712,0,36.086,1.718,10.31,29.213,8.707,29.213,12.029,0,5.155-10.31,5.155-20.621,1.718-3.645-1.215-16.055-3.536-17.184-10.31Z"/><rect class="cls-3" x="61.125" y="100.515" width="8.592" height="36.086" rx="1.637" ry="1.637" transform="translate(20.102 246.16) rotate(-131.557)"/><rect class="cls-3" x="55.97" y="122.854" width="8.592" height="29.213" rx="1.637" ry="1.637" transform="translate(177.709 230.919) rotate(152.186)"/><path class="cls-6" d="M136.082,65.465c-1.007,15.904-8.797,25.607-30.315,41.686-4.288,3.204-14.288-2.931-21.97-9.144-23.4-18.925-20.156-25.169-21.157-38.164-1.687-21.91,18.107-35.677,40.096-34.284,21.989,1.393,34.714,18.317,33.346,39.905Z"/><ellipse class="cls-1" cx="115.254" cy="53.259" rx="6.014" ry="9.451"/><path class="cls-2" d="M117.832,74.739c1.718,3.437,3.077,6.874,6.874,6.874s6.874-3.077,6.874-6.874-3.478-8.571-6.874-6.874c-3.437,1.718-8.571,3.478-6.874,6.874Z"/><path class="cls-2" d="M66.28,73.021c0,3.796,3.478,8.571,6.874,6.874,3.437-1.718,8.592-3.437,6.874-6.874-2.771-5.542-3.437-5.155-6.874-6.874-3.395-1.698-6.874,3.077-6.874,6.874Z"/><ellipse cx="114.395" cy="57.555" rx="3.437" ry="5.155" transform="translate(-12.762 42.391) rotate(-19.907)"/><path class="cls-1" d="M115.241,55.434c.415,1.206,1.497,2.03,1.535,1.801,.113-.692-.496-.982-.891-2.192-.357-1.095-.96-1.151-1.138-1.043s0,0,.494,1.434Z"/><path class="cls-1" d="M90.341,52.274c0,5.22-2.693,9.451-6.014,9.451-3.322,0-6.014-4.231-6.014-9.451,0-5.22,2.693-9.451,6.014-9.451,3.322,0,6.014,4.231,6.014,9.451Z"/><ellipse cx="85.186" cy="56.57" rx="5.155" ry="3.437" transform="translate(2.99 117.404) rotate(-70.093)"/><path class="cls-1" d="M84.34,54.45c-.415,1.206-1.497,2.03-1.535,1.801-.113-.692,.496-.982,.891-2.192,.357-1.095,.96-1.151,1.138-1.043s0,0-.494,1.434Z"/><path class="cls-5" d="M106.316,42.29c.152,.552,4.849,.801,9.452-1.525,4.667-2.358,9.054-2.971,8.902-3.523-.275-.999-5.112-1.102-9.452,1.525-3.255,1.97-9.054,2.971-8.902,3.523Z"/><path class="cls-5" d="M94.233,41.145c-.152,.552-4.849,.801-9.452-1.525-4.667-2.358-9.054-2.971-8.902-3.523,.275-.999,5.112-1.102,9.452,1.525,3.255,1.97,9.054,2.971,8.902,3.523Z"/><path class="cls-4" d="M95.493,73.021c1.718,3.437,4.86,7.168,6.874,5.155q1.718-1.718,3.437-5.155c1.273-2.547-2.308-3.437-5.155-3.437s-6.428,.89-5.155,3.437Z"/><path d="M104.011,73.623c1.133-.85,2.928-2.072,5.315-3.184,2.125-.989,3.544-1.344,6.867-2.447,1.631-.542,3.998-1.356,6.867-2.447"/><path d="M97.031,74.393c-1.41,.134-3.579,.241-6.196-.056-2.329-.264-3.725-.702-7.136-1.495-1.674-.389-4.118-.929-7.136-1.495"/><path d="M103.946,74.497c1.378-.328,3.511-.734,6.144-.802,2.343-.06,3.786,.18,7.274,.493,1.712,.154,4.207,.35,7.274,.493"/><path d="M102.574,75.369c1.416,.025,3.583,.161,6.15,.749,2.285,.523,3.623,1.114,6.924,2.283,1.62,.574,3.988,1.384,6.924,2.283"/><path d="M97.059,74.988c-1.32,.513-3.378,1.206-5.977,1.632-2.313,.379-3.775,.338-7.273,.504-1.717,.081-4.215,.227-7.273,.504"/><path d="M96.408,73.264c-1.403-.193-3.539-.587-6.017-1.476-2.206-.792-3.464-1.538-6.602-3.092-1.54-.763-3.795-1.849-6.602-3.092"/><path class="cls-7" d="M109.24,86.768c.194-.22-.306-3.301-3.437-3.777-3.68-.56-7.202-.737-10.31,0-1.711,.406-3.437,2.092-3.437,3.777,0,.033,2.176-3.102,5.155-3.437,2.916-.327,5.155,0,6.874,0,3.437,0,4.969,3.648,5.155,3.437Z"/></svg>