<?xml version="1.0" encoding="UTF-8"?><svg id="Layer_1" xmlns="http://www.w3.org/2000/svg" width="156.928" height="200.365" viewBox="0 0 156.928 200.365"><defs><style>.cls-1{fill:#e6e6e6;}.cls-2{fill:#ffb4d0;}.cls-3{fill:#999;}.cls-4{fill:#666;}.cls-5{fill:#42210b;}.cls-6{fill:gray;}.cls-7{fill:#603813;}.cls-8{fill:#534741;}</style></defs><g><path class="cls-6" d="M75.881,8.023c-5.72,8.466-6.667,25.063,2.027,30.938,8.695,5.875,23.739-1.198,29.459-9.664s3.308-20.091-5.386-25.966c-8.695-5.875-20.38-3.774-26.1,4.692Z"/><path class="cls-8" d="M81.516,20.755c-2.391,3.538-2.787,10.475,.847,12.93,3.634,2.455,9.921-.501,12.312-4.039s1.383-8.397-2.251-10.852c-3.634-2.455-8.518-1.577-10.908,1.961Z"/></g><g><path class="cls-6" d="M36.351,9.295c5.72,8.466,6.667,25.063-2.027,30.938-8.695,5.875-23.739-1.198-29.459-9.664C-.856,22.102,1.555,10.477,10.25,4.602,18.945-1.272,30.631,.829,36.351,9.295Z"/><path class="cls-8" d="M31.666,21.933c2.391,3.538,2.787,10.475-.847,12.93-3.634,2.455-9.921-.501-12.312-4.039-2.391-3.538-1.383-8.397,2.251-10.852s8.518-1.577,10.908,1.961Z"/></g><path class="cls-3" d="M22.712,145.376c8.84-30.931,17.018-54.989,38.012-54.989s25.523,25.776,38.012,54.989c11.815,27.637-17.018,54.989-38.012,54.989s-46.374-25.727-38.012-54.989Z"/><path class="cls-8" d="M82.81,150.531c6.344,15.861-10.386,30.931-23.198,30.931-12.812,0-27.693-14.45-23.198-30.931,5.155-18.902,10.386-30.931,23.198-30.931s16.325,13.747,23.198,30.931Z"/><path class="cls-3" d="M20.948,99.838c1.434,5.019-4.908,7.651-10.31,9.451-5.155,1.718-12.249-4.605-10.31-9.451,1.718-4.296,10.31-2.578,10.31-4.296,0-3.437,0-5.155,1.718-5.155,3.437,0,6.874,3.437,8.592,9.451Z"/><rect class="cls-3" x="12.067" y="109.17" width="25.776" height="7.69" rx="1.465" ry="1.465" transform="translate(-37.312 210.574) rotate(-135)"/><path class="cls-8" d="M18.316,101.071c.772,2.007-1.199,4.783-3.796,4.782-2.164,0-5.227-.695-5.406-2.838-.194-2.318,3.242-2.318,3.796-4.782,.667-2.968,4.601,.746,5.406,2.838Z"/><path class="cls-3" d="M132.644,155.686c1.718-10.31-7.856-27.576-1.718-37.805,5.155-8.592,5.155-6.874,13.747-10.31,10.091-4.036,13.175-2.967,12.029-6.874-.399-1.358-6.874-3.437-20.621,1.718-6.119,2.295-10.386,6.354-12.029,13.747-3.437,15.466,2.396,21.712,0,36.086-1.718,10.31-29.213,8.707-29.213,12.029,0,5.155,10.31,5.155,20.621,1.718,3.645-1.215,16.055-3.536,17.184-10.31Z"/><rect class="cls-3" x="86.247" y="100.697" width="8.592" height="36.086" rx="1.637" ry="1.637" transform="translate(-58.373 107.725) rotate(-48.443)"/><rect class="cls-3" x="91.402" y="123.037" width="8.592" height="29.213" rx="1.637" ry="1.637" transform="translate(75.282 -28.751) rotate(27.814)"/><path class="cls-6" d="M19.882,65.648c1.007,15.904,8.797,25.607,30.315,41.686,4.288,3.204,14.288-2.931,21.97-9.144,23.4-18.925,20.156-25.169,21.157-38.164,1.687-21.91-18.107-35.677-40.096-34.284-21.989,1.393-34.714,18.317-33.346,39.905Z"/><ellipse class="cls-1" cx="40.71" cy="53.441" rx="6.014" ry="9.451"/><path class="cls-2" d="M38.132,74.921c-1.718,3.437-3.077,6.874-6.874,6.874s-6.874-3.077-6.874-6.874c0-3.796,3.478-8.571,6.874-6.874,3.437,1.718,8.571,3.478,6.874,6.874Z"/><path class="cls-2" d="M89.684,73.203c0,3.796-3.478,8.571-6.874,6.874-3.437-1.718-8.592-3.437-6.874-6.874,2.771-5.542,3.437-5.155,6.874-6.874,3.395-1.698,6.874,3.077,6.874,6.874Z"/><ellipse cx="41.569" cy="57.737" rx="5.155" ry="3.437" transform="translate(-26.873 77.163) rotate(-70.093)"/><path class="cls-1" d="M40.723,55.616c-.415,1.206-1.497,2.03-1.535,1.801-.113-.692,.496-.982,.891-2.192,.357-1.095,.96-1.151,1.138-1.043s0,0-.494,1.434Z"/><ellipse class="cls-1" cx="71.637" cy="52.457" rx="6.014" ry="9.451"/><ellipse cx="70.778" cy="56.753" rx="3.437" ry="5.155" transform="translate(-15.095 27.491) rotate(-19.907)"/><path class="cls-1" d="M71.624,54.632c.415,1.206,1.497,2.03,1.535,1.801,.113-.692-.496-.982-.891-2.192-.357-1.095-.96-1.151-1.138-1.043s0,0,.494,1.434Z"/><path class="cls-5" d="M49.648,42.472c-.152,.552-4.849,.801-9.452-1.525-4.667-2.358-9.054-2.971-8.902-3.523,.275-.999,5.112-1.102,9.452,1.525,3.255,1.97,9.054,2.971,8.902,3.523Z"/><path class="cls-5" d="M61.731,41.327c.152,.552,4.849,.801,9.452-1.525,4.667-2.358,9.054-2.971,8.902-3.523-.275-.999-5.112-1.102-9.452,1.525-3.255,1.97-9.054,2.971-8.902,3.523Z"/><path class="cls-4" d="M60.471,73.203c-1.718,3.437-4.86,7.168-6.874,5.155q-1.718-1.718-3.437-5.155c-1.273-2.547,2.308-3.437,5.155-3.437s6.428,.89,5.155,3.437Z"/><path d="M51.953,73.806c-1.133-.85-2.928-2.072-5.315-3.184-2.125-.989-3.544-1.344-6.867-2.447-1.631-.542-3.998-1.356-6.867-2.447"/><path d="M58.933,74.576c1.41,.134,3.579,.241,6.196-.056,2.329-.264,3.725-.702,7.136-1.495,1.674-.389,4.118-.929,7.136-1.495"/><path d="M52.018,74.679c-1.378-.328-3.511-.734-6.144-.802-2.343-.06-3.786,.18-7.274,.493-1.712,.154-4.207,.35-7.274,.493"/><path d="M53.39,75.551c-1.416,.025-3.583,.161-6.15,.749-2.285,.523-3.623,1.114-6.924,2.283-1.62,.574-3.988,1.384-6.924,2.283"/><path d="M58.905,75.17c1.32,.513,3.378,1.206,5.977,1.632,2.313,.379,3.775,.338,7.273,.504,1.717,.081,4.215,.227,7.273,.504"/><path d="M59.556,73.446c1.403-.193,3.539-.587,6.017-1.476,2.206-.792,3.464-1.538,6.602-3.092,1.54-.763,3.795-1.849,6.602-3.092"/><path class="cls-7" d="M46.724,86.95c-.194-.22,.306-3.301,3.437-3.777,3.68-.56,7.202-.737,10.31,0,1.711,.406,3.437,2.092,3.437,3.777,0,.033-2.176-3.102-5.155-3.437-2.916-.327-5.155,0-6.874,0-3.437,0-4.969,3.648-5.155,3.437Z"/></svg>