<?xml version="1.0" encoding="UTF-8"?><svg id="Layer_1" xmlns="http://www.w3.org/2000/svg" width="140" height="299" viewBox="0 0 140 299"><defs><style>.cls-1{fill:#e6e6e6;}.cls-2{fill:#ffb4d0;}.cls-3{fill:#736357;}.cls-4{fill:#c1272d;}.cls-5{fill:#c69c6d;}.cls-6{fill:#603813;}.cls-7{fill:#754c24;}.cls-8{fill:#a67c52;opacity:.52;}</style></defs><path class="cls-6" d="M25.218,142.86c-1.302,3.59-7.375-5.322-11.127-.3-3.273,4.381,1.084,17.143-.945,21.636-.738,1.635-.606,4.1-.34,9.03,.346,6.438,1.439,7.719,2.735,8.319,1.697,.785,3.735,.398,4.125,.324,4.601-.874,6.36-5.271,7.754-4.991,1.441,.289-.53,4.968,.85,10.673,.589,2.436,1.793,7.411,5.951,8.214,3.612,.698,8.012-2.032,10.342-4.311,5.057-4.947,4.004-11.332,5.441-11.489,1.497-.164,.948,6.946,6.091,8.821,2.844,1.037,4.56-.573,9.018,.471,4.534,1.061,5.377,3.338,7.133,2.825,3.553-1.038,1.531-10.77,5.3-12.096,2.941-1.035,5.375,4.467,12.448,4.792,3.701,.17,8.658-1.077,10.482-3.704,2.067-2.977-1.806-4.96-.569-9.459,1.27-4.617,13.121,7.35,15.424,2.675,1.198-2.431,1.611-33.427-6.288-41.31-6.8-6.787-8.525,1.477-10.015-.165-13.636-15.017-68.83-3.689-73.811,10.047Z"/><path class="cls-5" d="M125.89,179.792c-3.185-1.629-4.512-5.116-5.661-8.136-.254-.666-.496-1.475-.547-1.644-.616-2.067-1.044-3.501-.698-3.735,.214-.145,1.157-.978,1.793-.415,.789,.698,2.177,3.75,3.038,4.964,1.238,1.746,1.875,1.609,2.208,1.378,.527-.365-.415-1.793-1.66-7.172-.43-1.857-.012-5.742,.548-5.794,.266-.025,1.504-1.158,1.793-.415,.481,1.236,.149,4.896,1.66,7.172,.766,1.154,1.976,3.385,2.623,3.171,.519-.171,.267-1.766,.548-5.794,.222-3.171,.492-3.82,.963-4.001,.685-.263,1.858,.439,2.208,1.378,.435,1.169-.724,1.854-.963,4.001-.196,1.761,.333,3.545,.83,3.586,.356,.03,.469-.854,1.378-2.208,.692-1.029,1.744-2.596,3.171-2.623,.908-.017,2.089,.586,2.208,1.378,.164,1.093-1.816,1.742-4.549,4.831-.604,.683-1.636,1.862-1.378,2.208,.351,.47,3.073-.624,3.586-.83,.923-.371,1.399-.649,1.793-.415,.473,.281,.574,1.148,.415,1.793-.321,1.3-1.697,1.673-3.171,2.623-2.943,1.896-2.357,3.56-4.549,4.831-2.324,1.347-5.496,.936-7.587-.133Z"/><g><rect class="cls-3" x="94.718" y="229.283" width="9.202" height="47.853" rx="1.637" ry="1.637" transform="translate(-90.925 58.822) rotate(-22.966)"/><path d="M110.729,283.793l14.661-2.289c2.919-.837,4.623-3.91,3.786-6.829h0c-4.553-2.524-7.584,.26-12.137-2.264l-10.615,3.044c-2.919,.837-4.8,3.291-3.786,6.829h0c3.291,4.8,5.26,2.669,8.091,1.509Z"/><path class="cls-1" d="M101.742,277.771c-1.032-1.061-1.207-1.036-1.515-1.532-.571-.92-.798-2.34-.206-2.826,.638-.524,1.585,.563,2.824,.238,1.501-.393,1.136-2.258,2.618-2.588,1.113-.248,1.816,.694,2.824,.238,.736-.332,.57-.929,1.309-1.294,.854-.422,1.519,.155,2.824,.239,2.206,.14,2.5-1.371,4.133-1.055,1.681,.325,3.286,2.296,3.03,3.065-.321,.965-3.47-.269-4.133,1.055-.469,.938,.748,2.278,.206,2.826-.491,.497-1.564-.53-2.824-.238-1.587,.368-1.265,2.317-2.618,2.588-1.544,.309-2.783-2.064-4.339-1.771-1.519,.286-1.593,2.784-2.618,2.588-.338-.065-.358-.343-1.515-1.533Z"/></g><g><rect class="cls-3" x="69.4" y="237.771" width="9.202" height="47.853" rx="1.637" ry="1.637" transform="translate(-9.359 2.829) rotate(-2.06)"/><path d="M77.933,291.119l-13.987,4.955c-2.966,.651-5.926-1.243-6.577-4.209h0c2.806-4.385,6.796-3.376,9.602-7.761l10.786-2.368c2.966-.651,5.788,.614,6.577,4.209h0c-.614,5.788-3.359,4.848-6.401,5.174Z"/><path class="cls-1" d="M66.233,283.49c-.688-1.311-.863-1.336-1.017-1.9-.286-1.045-.1-2.47,.606-2.768,.76-.321,1.36,.991,2.64,1.032,1.55,.05,1.732-1.842,3.245-1.737,1.137,.079,1.544,1.181,2.64,1.032,.8-.109,.81-.728,1.623-.868,.939-.162,1.412,.581,2.639,1.032,2.075,.762,2.787-.604,4.262,.163,1.519,.789,2.497,3.136,2.033,3.8-.582,.834-3.251-1.245-4.262-.163-.716,.766,.069,2.397-.606,2.768-.612,.337-1.349-.953-2.64-1.032-1.626-.099-1.871,1.862-3.246,1.737-1.568-.143-2.081-2.77-3.656-2.932-1.537-.158-2.319,2.216-3.246,1.737-.306-.159-.246-.431-1.016-1.9Z"/></g><ellipse class="cls-5" cx="60.64" cy="125.165" rx="50.613" ry="45.092" transform="translate(-26.658 16.894) rotate(-13.03)"/><ellipse class="cls-5" cx="7.743" cy="137.406" rx="9.202" ry="6.442" transform="translate(-30.779 5.283) rotate(-13.03)"/><ellipse class="cls-5" cx="111.328" cy="111.546" rx="9.202" ry="6.442" transform="translate(-22.282 27.971) rotate(-13.03)"/><path class="cls-6" d="M12.618,101.329c-4.76,4.737-3.375,27.315-2.011,28.994,1.154,1.421,2.737-6.721,6.471-8.671,4.206-2.196,4.008-6.093,6.569-5.433,2.299,.593,2.77-5.037,4.428-5.243,2.008-.249,1.876-3.791,4.549-4.831,2.175-.846,3.203,1.132,5.794,.548,3.183-.717,2.959-4,6.343-5.246,3.05-1.123,12.783,4.576,16.073,3.557,3.612-1.119-.657-5.403,2.425-6.431,4.706-1.57,11.191,4.87,14.432,3.182,2.984-1.554-1.463-4.77,.711-5.382,2.636-.742,2.237,2.468,5.26,1.738,2.123-.512,7.439,2.089,10.266,.538,4.028-2.21,12.185,9.398,13.577,7.945,1.166-1.217-10.306-18.921-11.573-20.768-1.948-2.838-4.168-5.386-5.246-6.343-5.612-4.98-28.137-2.141-42.901,2.371-29.193,8.922-26.443,10.791-35.165,19.472Z"/><path class="cls-4" d="M9.995,98.158c-1.694-2.462,4.428-9.383,14.197-20.287,13.956-15.578,20.934-23.367,30.883-29.816,0,0,18.787-12.178,51.17-15.62,2.692-.286,5.498-.357,5.794,.548,.368,1.125-3.457,2.804-6.343,5.246-5.734,4.852-6.994,12.071-8.402,20.836-2.458,15.301,1.253,19.105-2.193,23.177-4.805,5.677-29.205,1.859-42.486,4.164-32.691,5.676-39.533,16.238-42.62,11.752Z"/><path class="cls-1" d="M12.752,93.741c-2.608,.552-3.682-1.348-5.794-.548-1.872,.709-3.282,3.054-2.756,4.416,.638,1.655,3.824,1.059,4.416,2.756,.511,1.465-1.559,2.773-.963,4.001,.49,1.01,2.47,1.319,4.001,.963,2.546-.592,2.739-2.766,4.964-3.038,1.797-.22,2.133,1.141,4.001,.963,2.314-.22,2.438-2.367,4.964-3.038,2.411-.641,3.151,1.086,5.794,.548,2.584-.526,2.367-2.277,4.964-3.038,3.26-.955,4.89,1.424,7.587,.133,1.724-.825,1.43-1.975,3.171-2.623,2.135-.795,3.075,.749,5.794,.548,2.084-.154,3.642-1.254,6.757-3.453,2.738-1.933,3.278-2.934,4.964-3.038,1.634-.101,1.854,.794,4.001,.963,2.266,.178,4.092-.656,5.379-1.245,3.02-1.38,2.85-2.494,4.964-3.038,2.088-.538,2.821,2.302,6.209,2.341,1.591,.018,4.57,.053,7.172-1.66,1.917-1.262,4.703,2.785,6.209,2.341,2.211-.652,1.126-.225,3.586-.83,1.293-.318,2.586-3.106,2.756-4.416,.204-1.572,.2-.666-.83-3.586-.723-2.052-1.834-2.568-2.623-3.171-1.273-.974-1.388,.937-5.379,1.245-3.241,.25-5.824-2.536-8.002-1.926-3.522,.985-4.406,1.37-7.172,1.66-2.554,.268-3.431-1.184-5.794-.548-1.588,.427-1.804,.201-3.586,.83-2.46,.868-4.548-1.516-5.794-.548-1.112,.864-2.045,1.688-3.171,2.623-1.187,.985-.801,.258-3.586,.83-2.504,.514-2.434,2.502-4.964,3.038-2.721,.576-4.037-1.462-5.794-.548-1.934,1.005-1.296,3.969-2.756,4.416-1.98,.606-4.079-4.557-6.624-4.134-2.054,.341-1.825,3.893-4.549,4.831-2.14,.737-3.12-1.167-5.794-.548-2.518,.582-2.432,2.452-4.964,3.038s-3.265-1.134-5.794-.548c-2.563,.593-2.476,2.511-4.964,3.038Z"/><path class="cls-1" d="M109.119,36.521c.333-1.487,1.737-1.856,1.575-2.554s-1.585-.413-2.537-1.602c-.428-.535-.85-1.479-.481-2.078s1.393-.63,2.056-.476c1.463,.341,1.798,1.731,2.537,1.602,.722-.126,.494-1.47,1.575-2.554,1.479-1.483,3.928-.991,4.112-.952,.749,.162,2.485,.724,2.537,1.602,.079,1.336-3.8,2.328-3.631,3.03,.156,.649,3.428-.357,4.593,1.127,.981,1.25,.293,4.042-1.094,4.632-1.591,.677-3.417-1.835-4.593-1.127-1.257,.758,.029,4.113-1.094,4.632-.688,.318-2.053-.531-2.537-1.602-.435-.961-.027-1.809-.481-2.078-.555-.33-1.4,.801-2.056,.476-.518-.256-.657-1.29-.481-2.078Z"/><rect class="cls-5" x="64.243" y="163.059" width="9.202" height="22.086" rx="1.637" ry="1.637" transform="translate(-37.479 20.004) rotate(-13.03)"/><polygon class="cls-4" points="116.688 246.152 52.136 261.09 53.469 185.216 89.183 180.73 116.688 246.152"/><path class="cls-1" d="M63.398,179.14c-.399-1.047,0,0,.903-1.961,.288-.626,.14-1.404-.412-1.779-.919-.625-3.198-.045-4.53,1.048-1.297,1.065-1.204,2.214-1.853,2.303-1.031,.142-1.21-2.758-3.088-3.034-1.622-.238-4.164,1.533-4.118,2.827,.05,1.441,3.289,1.728,3.088,3.034-.129,.841-1.523,1.061-1.853,2.303-.032,.121-.291,1.164,.412,1.779,1.212,1.061,3.993-.277,4.942,.731,.469,.498-.105,.938,.412,1.779,.51,.83,1.756,1.517,2.677,1.255,1.243-.354,1.497-2.327,1.853-2.303,.362,.024-.379,2.035,.823,3.558,.613,.777,1.813,1.53,2.677,1.255,1.08-.344,.883-2.057,1.853-2.303,.846-.215,1.179,1.041,2.677,1.255,1.749,.25,2.675-1.265,4.53-1.048,1.323,.155,1.168,.962,2.677,1.255,1.409,.273,3.378-.075,4.53-1.048,1.062-.897,1.09-3.719,2.223-4.296,.878-.448,1.295,1.816,2.208,1.378,1.059-.507,.11-2.968,.963-4.001,1.606-1.945,4.542-.056,4.696-1.038,.186-1.183-3.194-1.578-3.088-3.034,.062-.852,1.241-1.023,1.853-2.303,.762-1.593-.012-3.532-.823-3.558-1.288-.042-2.957,4.716-3.707,4.606-.565-.083,.592-2.751-.823-3.558-1.054-.602-3.375-.078-4.53,1.048-1.577,1.538-.556,3.788-1.442,4.082-.8,.266-1.814-1.513-2.677-1.255-1.151,.344-.642,3.898-1.442,4.082-.741,.171-1.217-2.871-3.088-3.034-2.053-.179-1.24,2.683-4.105,2.732-.553,.009-.336-3.368-.83-3.586s-3.438,1.22-3.586,.83Z"/><rect class="cls-4" x="84.425" y="186.056" width="32.479" height="9.202" rx="1.637" ry="1.637" transform="translate(84.994 -24.373) rotate(23.665)"/><rect class="cls-4" x="105.788" y="184.923" width="24.814" height="9.202" rx="1.637" ry="1.637" transform="translate(340.204 214.049) rotate(128.253)"/><rect class="cls-4" x="32.189" y="196.718" width="32.479" height="9.202" rx="1.637" ry="1.637" transform="translate(248.434 254.916) rotate(118.527)"/><rect class="cls-4" x="36.17" y="213.686" width="24.814" height="9.202" rx="1.637" ry="1.637" transform="translate(162.255 25.709) rotate(43.099)"/><path class="cls-1" d="M123.854,176.17c-1.356-1.872-.923-1.018-1.931-1.745-1.231-.888-3.353-.588-3.676,.186-.437,1.046,2.437,2.91,2.024,3.583-.377,.616-2.894-.746-3.676,.186-.373,.445-.253,1.295,.093,1.838,.71,1.116,2.065,.463,3.769,1.652,1.222,.852,1.12,1.603,1.931,1.745,1.568,.275,1.231-.422,1.838-.093,.577,.313,.983,.722,1.931,1.745,.717,.774,2.542,.58,3.676-.186,1.043-.704,.812-1.426,1.745-1.931,1.444-.782,2.767,.531,3.676-.186,.92-.726,.802-3.047-.186-3.676-.982-.625-2.184,.826-3.676,.186-1.141-.49-1.043-1.597-1.931-1.745-1.332-.222-2.207,.338-3.676,.186-.721-.075-1.189-.72-1.931-1.745Z"/><ellipse class="cls-1" cx="41.979" cy="125.997" rx="6.442" ry="10.123" transform="translate(-27.326 12.708) rotate(-13.03)"/><ellipse cx="43.913" cy="130.272" rx="5.521" ry="3.681" transform="translate(-90.68 158.269) rotate(-83.122)"/><path class="cls-1" d="M42.519,128.263c-.142,1.359-1.072,2.48-1.167,2.25-.285-.695,.281-1.144,.4-2.503,.108-1.229,.724-1.432,.935-1.363s0,0-.169,1.615Z"/><ellipse class="cls-1" cx="77.841" cy="117.698" rx="6.442" ry="10.123" transform="translate(-24.531 20.58) rotate(-13.03)"/><ellipse cx="77.982" cy="122.388" rx="3.681" ry="5.521" transform="translate(-54.01 62.072) rotate(-32.937)"/><path class="cls-1" d="M78.352,119.971c.725,1.158,2.053,1.757,2.036,1.509-.049-.749-.755-.905-1.459-2.073-.637-1.056-1.279-.969-1.439-.813s0,0,.861,1.377Z"/><path class="cls-2" d="M37.528,142.906c-.963,4.001-1.551,7.916-5.513,8.832s-7.916-1.551-8.832-5.513c-.917-3.961,1.56-9.784,5.513-8.832,4.001,.963,9.784,1.56,8.832,5.513Z"/><path class="cls-2" d="M89.877,130.792c2.623,3.171,4.871,6.429,8.832,5.513,3.961-.917,6.429-4.871,5.513-8.832s-5.699-8.104-8.832-5.513c-3.171,2.623-8.104,5.699-5.513,8.832Z"/><path class="cls-8" d="M61.744,125.854c.382-.208,1.403,1.391,5.246,6.343,2.697,3.475,3.281,4.088,3.038,4.964-.421,1.518-2.55,1.036-6.757,3.453-.436,.251-1.24,.731-1.793,.415-.513-.293-.748-1.236-.415-1.793,.48-.804,1.796-.233,3.586-.83,.954-.318,3.014-1.292,3.171-2.623,.213-1.804-3.288-2.444-5.246-6.343-.77-1.534-1.205-3.382-.83-3.586Z"/><path class="cls-7" d="M42.834,109.449c.44,.427-1.726,2.904-6.281,6.027-4.619,3.167-7.455,6.97-7.895,6.543-.797-.773,1.6-5.368,6.302-8.089,3.527-2.041,7.434-4.908,7.874-4.481Z"/><path class="cls-7" d="M70.236,104.035c-.208,.577,2.826,1.85,8.29,2.655,5.54,.816,9.759,2.987,9.967,2.41,.376-1.044-3.795-4.119-9.214-4.498-4.065-.284-8.834-1.143-9.042-.567Z"/><path class="cls-7" d="M50.184,149.322c-.255,.537,9.839,4.536,12.214,4.946,.554,.096,3.021,.493,6.431,.019,1.622-.225,2.723-.379,4.067-.941,1.173-.491,2.61-1.758,5.438-4.273,1.268-1.128,1.547-1.722,1.702-1.901,2.665-3.074-1.632,.22-2.033,.471-2.777,1.734-2.764,2.993-5.438,4.273-1.672,.801-3.37,.9-4.067,.941-1.206,.071-2.27-.116-4.398-.49-1.875-.329-2.78-.607-4.398-.49-.644,.047-9.36-2.889-9.519-2.555Z"/><path class="cls-7" d="M52.926,144.897c.047,.548,.124,2.26-.963,4.001-.291,.467-1.257,1.882-3.171,2.623"/><path class="cls-7" d="M77.378,143.163c.198,.513,.882,2.084,2.623,3.171,.467,.291,1.956,1.139,4.001,.963"/></svg>