<?xml version="1.0" encoding="UTF-8"?><svg id="Layer_1" xmlns="http://www.w3.org/2000/svg" width="225" height="392.845" viewBox="0 0 225 392.845"><defs><style>.cls-1{fill:#e6e6e6;}.cls-2{fill:#ffb4d0;}.cls-3{fill:#736357;}.cls-4{fill:#c1272d;}.cls-5{fill:#c69c6d;}.cls-6{fill:#603813;}.cls-7{fill:#754c24;}.cls-8{fill:#a67c52;opacity:.52;}</style></defs><path class="cls-6" d="M186.129,144.166c3.27,5.044,9.421-10.777,16.955-4.409,6.573,5.556,4.421,26.672,9.126,32.842,1.711,2.245,2.383,6.072,3.726,13.726,1.753,9.994,.532,12.347-1.242,13.726-2.323,1.806-5.586,1.936-6.21,1.961-7.365,.293-11.623-5.826-13.662-4.902-2.107,.955,2.576,7.429,2.484,16.668-.039,3.944-.119,12-6.21,14.707-5.291,2.351-13.006-.273-17.388-2.941-9.509-5.791-10.16-15.956-12.42-15.687-2.353,.28,1.011,10.988-6.21,15.687-3.993,2.599-7.195,.74-13.662,3.922-6.576,3.236-7.061,7.027-9.936,6.863-5.816-.331-6.17-15.972-12.42-16.668-4.876-.543-6.657,8.756-17.388,11.765-5.615,1.575-13.659,1.421-17.388-1.961-4.225-3.831,1.01-8.247-2.484-14.707-3.585-6.629-17.512,15.926-22.702,9.575-2.699-3.302-14.331-50.685-5.017-65.576,8.019-12.82,13.596-.76,15.299-3.806,15.58-27.866,104.234-30.081,116.746-10.785Z"/><path class="cls-5" d="M44.866,236.519c4.306-3.628,5.104-9.446,5.794-14.484,.152-1.111,.238-2.438,.255-2.715,.211-3.388,.358-5.738-.255-5.976-.38-.147-2.121-1.089-2.897,0-.962,1.351-2.008,6.522-2.897,8.69-1.278,3.117-2.303,3.133-2.897,2.897-.938-.373,0-2.897,0-11.587,0-3-2.019-8.808-2.897-8.69-.417,.056-2.717-1.242-2.897,0-.299,2.065,1.508,7.56,0,11.587-.765,2.041-1.829,5.892-2.897,5.794-.856-.079-1.036-2.614-2.897-8.69-1.465-4.784-2.11-5.683-2.897-5.794-1.143-.16-2.694,1.332-2.897,2.897-.252,1.948,1.768,2.586,2.897,5.794,.925,2.63,.746,5.554,0,5.794-.535,.172-1.022-1.144-2.897-2.897-1.426-1.333-3.595-3.361-5.794-2.897-1.398,.296-2.996,1.64-2.897,2.897,.137,1.734,3.403,2.026,8.69,5.794,1.168,.833,3.17,2.275,2.897,2.897-.371,.845-4.933,.134-5.794,0-1.548-.241-2.376-.498-2.897,0-.626,.598-.473,1.964,0,2.897,.954,1.879,3.196,1.964,5.794,2.897,5.186,1.863,4.877,4.622,8.69,5.794,4.041,1.242,8.76-.515,11.587-2.897Z"/><g><rect class="cls-3" x="104.419" y="302.01" width="14.484" height="75.316" rx="1.637" ry="1.637" transform="translate(163.038 693.507) rotate(-170.064)"/><path d="M105.018,390.613l-23.293,1.693c-4.773-.248-8.476-4.355-8.229-9.129h0c6.086-5.486,11.721-2.293,17.807-7.779l17.357,.9c4.773,.248,8.529,3.343,8.229,9.129h0c-3.343,8.529-7.118,5.959-11.872,5.186Z"/><path class="cls-1" d="M116.661,378.19c1.206-1.994,1.483-2.016,1.779-2.887,.549-1.614,.393-3.871-.687-4.407-1.164-.577-2.231,1.426-4.246,1.368-2.44-.07-2.544-3.059-4.932-3.039-1.794,.015-2.538,1.708-4.246,1.368-1.246-.248-1.203-1.222-2.466-1.52-1.46-.344-2.274,.777-4.245,1.368-3.333,.998-4.32-1.215-6.712-.152-2.462,1.094-4.224,4.686-3.559,5.775,.835,1.366,5.226-1.645,6.712,.152,1.051,1.272-.339,3.759,.687,4.407,.93,.588,2.211-1.368,4.246-1.368,2.563,0,2.761,3.104,4.932,3.039,2.476-.074,3.535-4.152,6.025-4.255,2.43-.101,3.431,3.704,4.932,3.039,.496-.22,.428-.654,1.779-2.887Z"/></g><g><rect class="cls-3" x="146.252" y="306.041" width="14.484" height="75.316" rx="1.637" ry="1.637" transform="translate(369.586 651.91) rotate(169.03)"/><path d="M157.905,390.21l23.205,2.635c4.779-.054,8.646-4.009,8.591-8.788h0c-5.859-5.728-11.619-2.766-17.478-8.493l-17.379,.196c-4.779,.054-8.657,2.995-8.591,8.788,0,0,0,0,0,0h0c2.995,8.657,6.871,6.243,11.652,5.662Z"/><path class="cls-1" d="M173.139,374.359c.589-2.255,.849-2.355,.885-3.274,.068-1.703-.724-3.823-1.912-4.03-1.28-.223-1.734,2.001-3.681,2.519-2.36,.627-3.309-2.21-5.593-1.511-1.716,.525-1.948,2.359-3.681,2.519-1.266,.116-1.501-.829-2.796-.756-1.497,.085-1.959,1.392-3.681,2.519-2.911,1.905-4.487,.063-6.478,1.763-2.049,1.749-2.717,5.694-1.769,6.548,1.189,1.072,4.542-3.063,6.478-1.763,1.37,.92,.744,3.7,1.912,4.03,1.058,.299,1.73-1.94,3.681-2.519,2.458-.728,3.53,2.19,5.593,1.511,2.353-.775,2.209-4.986,4.566-5.793,2.301-.788,4.343,2.575,5.593,1.511,.413-.352,.224-.748,.884-3.274Z"/></g><ellipse class="cls-5" cx="125.535" cy="129.601" rx="79.661" ry="70.971"/><ellipse class="cls-5" cx="210.99" cy="129.601" rx="14.484" ry="10.139"/><ellipse class="cls-5" cx="42.978" cy="126.705" rx="14.484" ry="10.139"/><path class="cls-6" d="M190.712,76.011c8.979,5.575,14.868,40.687,13.372,43.745-1.266,2.588-6.581-9.335-13-11-7.228-1.875-8.308-7.921-12-6-3.315,1.725-6.034-6.741-8.649-6.468-3.167,.33-4.222-5.147-8.69-5.794-3.635-.526-4.509,2.873-8.69,2.897-5.135,.03-5.957-5.084-11.587-5.794-5.075-.639-17.977,11.553-23.383,11.158-5.936-.434-.91-8.517-6-9-7.773-.737-15.431,11.438-21,10-5.127-1.324,.55-7.834-3-8-4.305-.202-2.555,4.578-7.449,4.532-3.438-.032-10.665,5.844-15.551,4.468-6.961-1.96-15.35,18.735-18,17-2.219-1.453,9.088-32.67,10.377-35.952,1.98-5.044,4.48-9.737,5.794-11.587,6.838-9.627,42.385-13.267,66.625-11.587,47.929,3.322,44.376,7.164,60.832,17.381Z"/><path class="cls-4" d="M193.609,70.218c1.723-4.376-10.119-12.817-28.968-26.071-26.928-18.935-40.392-28.403-57.935-34.761,0,0-33.13-12.008-84.006-5.794-4.23,.517-8.557,1.404-8.69,2.897-.165,1.856,6.296,3.073,11.587,5.794,10.514,5.405,15.009,16.028,20.277,28.968,9.198,22.591,4.858,29.741,11.587,34.761,9.383,7,45.443-7.513,66.625-8.69,52.142-2.897,66.381,10.871,69.522,2.897Z"/><path class="cls-1" d="M187.816,64.424c4.195-.079,5.167-3.374,8.69-2.897,3.121,.423,6.116,3.518,5.794,5.794-.391,2.764-5.488,2.981-5.794,5.794-.264,2.427,3.375,3.699,2.897,5.794-.394,1.723-3.32,2.899-5.794,2.897-4.115-.004-5.181-3.269-8.69-2.897-2.833,.301-2.866,2.506-5.794,2.897-3.626,.484-4.577-2.764-8.69-2.897-3.924-.127-4.446,2.784-8.69,2.897-4.149,.11-4.437-2.651-8.69-2.897-5.337-.308-6.993,3.918-11.587,2.897-2.937-.653-2.894-2.521-5.794-2.897-3.556-.461-4.449,2.24-8.69,2.897-3.25,.503-6.029-.63-11.587-2.897-4.884-1.992-6.067-3.336-8.69-2.897-2.542,.425-2.562,1.876-5.794,2.897-3.412,1.078-6.507,.446-8.69,0-5.12-1.045-5.256-2.812-8.69-2.897-3.393-.083-3.509,4.531-8.69,5.794-2.432,.593-6.989,1.703-11.587,0-3.387-1.254-6.224,5.94-8.69,5.794-3.621-.215-1.807,.055-5.794,0-2.095-.029-5.068-3.846-5.794-5.794-.871-2.338-.542-.951,0-5.794,.381-3.403,1.901-4.589,2.897-5.794,1.606-1.944,2.461,.944,8.69,0,5.059-.767,8.031-5.955,11.587-5.794,5.751,.261,7.242,.537,11.587,0,4.011-.496,4.841-3.033,8.69-2.897,2.586,.091,2.838-.332,5.794,0,4.08,.458,6.436-3.939,8.69-2.897,2.012,.93,3.734,1.863,5.794,2.897,2.169,1.089,1.319,.112,5.794,0,4.021-.1,4.62,2.973,8.69,2.897,4.377-.082,5.671-3.674,8.69-2.897,3.322,.855,3.395,5.626,5.794,5.794,3.251,.227,4.638-8.435,8.69-8.69,3.271-.206,4.18,5.322,8.69,5.794,3.543,.37,4.37-2.896,8.69-2.897,4.067,0,4.599,2.897,8.69,2.897s4.605-2.897,8.69-2.897c4.141,0,4.688,2.972,8.69,2.897Z"/><path class="cls-1" d="M19.743,10.879c-1.038-2.162-3.322-2.229-3.322-3.357,0-1.128,2.284-1.196,3.322-3.357,.467-.972,.779-2.57,0-3.357-.779-.787-2.36-.472-3.322,0-2.123,1.041-2.143,3.293-3.322,3.357-1.152,.063-1.28-2.079-3.322-3.357-2.795-1.749-6.374-.127-6.643,0C2.045,1.32-.418,2.798-.186,4.164c.352,2.077,6.653,2.221,6.643,3.357-.009,1.05-5.384,.668-6.643,3.357-1.061,2.264,.985,6.302,3.322,6.715,2.68,.474,4.589-4.027,6.643-3.357,2.196,.716,1.415,6.316,3.322,6.715,1.168,.244,2.959-1.543,3.322-3.357,.325-1.628-.6-2.783,0-3.357,.734-.703,2.431,.731,3.322,0,.703-.577,.55-2.212,0-3.357Z"/><rect class="cls-5" x="123.078" y="190.171" width="14.484" height="34.761" rx="1.637" ry="1.637" transform="translate(260.64 415.103) rotate(-180)"/><polygon class="cls-4" points="82.524 335.009 186.807 335.009 157.839 219.139 101.484 224.932 82.524 335.009"/><path class="cls-1" d="M140.459,213.345c.24-1.747,0,0-2.081-2.687-.664-.857-.712-2.103,0-2.874,1.187-1.284,4.888-1.204,7.318,0,2.366,1.173,2.631,2.967,3.659,2.874,1.631-.148,.877-4.659,3.659-5.748,2.403-.941,6.928,.873,7.318,2.874,.434,2.228-4.43,3.817-3.659,5.748,.496,1.243,2.712,1.086,3.659,2.874,.092,.174,.86,1.681,0,2.874-1.482,2.057-6.221,.992-7.318,2.874-.542,.931,.494,1.401,0,2.874-.488,1.454-2.155,2.95-3.659,2.874-2.031-.102-3.121-3.037-3.659-2.874-.547,.166,1.302,2.985,0,5.748-.665,1.409-2.237,2.99-3.659,2.874-1.778-.145-2.084-2.841-3.659-2.874-1.373-.029-1.439,2.014-3.659,2.874-2.593,1.004-4.551-.99-7.318,0-1.974,.706-1.449,1.89-3.659,2.874-2.063,.919-5.206,1.083-7.318,0-1.947-.998-2.991-5.316-4.933-5.799-1.505-.375-1.341,3.243-2.897,2.897-1.804-.402-1.221-4.511-2.897-5.794-3.153-2.413-6.984,1.525-7.569,.074-.704-1.748,4.337-3.554,3.659-5.748-.397-1.284-2.266-1.128-3.659-2.874-1.734-2.173-1.235-5.42,0-5.748,1.96-.521,6.207,6.182,7.318,5.748,.837-.327-1.883-4.008,0-5.748,1.403-1.297,5.148-1.318,7.318,0,2.964,1.799,2.198,5.612,3.659,5.748,1.321,.123,2.245-2.964,3.659-2.874,1.886,.119,2.368,5.749,3.659,5.748,1.196-.001,.847-4.834,3.659-5.748,3.084-1.003,2.853,3.674,7.264,2.732,.852-.182-.679-5.283,0-5.794s5.704,.651,5.794,0Z"/><rect class="cls-4" x="61.842" y="236.988" width="51.119" height="14.484" rx="1.637" ry="1.637" transform="translate(303.423 387.833) rotate(143.305)"/><rect class="cls-4" x="40.591" y="241.47" width="39.055" height="14.484" rx="1.637" ry="1.637" transform="translate(168.775 17.053) rotate(38.717)"/><rect class="cls-4" x="145.722" y="234.8" width="51.119" height="14.484" rx="1.637" ry="1.637" transform="translate(238.779 -46.69) rotate(48.443)"/><rect class="cls-4" x="157.548" y="260.871" width="39.055" height="14.484" rx="1.637" ry="1.637" transform="translate(498.377 270.515) rotate(123.871)"/><path class="cls-1" d="M46.702,230.243c1.415-3.351,1.054-1.888,2.342-3.361,1.572-1.798,4.933-2.091,5.703-1.02,1.041,1.449-2.704,5.326-1.832,6.213,.797,.81,4.173-2.171,5.703-1.02,.73,.55,.847,1.896,.51,2.852-.692,1.963-3.002,1.443-5.193,3.871-1.571,1.741-1.149,2.856-2.342,3.361-2.307,.978-2.037-.211-2.852,.51-.774,.685-1.252,1.456-2.342,3.361-.824,1.441-3.692,1.791-5.703,1.02-1.85-.709-1.752-1.898-3.361-2.342-2.492-.686-4.055,1.797-5.703,1.02-1.668-.786-2.312-4.387-1.02-5.703,1.283-1.307,3.642,.492,5.703-1.02,1.576-1.156,1.032-2.82,2.342-3.361,1.964-.812,3.505-.265,5.703-1.02,1.079-.37,1.567-1.526,2.342-3.361Z"/><ellipse class="cls-1" cx="154.444" cy="124.256" rx="10.139" ry="15.932"/><ellipse cx="152.996" cy="131.498" rx="5.794" ry="8.69" transform="translate(-35.633 59.953) rotate(-19.907)"/><path class="cls-1" d="M154.421,127.922c.7,2.033,2.524,3.423,2.587,3.037,.19-1.166-.836-1.655-1.502-3.696-.602-1.846-1.618-1.94-1.918-1.757s0,0,.832,2.417Z"/><ellipse class="cls-1" cx="96.509" cy="124.256" rx="10.139" ry="15.932"/><ellipse cx="97.957" cy="131.498" rx="8.69" ry="5.794" transform="translate(-59.037 178.827) rotate(-70.093)"/><path class="cls-1" d="M96.532,127.922c-.7,2.033-2.524,3.423-2.587,3.037-.19-1.166,.836-1.655,1.502-3.696,.602-1.846,1.618-1.94,1.918-1.757s0,0-.832,2.417Z"/><path class="cls-2" d="M167.271,148.604c2.897,5.794,5.188,11.587,11.587,11.587s11.587-5.188,11.587-11.587c0-6.399-5.863-14.449-11.587-11.587-5.794,2.897-14.449,5.863-11.587,11.587Z"/><path class="cls-2" d="M82.7,148.604c-2.897,5.794-5.188,11.587-11.587,11.587-6.399,0-11.587-5.188-11.587-11.587s5.863-14.449,11.587-11.587c5.794,2.897,14.449,5.863,11.587,11.587Z"/><path class="cls-8" d="M124.087,131.05c-.659-.184-1.658,2.63-5.794,11.587-2.902,6.285-3.58,7.433-2.897,8.69,1.184,2.178,4.278,.684,11.587,2.897,.758,.23,2.161,.681,2.897,0,.682-.631,.708-2.16,0-2.897-1.021-1.062-2.837,.281-5.794,0-1.575-.149-5.08-.912-5.794-2.897-.967-2.691,4.175-4.914,5.794-11.587,.637-2.626,.648-5.613,0-5.794Z"/><path class="cls-7" d="M147.261,99.186c-.523,.811,3.677,3.84,11.77,7.013,8.206,3.217,13.904,8.043,14.427,7.232,.947-1.468-4.358-7.663-12.533-10.168-6.132-1.878-13.141-4.888-13.664-4.077Z"/><path class="cls-7" d="M103.322,100.607c.523,.811-3.677,3.84-11.77,7.013-8.206,3.217-13.904,8.043-14.427,7.232-.947-1.468,4.358-7.663,12.533-10.168,6.132-1.878,13.141-4.888,13.664-4.077Z"/><path class="cls-7" d="M150.14,162.934c.582,.733-13.477,10.446-16.974,11.918-.816,.343-4.457,1.828-9.854,2.311-2.567,.23-4.31,.386-6.57,0-1.973-.337-4.627-1.77-9.854-4.623-2.344-1.279-2.983-2.092-3.285-2.311-5.177-3.769,2.58-.242,3.285,0,4.873,1.674,5.3,3.608,9.854,4.623,2.849,.634,5.487,.184,6.57,0,1.875-.32,3.44-.984,6.57-2.311,2.758-1.17,4.047-1.918,6.57-2.311,1.004-.157,13.327-7.751,13.689-7.295Z"/><path class="cls-7" d="M144.364,157.121c.122,.857,.612,3.509,2.897,5.794,.612,.612,2.595,2.44,5.794,2.897"/><path class="cls-7" d="M106.255,163.139c-.122,.857-.612,3.509-2.897,5.794-.612,.612-2.595,2.44-5.794,2.897"/></svg>