<?xml version="1.0" encoding="UTF-8"?><svg id="Layer_1" xmlns="http://www.w3.org/2000/svg" width="250" height="435" viewBox="0 0 250 435"><defs><style>.cls-1{fill:#e6e6e6;}.cls-2{fill:#ffb4d0;}.cls-3{fill:#736357;}.cls-4{fill:#c1272d;}.cls-5{fill:#c69c6d;}.cls-6{fill:#603813;}.cls-7{fill:#754c24;}.cls-8{fill:#a67c52;opacity:.52;}</style></defs><path class="cls-5" d="M201.275,266.341c-4.724-3.98-5.599-10.364-6.356-15.891-.167-1.219-.261-2.675-.28-2.978-.232-3.717-.393-6.296,.28-6.556,.417-.161,2.327-1.195,3.178,0,1.055,1.482,2.203,7.156,3.178,9.534,1.402,3.42,2.527,3.437,3.178,3.178,1.029-.409,0-3.178,0-12.712,0-3.291,2.215-9.664,3.178-9.534,.457,.061,2.981-1.363,3.178,0,.328,2.266-1.655,8.294,0,12.712,.839,2.239,2.006,6.464,3.178,6.356,.939-.086,1.136-2.868,3.178-9.534,1.607-5.249,2.315-6.235,3.178-6.356,1.254-.176,2.955,1.461,3.178,3.178,.277,2.137-1.94,2.837-3.178,6.356-1.015,2.886-.819,6.093,0,6.356,.587,.188,1.121-1.255,3.178-3.178,1.564-1.462,3.945-3.688,6.356-3.178,1.534,.324,3.287,1.799,3.178,3.178-.15,1.902-3.734,2.223-9.534,6.356-1.282,.913-3.478,2.496-3.178,3.178,.407,.927,5.412,.147,6.356,0,1.698-.265,2.607-.546,3.178,0,.686,.656,.519,2.155,0,3.178-1.046,2.061-3.506,2.154-6.356,3.178-5.69,2.044-5.351,5.071-9.534,6.356-4.434,1.362-9.61-.565-12.712-3.178Z"/><g><rect class="cls-3" x="120.047" y="338.192" width="15.891" height="82.631" rx="1.637" ry="1.637" transform="translate(-63.563 27.777) rotate(-9.936)"/><path d="M135.281,435.401l25.555,1.857c5.237-.272,9.299-4.778,9.028-10.015h0c-6.677-6.019-12.86-2.516-19.537-8.534l-19.043,.988c-5.237,.272-9.357,3.668-9.028,10.015,0,0,0,0,0,0h0c3.668,9.357,7.809,6.538,13.025,5.689Z"/><path class="cls-1" d="M122.506,421.772c-1.323-2.188-1.627-2.212-1.952-3.168-.602-1.771-.432-4.247,.753-4.835,1.277-.634,2.448,1.564,4.658,1.5,2.677-.077,2.791-3.356,5.411-3.334,1.968,.016,2.785,1.874,4.658,1.501,1.367-.272,1.32-1.341,2.706-1.667,1.601-.378,2.495,.853,4.658,1.501,3.656,1.095,4.739-1.333,7.364-.167,2.701,1.201,4.634,5.142,3.904,6.336-.916,1.498-5.734-1.804-7.364,.167-1.153,1.395,.371,4.124-.753,4.835-1.02,.645-2.425-1.501-4.658-1.501-2.812,0-3.03,3.405-5.411,3.335-2.717-.081-3.879-4.555-6.61-4.668-2.666-.111-3.764,4.064-5.411,3.335-.544-.241-.469-.717-1.952-3.168Z"/></g><g><rect class="cls-3" x="74.15" y="342.615" width="15.891" height="82.631" rx="1.637" ry="1.637" transform="translate(74.558 -8.607) rotate(10.97)"/><path d="M77.256,434.959l-25.459,2.89c-5.244-.059-9.485-4.398-9.426-9.642h0c6.428-6.284,12.748-3.034,19.175-9.318l19.067,.216c5.244,.059,9.498,3.286,9.426,9.641,0,0,0,0,0,0h0c-3.286,9.498-7.538,6.849-12.783,6.212Z"/><path class="cls-1" d="M60.542,417.569c-.647-2.474-.931-2.584-.971-3.592-.074-1.869,.794-4.195,2.097-4.421,1.404-.244,1.902,2.196,4.039,2.763,2.589,.688,3.63-2.424,6.136-1.658,1.882,.576,2.137,2.589,4.039,2.763,1.388,.128,1.646-.91,3.068-.829,1.643,.093,2.15,1.527,4.039,2.763,3.194,2.09,4.923,.069,7.107,1.934,2.248,1.919,2.981,6.247,1.941,7.184-1.304,1.176-4.984-3.36-7.107-1.934-1.503,1.009-.817,4.059-2.097,4.421-1.161,.328-1.898-2.129-4.039-2.763-2.696-.799-3.873,2.403-6.136,1.658-2.582-.85-2.423-5.47-5.009-6.355-2.525-.865-4.764,2.825-6.136,1.658-.453-.386-.246-.821-.97-3.592Z"/></g><ellipse class="cls-5" cx="110.698" cy="150.34" rx="87.398" ry="77.864"/><ellipse class="cls-5" cx="16.944" cy="150.34" rx="15.891" ry="11.123"/><ellipse class="cls-5" cx="201.275" cy="147.161" rx="15.891" ry="11.123"/><path class="cls-6" d="M39.191,91.544c-9.851,6.117-14.353,31.604-12.712,34.959,1.388,2.839,5.67-10.886,12.712-12.712,7.93-2.057,11.84-8.464,15.891-6.356,3.637,1.892,3.487,6.057,6.356,6.356,3.475,.362,4.632-5.647,9.534-6.356,3.989-.577,4.947,3.152,9.534,3.178,5.634,.032,6.535-5.578,12.712-6.356,5.568-.701,6.781,3.612,12.712,3.178,6.512-.476,7.128-5.827,12.712-6.356,8.528-.809,12.959,11.112,19.069,9.534,5.625-1.453,5.639-12.53,9.534-12.712,4.723-.221,7.343,15.94,12.712,15.891,3.772-.035,4.174-8.025,9.534-9.534,7.637-2.15,16.161,11.438,19.069,9.534,2.435-1.594-1.764-12.29-3.178-15.891-2.173-5.534-4.915-10.683-6.356-12.712-7.502-10.562-46.501-14.556-73.097-12.712-52.585,3.645-48.687,7.86-66.74,19.069Z"/><path class="cls-4" d="M36.013,85.188c-1.891-4.801,11.102-14.062,31.781-28.603,29.543-20.774,44.316-31.161,63.562-38.137,0,0,36.347-13.174,92.165-6.356,4.64,.567,9.388,1.54,9.534,3.178,.182,2.037-6.907,3.372-12.712,6.356-11.535,5.93-16.466,17.584-22.247,31.781-10.091,24.785-5.33,32.629-12.712,38.137-10.294,7.68-49.857-8.243-73.097-9.534-57.206-3.178-72.829,11.927-76.275,3.178Z"/><path class="cls-1" d="M42.369,78.832c-4.603-.086-5.669-3.702-9.534-3.178-3.424,.464-6.71,3.86-6.356,6.356,.429,3.032,6.021,3.27,6.356,6.356,.289,2.663-3.703,4.058-3.178,6.356,.432,1.89,3.642,3.181,6.356,3.178,4.514-.004,5.684-3.587,9.534-3.178,3.108,.33,3.144,2.749,6.356,3.178,3.978,.531,5.022-3.032,9.534-3.178,4.305-.139,4.878,3.055,9.534,3.178,4.552,.121,4.868-2.909,9.534-3.178,5.855-.338,7.672,4.299,12.712,3.178,3.222-.716,3.175-2.766,6.356-3.178,3.901-.506,4.882,2.458,9.534,3.178,3.566,.552,6.615-.691,12.712-3.178,5.359-2.185,6.656-3.66,9.534-3.178,2.789,.467,2.81,2.058,6.356,3.178,3.743,1.182,7.14,.489,9.534,0,5.618-1.147,5.766-3.085,9.534-3.178,3.722-.092,3.849,4.971,9.534,6.356,2.669,.65,7.668,1.868,12.712,0,3.716-1.376,6.828,6.517,9.534,6.356,3.973-.236,1.982,.06,6.356,0,2.299-.032,5.56-4.219,6.356-6.356,.956-2.565,.595-1.043,0-6.356-.418-3.734-2.086-5.034-3.178-6.356-1.762-2.133-2.7,1.036-9.534,0-5.55-.841-8.811-6.533-12.712-6.356-6.309,.286-7.946,.589-12.712,0-4.401-.544-5.311-3.327-9.534-3.178-2.837,.1-3.114-.364-6.356,0-4.476,.502-7.062-4.321-9.534-3.178-2.207,1.02-4.097,2.043-6.356,3.178-2.38,1.195-1.447,.123-6.356,0-4.412-.11-5.069,3.262-9.534,3.178-4.802-.09-6.222-4.031-9.534-3.178-3.644,.938-3.725,6.172-6.356,6.356-3.567,.249-5.088-9.254-9.534-9.534-3.589-.226-4.586,5.839-9.534,6.356-3.887,.406-4.794-3.177-9.534-3.178-4.462,0-5.046,3.178-9.534,3.178s-5.052-3.178-9.534-3.178c-4.543,0-5.144,3.26-9.534,3.178Z"/><path class="cls-1" d="M226.766,20.085c1.139-2.372,3.644-2.445,3.644-3.683s-2.505-1.312-3.644-3.683c-.512-1.066-.855-2.819,0-3.683,.855-.864,2.589-.517,3.644,0,2.329,1.143,2.351,3.613,3.644,3.683,1.263,.069,1.404-2.281,3.644-3.683,3.066-1.919,6.993-.139,7.288,0,1.197,.563,3.899,2.185,3.644,3.683-.387,2.279-7.299,2.436-7.288,3.683,.01,1.152,5.907,.733,7.288,3.683,1.164,2.484-1.081,6.914-3.644,7.367-2.941,.52-5.035-4.418-7.288-3.683-2.409,.785-1.552,6.93-3.644,7.367-1.281,.268-3.246-1.693-3.644-3.683-.357-1.787,.658-3.053,0-3.683-.806-.772-2.667,.802-3.644,0-.771-.633-.604-2.426,0-3.683Z"/><rect class="cls-5" x="99.575" y="215.491" width="15.891" height="38.137" rx="1.637" ry="1.637"/><polygon class="cls-4" points="159.959 374.397 45.547 374.397 77.328 247.272 139.157 253.628 159.959 374.397"/><path class="cls-1" d="M96.397,240.916c-.264-1.917,0,0,2.283-2.948,.728-.941,.782-2.308,0-3.153-1.303-1.409-5.363-1.321-8.029,0-2.596,1.287-2.887,3.255-4.014,3.153-1.79-.162-.962-5.112-4.014-6.306-2.636-1.032-7.601,.958-8.029,3.153-.476,2.445,4.86,4.188,4.014,6.306-.544,1.364-2.976,1.192-4.014,3.153-.101,.191-.943,1.844,0,3.153,1.626,2.256,6.825,1.088,8.029,3.153,.595,1.021-.542,1.538,0,3.153,.535,1.596,2.364,3.236,4.014,3.153,2.228-.112,3.424-3.332,4.014-3.153,.6,.182-1.429,3.275,0,6.306,.729,1.546,2.454,3.28,4.014,3.153,1.95-.159,2.286-3.117,4.014-3.153,1.507-.032,1.578,2.21,4.014,3.153,2.845,1.102,4.993-1.086,8.029,0,2.166,.775,1.59,2.074,4.014,3.153,2.264,1.008,5.712,1.188,8.029,0,2.136-1.095,3.281-5.832,5.412-6.363,1.651-.411,1.471,3.558,3.178,3.178,1.979-.441,1.34-4.95,3.178-6.356,3.46-2.647,7.662,1.674,8.304,.081,.773-1.918-4.758-3.899-4.014-6.306,.435-1.409,2.486-1.238,4.014-3.153,1.902-2.384,1.355-5.946,0-6.306-2.15-.572-6.81,6.783-8.029,6.306-.918-.359,2.066-4.397,0-6.306-1.539-1.423-5.648-1.445-8.029,0-3.251,1.974-2.411,6.157-4.014,6.306-1.449,.135-2.463-3.251-4.014-3.153-2.069,.131-2.598,6.308-4.014,6.306-1.312-.001-.929-5.303-4.014-6.306-3.384-1.1-3.13,4.03-7.97,2.997-.935-.2,.745-5.796,0-6.356s-6.258,.714-6.356,0Z"/><rect class="cls-4" x="126.565" y="266.855" width="56.085" height="15.891" rx="1.637" ry="1.637" transform="translate(194.847 -37.929) rotate(36.695)"/><rect class="cls-4" x="163.116" y="271.773" width="42.848" height="15.891" rx="1.637" ry="1.637" transform="translate(503.484 382.54) rotate(141.283)"/><rect class="cls-4" x="34.538" y="264.455" width="56.085" height="15.891" rx="1.637" ry="1.637" transform="translate(307.929 406.273) rotate(131.557)"/><rect class="cls-4" x="34.8" y="293.058" width="42.848" height="15.891" rx="1.637" ry="1.637" transform="translate(274.809 86.564) rotate(56.129)"/><path class="cls-1" d="M199.26,259.455c-1.552-3.677-1.156-2.072-2.569-3.688-1.725-1.973-5.412-2.294-6.257-1.119-1.143,1.589,2.966,5.843,2.01,6.816-.874,.889-4.578-2.382-6.257-1.119-.801,.603-.929,2.08-.559,3.128,.759,2.154,3.293,1.583,5.698,4.247,1.723,1.91,1.26,3.133,2.569,3.688,2.531,1.073,2.235-.232,3.128,.559,.849,.752,1.373,1.598,2.569,3.688,.904,1.581,4.05,1.965,6.257,1.119,2.029-.778,1.922-2.083,3.688-2.569,2.734-.753,4.449,1.971,6.257,1.119,1.83-.863,2.536-4.814,1.119-6.257-1.408-1.434-3.996,.539-6.257-1.119-1.729-1.268-1.132-3.093-2.569-3.688-2.154-.891-3.845-.291-6.257-1.119-1.184-.406-1.719-1.675-2.569-3.688Z"/><ellipse class="cls-1" cx="78.982" cy="144.475" rx="11.123" ry="17.48"/><ellipse cx="80.571" cy="152.42" rx="9.534" ry="6.356" transform="translate(-90.176 176.277) rotate(-70.093)"/><path class="cls-1" d="M79.007,148.497c-.768,2.231-2.769,3.755-2.838,3.332-.209-1.28,.917-1.816,1.648-4.055,.661-2.025,1.775-2.128,2.104-1.928s0,0-.913,2.651Z"/><ellipse class="cls-1" cx="142.544" cy="144.475" rx="11.123" ry="17.48"/><ellipse cx="140.955" cy="152.42" rx="6.356" ry="9.534" transform="translate(-43.476 57.103) rotate(-19.907)"/><path class="cls-1" d="M142.519,148.497c.768,2.231,2.769,3.755,2.838,3.332,.209-1.28-.917-1.816-1.648-4.055-.661-2.025-1.775-2.128-2.104-1.928s0,0,.913,2.651Z"/><path class="cls-2" d="M64.91,171.188c-3.178,6.356-5.692,12.712-12.712,12.712s-12.712-5.692-12.712-12.712,6.433-15.852,12.712-12.712c6.356,3.178,15.852,6.433,12.712,12.712Z"/><path class="cls-2" d="M157.695,171.188c3.178,6.356,5.692,12.712,12.712,12.712,7.021,0,12.712-5.692,12.712-12.712,0-7.021-6.433-15.852-12.712-12.712-6.356,3.178-15.852,6.433-12.712,12.712Z"/><path class="cls-8" d="M112.288,151.929c.723-.202,1.819,2.885,6.356,12.712,3.184,6.896,3.928,8.155,3.178,9.534-1.298,2.39-4.693,.75-12.712,3.178-.832,.252-2.371,.747-3.178,0-.748-.693-.777-2.37,0-3.178,1.12-1.166,3.113,.308,6.356,0,1.728-.164,5.574-1.001,6.356-3.178,1.061-2.953-4.581-5.392-6.356-12.712-.699-2.881-.711-6.158,0-6.356Z"/><path class="cls-7" d="M86.863,116.969c.574,.889-4.034,4.213-12.913,7.694-9.003,3.529-15.255,8.824-15.829,7.935-1.039-1.61,4.781-8.407,13.75-11.155,6.727-2.061,14.417-5.363,14.991-4.473Z"/><path class="cls-7" d="M135.069,118.529c-.574,.889,4.034,4.213,12.913,7.694,9.003,3.529,15.255,8.824,15.829,7.935,1.039-1.61-4.781-8.407-13.75-11.155-6.727-2.061-14.417-5.363-14.991-4.473Z"/><path class="cls-7" d="M83.704,186.91c-.638,.804,14.786,11.461,18.622,13.076,.895,.377,4.89,2.006,10.812,2.536,2.816,.252,4.729,.423,7.208,0,2.165-.37,5.076-1.942,10.812-5.072,2.572-1.403,3.273-2.295,3.604-2.536,5.68-4.135-2.83-.266-3.604,0-5.347,1.837-5.814,3.959-10.812,5.072-3.125,.696-6.02,.202-7.208,0-2.057-.351-3.774-1.079-7.208-2.536-3.025-1.284-4.44-2.104-7.208-2.536-1.101-.172-14.621-8.504-15.019-8.004Z"/><path class="cls-7" d="M90.041,180.532c-.134,.94-.672,3.85-3.178,6.356-.672,.672-2.847,2.677-6.356,3.178"/><path class="cls-7" d="M131.851,187.135c.134,.94,.672,3.85,3.178,6.356,.672,.672,2.847,2.677,6.356,3.178"/></svg>