<?xml version="1.0" encoding="UTF-8"?><svg id="Layer_1" xmlns="http://www.w3.org/2000/svg" width="315" height="105" viewBox="0 0 315 105"><defs><style>.cls-1{fill:#fff;}.cls-2{fill:red;}</style></defs><rect class="cls-2" y="-1.5" width="315" height="107" rx="12" ry="12"/><g><path class="cls-1" d="M79.249,31.706c.099,1.567,.099,4.721,0,9.457v.195c1.013-4.181,2.401-7.676,4.165-10.485,1.797-2.94,3.675-4.23,5.636-3.871,.882,.164,1.502,.768,1.861,1.812,.49,1.308,.801,2.663,.932,4.067,.195,2.254-.181,5.015-1.127,8.281-.817,2.679-1.879,5.26-3.186,7.742-1.307,2.449-2.744,4.802-4.312,7.056,1.24-.261,2.499-.441,3.772-.539,5.586-.359,9.474,.572,11.662,2.793,.13,.131,.098,.245-.098,.343-.196,.099-.36,.164-.49,.196-.556,.131-.948,.065-1.176-.196-1.993-1.992-5.537-2.727-10.633-2.205-1.372,.131-2.663,.393-3.871,.784-.621,.85-1.226,1.617-1.813,2.303-.359,.426-.768,.817-1.225,1.177,.032,2.188,.049,3.969,.049,5.341,0,.947-.033,2.286-.098,4.018-.066,2.059-.344,3.446-.833,4.165-.327,.49-.932,.76-1.813,.809s-1.536-.122-1.96-.515c-.098-.131-.204-.27-.318-.416-.115-.147-.221-.303-.318-.466-.099-.164-.181-.318-.245-.466-.066-.146-.14-.335-.221-.563-.082-.229-.147-.408-.196-.539s-.106-.318-.171-.563c-.066-.244-.115-.416-.147-.514-.033-.099-.073-.287-.122-.563-.049-.278-.091-.45-.123-.515-.294-1.274-.588-2.811-.882-4.606-.718-4.508-1.143-9.963-1.273-16.366-.131-2.384-.172-5.145-.123-8.28,.049-3.137,.27-5.896,.661-8.281,.196-1.144,1.503-1.813,3.921-2.009,1.077-.099,2.024,0,2.842,.294,.816,.294,1.241,.67,1.273,1.127Zm3.97,3.332c-1.732,4.018-2.989,9.098-3.773,15.238-.065,.654-.131,1.323-.196,2.01v.686c.784-1.241,1.895-3.054,3.332-5.438,1.404-2.353,2.63-4.688,3.676-7.008,.588-1.273,1.077-2.515,1.47-3.724,.718-2.156,1.127-3.495,1.225-4.018,.326-1.634,.326-2.892,0-3.773-.262-.686-.539-1.078-.833-1.176,.065,.033-.017,.114-.245,.245-.065,.032-.114,.065-.146,.098-.196,.164-.425,.36-.687,.588-1.273,1.209-2.548,3.3-3.821,6.272Z"/><path class="cls-1" d="M116.097,59.538c.358,.195,.343,.392-.049,.588-1.145,.686-2.45,.939-3.921,.76-1.47-.18-2.662-.743-3.576-1.69-.589-.653-.817-1.748-.687-3.283,.196-2.385,.294-3.74,.294-4.067,.065-.914,.13-1.633,.196-2.156,.032-.228,.098-.555,.196-.979,.098-.424,.146-.735,.146-.932,.032,0,.049-.13,.049-.392-.458,.523-.752,.882-.882,1.078-1.078,1.536-1.943,3.773-2.597,6.713-.196,.98-.393,1.993-.588,3.038,0,.392-.018,.948-.049,1.666-.033,.719-.066,1.364-.099,1.936-.033,.572-.082,1.103-.146,1.593-.164,1.241-.327,2.09-.49,2.548-.36,.849-1.095,1.502-2.205,1.96-.556,.163-1.119,.163-1.69,0-.572-.164-1.07-.425-1.494-.784-.589-.458-1.096-1.323-1.52-2.597-.392-1.242-.653-2.989-.784-5.243-.098-1.568-.114-3.397-.049-5.488,.065-1.666,.441-3.544,1.127-5.635,.098-.359,.637-.702,1.617-1.029,.588-.228,1.355-.358,2.303-.392,1.992,0,3.087,.44,3.283,1.323,.196,.882,.326,1.731,.392,2.548,.457-1.11,1.013-2.059,1.666-2.843,.751-.979,1.568-1.519,2.45-1.616,.588-.065,1.168-.008,1.739,.171,.571,.181,1.005,.482,1.299,.907,.261,.392,.474,.816,.637,1.273,.163,.458,.286,.866,.368,1.226,.081,.359,.139,.85,.171,1.47,.032,.621,.041,1.054,.024,1.298-.017,.245-.041,.735-.073,1.471-.033,.734-.065,1.168-.098,1.298-.033,.948,.049,2.075,.245,3.382,.098,.522,.294,.865,.588,1.028,.098,.066,.375,.018,.833-.146,.555-.196,1.012-.196,1.372,0Z"/><path class="cls-1" d="M131.972,58.067c.393,.066,.49,.229,.294,.49-.163,.196-.522,.262-1.077,.196-.948-.13-1.879-.294-2.793-.49-.131,1.307-.294,2.565-.49,3.773-.164,1.012-.523,2.417-1.078,4.214-.425,1.437-.898,2.499-1.421,3.185-.784,1.013-1.944,1.634-3.479,1.862-.229,2.613-.343,5.014-.343,7.203,0,.163-.14,.285-.416,.367-.278,.081-.563,.099-.857,.049-.295-.049-.441-.155-.441-.318,0-2.188,.114-4.573,.343-7.153-.49-.033-.979-.099-1.47-.196-1.013-.164-1.806-.507-2.377-1.029s-1.021-1.273-1.347-2.254c-.85-2.483-1.144-5.422-.883-8.82,.196-2.842,.784-5.455,1.765-7.84-.099-.294-.164-.588-.196-.882-.098-.784-.017-1.56,.245-2.327,.261-.768,.661-1.446,1.2-2.034s1.184-1.045,1.936-1.372c1.601-.686,3.201-.734,4.802-.146,.196-1.307,.457-3.038,.784-5.194,0-.163,.123-.27,.368-.318,.244-.049,.481-.057,.71-.024,.229,.033,.343,.115,.343,.245-.326,2.188-.604,4.182-.833,5.978,.294,.196,.571,.425,.833,.687,1.568,1.536,2.385,4.002,2.45,7.398,.032,1.34,0,2.729-.098,4.165,1.143,.262,2.318,.458,3.527,.588Zm-9.701-8.574c.195,1.013,.31,2.14,.343,3.381,.326-2.156,.686-4.491,1.078-7.007-.425-.326-.866-.556-1.323-.687-.817-.261-1.601-.179-2.353,.245-.751,.425-1.355,1.029-1.812,1.813-.294,.489-.49,1.028-.588,1.616,.555-.228,1.273-.358,2.156-.392,1.535,0,2.368,.343,2.499,1.029Zm3.087,9.212c.098-.393,.195-.768,.294-1.127-.687-.196-1.356-.408-2.009-.638,0,.131-.018,.294-.05,.49s-.057,.367-.073,.515-.041,.318-.073,.515c-.033,.196-.049,.376-.049,.539-.066,.392-.131,.841-.196,1.348-.066,.507-.131,1.021-.196,1.543-.065,.523-.131,.98-.195,1.372,.064,.457,.146,.914,.244,1.372v-.049c.131-.262,.27-.563,.417-.906,.146-.344,.294-.703,.44-1.078,.147-.375,.27-.678,.368-.907,.555-1.273,.914-2.27,1.078-2.988Zm.489-1.96c.687-3.594,.539-6.484-.44-8.673-.131-.262-.278-.522-.441-.784-.425,3.038-.816,5.929-1.176,8.673,.653,.294,1.339,.556,2.058,.784Z"/><path class="cls-1" d="M149.122,58.9c.065,.164,.032,.287-.098,.368-.131,.082-.294,.139-.49,.171-1.307,.263-2.581,.213-3.821-.146-.36,1.34-.801,2.564-1.323,3.675-.098,.196-.36,.687-.784,1.47-.098,.131-.237,.326-.416,.588-.181,.262-.303,.457-.368,.589-.327,.588-.556,.931-.686,1.028-.425,.393-1.095,.687-2.009,.882-1.896,.425-3.758,.18-5.586-.734-.948-.49-1.716-1.503-2.304-3.038-.849-2.254-1.191-4.704-1.028-7.351,.065-1.24,.244-2.563,.538-3.969,.033-.163,.099-.49,.196-.979,.099-.49,.172-.857,.221-1.103s.139-.563,.27-.956c.13-.392,.261-.718,.392-.979,.359-.687,1.34-1.045,2.94-1.078,1.404,0,2.205,.343,2.401,1.029,.13,.326,.212,.678,.244,1.053,.032,.376,.057,.842,.074,1.396,.016,.557,.024,.932,.024,1.127,.064,.98,.146,2.092,.245,3.332,.195,2.875,.506,5.016,.931,6.419,.229,.817,.539,1.601,.931,2.353,.032,.065,.114,.196,.245,.392l.147-.146c.489-.49,.996-1.242,1.519-2.254,.556-1.078,1.013-2.254,1.372-3.528-.392-.261-.768-.539-1.127-.833-1.731-1.535-2.712-3.577-2.939-6.125-.099-1.143,.016-2.254,.343-3.332,.326-1.078,.931-1.796,1.812-2.156,1.045-.424,1.943-.343,2.695,.245,.555,.425,1.012,1.258,1.372,2.499,.588,1.96,.686,4.395,.294,7.301-.098,.72-.229,1.454-.392,2.205,.979,.458,1.991,.588,3.037,.393,.653-.131,1.029-.065,1.127,.195Zm-8.771,6.566c.098,.098,.146,.163,.146,.196,0-.099-.049-.164-.146-.196Zm2.891-8.428c.425-2.188,.507-4.328,.245-6.419-.098-1.045-.327-1.943-.686-2.695-.131-.294-.327-.62-.588-.979-.033-.032-.066-.082-.099-.147l-.098-.049h-.049c-.099,.033-.245,.213-.441,.539-.915,1.34-1.127,3.12-.637,5.341,.359,1.699,1.143,3.169,2.352,4.41Z"/><path class="cls-1" d="M165.388,36.067c.099-.358,.163-.604,.196-.734,.032-.163,.049-.277,.049-.343,0-.099,.032-.196,.098-.294,.457-.522,1.152-.858,2.083-1.005,.931-.147,1.706-.073,2.327,.221,.457,.163,.833,.458,1.127,.882,1.34-.098,2.613,.017,3.822,.343,.294,.066,.318,.204,.073,.417s-.563,.27-.955,.171c-.817-.228-1.683-.326-2.597-.294,.163,.36,.358,1.111,.588,2.254,.098,.523,.31,1.978,.637,4.361,.555,4.378,.865,9.621,.931,15.729,.065,2.483,.196,5.112,.393,7.89,0,.294,.032,.718,.098,1.273s.098,.947,.098,1.177l.05-.099c.392-.719,.914-1.812,1.567-3.283,.947-2.188,1.846-4.426,2.695-6.713,.13-.326,.539-.44,1.225-.343,.393,.098,.571,.229,.539,.392-.752,2.124-1.536,4.183-2.352,6.175-1.405,3.396-2.189,5.274-2.353,5.635-.392,.784-.825,1.348-1.298,1.69-.475,.343-1.151,.53-2.034,.563-.719,.032-1.438-.065-2.155-.294-.72-.229-1.381-.588-1.985-1.078s-1.07-1.062-1.396-1.715c-.262-.523-.489-1.119-.686-1.789s-.352-1.233-.466-1.69-.22-1.135-.318-2.033c-.098-.898-.155-1.494-.171-1.788-.018-.294-.05-.972-.099-2.034-.049-1.061-.073-1.657-.073-1.788-.229-3.952-.327-7.872-.294-11.76,.032-1.535,.114-3.495,.245-5.88,0-.425,.081-1.422,.245-2.989v-.294c-.294,.131-.654,.277-1.078,.44-.393,.164-.751,.131-1.078-.098-.196-.13-.114-.277,.245-.441,.752-.294,1.437-.555,2.058-.783v-.05Z"/><path class="cls-1" d="M198.022,56.549c.163,2.614,.18,5.243,.049,7.889-.098,2.286-.343,4.59-.734,6.909-.458,2.776-1.062,5.03-1.813,6.762-.49,1.11-1.249,2.001-2.278,2.671-1.029,.669-2.164,1.037-3.405,1.103-1.34,.065-2.222-.262-2.646-.98-.032-.065-.073-.139-.122-.22-.049-.082-.091-.164-.123-.245-.032-.082-.065-.172-.098-.27-.033-.099-.065-.18-.098-.245-.131-.327-.245-.637-.343-.931-.36-1.372-.475-3.577-.344-6.615,.099-2.254,.344-4.492,.735-6.713,.359-1.928,.816-3.838,1.372-5.733-.784,1.307-1.634,2.336-2.548,3.087-1.111,.947-2.254,1.389-3.431,1.323-1.992-.065-3.349-.882-4.066-2.45-.62-1.273-.801-2.694-.539-4.263,.327-1.96,.833-3.364,1.519-4.214,.687-.85,1.544-1.552,2.573-2.107,1.028-.555,2.098-.849,3.209-.882,1.11-.032,2.14,.327,3.087,1.078,.424,.392,.833,.833,1.226,1.323-.099-1.372-.033-2.549,.195-3.528,.229-.914,1.208-1.47,2.94-1.666,.751-.098,1.486-.098,2.205,0,.882,.131,1.437,.392,1.666,.784,.457,.752,.824,1.634,1.103,2.646,.276,1.014,.448,1.871,.515,2.573,.064,.702,.13,1.674,.195,2.915Zm-13.083,5.488c.556-.49,1.086-1.11,1.593-1.862,.506-.751,.906-1.404,1.2-1.96,.294-.555,.653-1.307,1.078-2.254-.196-.424-.409-.816-.637-1.176-.36-.588-.752-1.127-1.176-1.617-.294-.359-.588-.62-.883-.784-.098-.065-.195-.13-.294-.196-.032,.099-.081,.229-.146,.393-.098,.195-.213,.49-.343,.882-.131,.392-.213,.637-.245,.735-.588,1.666-.948,2.924-1.078,3.772-.196,1.405-.131,2.744,.196,4.019,0,.032,.016,.114,.049,.244,.032,.131,.064,.229,.098,.294,.163-.13,.359-.294,.588-.489Zm4.459,12.544c.032-.752,.099-2.051,.196-3.896,.098-1.846,.172-3.447,.221-4.802,.049-1.356,.057-2.655,.024-3.896v-1.422c-.523,1.83-.932,3.676-1.226,5.537-.326,1.992-.522,3.985-.588,5.979-.098,2.58,0,4.605,.294,6.076,.099,.588,.229,1.045,.393,1.372,.032,.098,.081,.179,.146,.244,0-.032,.017-.081,.049-.146,.229-1.372,.393-3.055,.49-5.047Z"/><path class="cls-1" d="M215.123,57.97c.131-.261,.474-.343,1.029-.245,.261,.099,.392,.213,.392,.343-.914,2.32-1.886,4.329-2.915,6.027s-2.327,3.168-3.896,4.41c-.033,.032-.147,.139-.343,.318-.196,.18-.36,.302-.49,.367-.327,.163-.752,.294-1.274,.393-1.764,.326-3.201,.098-4.312-.687-.621-.425-1.274-1.241-1.96-2.449-.294-.458-.539-.939-.735-1.446-.195-.507-.359-1.021-.489-1.543-.49-1.928-.768-4.001-.833-6.224-.065-2.711,.311-4.916,1.127-6.614,.489-1.013,1.176-1.928,2.058-2.744s1.845-1.389,2.891-1.715c.588-.196,1.209-.326,1.862-.393,.653-.064,1.323,0,2.009,.196,.687,.196,1.176,.556,1.471,1.078,.163,.294,.261,.637,.294,1.029,.032,.392,.032,.743,0,1.053-.033,.312-.123,.694-.27,1.151-.147,.458-.278,.802-.393,1.029-.114,.229-.27,.556-.465,.98-.49,1.078-1.226,2.319-2.205,3.724,.064,2.908,.245,5.521,.539,7.84,.163,1.208,.276,1.992,.343,2.353,.032,.13,.073,.294,.122,.489,.049,.196,.099,.384,.147,.563s.089,.335,.122,.466c.556-.392,1.095-.898,1.617-1.519,1.535-1.699,3.054-4.442,4.557-8.232Zm-7.104-8.967c-.229,.947-.343,2.385-.343,4.312,.13-.195,.245-.407,.343-.637,1.339-2.646,1.617-4.41,.833-5.292l-.049-.049c-.066,.065-.099,.131-.099,.196-.326,.489-.556,.979-.686,1.47Zm.979,19.404l.05,.049c0-.033-.018-.049-.05-.049Z"/><path class="cls-1" d="M239.083,57.872c.163-.262,.555-.343,1.176-.245,.261,.098,.375,.213,.343,.343-.262,.621-1.062,2.581-2.4,5.88-1.34,3.299-2.467,5.766-3.381,7.399-.523,.947-1.111,1.666-1.765,2.156-.816,.62-1.911,.833-3.283,.637-1.273-.196-2.155-.784-2.646-1.765-.458-.882-.817-1.928-1.078-3.136-.392-1.634-.392-3.953,0-6.958,.196-1.404,.637-3.756,1.323-7.056,.064-.294,.139-.693,.221-1.2,.081-.507,.171-.972,.27-1.396,.098-.425,.195-.816,.294-1.177,.424-1.666,.652-2.646,.686-2.939,0-.065,.017-.147,.049-.245s.049-.196,.049-.294v-.27c0-.081-.024-.147-.073-.196s-.122-.073-.221-.073c-.262,.033-.637,.409-1.127,1.127-.522,.686-.996,1.552-1.421,2.597-.686,1.568-1.307,3.708-1.861,6.419-.294,1.503-.557,3.056-.784,4.655v.392c-.033,.816-.066,1.446-.099,1.887-.032,.441-.171,.996-.416,1.666-.245,.669-.597,1.168-1.054,1.495-.653,.457-1.462,.686-2.426,.686s-1.747-.27-2.352-.809-1.087-1.445-1.445-2.72c-.393-1.34-.687-3.201-.882-5.586-.131-1.306-.18-3.233-.147-5.781,.065-2.581,.474-4.524,1.225-5.831,.458-.784,1.601-1.258,3.431-1.421,.653-.065,1.372-.032,2.156,.098,.783,.131,1.273,.409,1.47,.833,.424,1.013,.653,1.943,.686,2.793,.032,.458,.017,1.258-.049,2.401-.033,.653-.049,1.355-.049,2.106,.098-.457,.212-.882,.343-1.273,.522-1.698,1.176-3.169,1.96-4.41s1.715-1.928,2.793-2.059c.49-.064,1.159,.033,2.009,.294,1.046,.327,1.78,.735,2.205,1.226,1.078,1.209,1.698,2.825,1.862,4.851,.098,1.209,.081,2.973-.049,5.292-.131,2.353-.262,4.116-.393,5.292-.032,.326-.073,.784-.122,1.372s-.098,1.069-.147,1.445c-.049,.375-.105,.816-.171,1.323-.066,.506-.147,.972-.245,1.396-.098,.261-.245,.768-.441,1.52,.131-.229,.311-.557,.539-.98,.588-1.078,1.209-2.352,1.862-3.822,.229-.489,.588-1.322,1.078-2.499,.49-1.176,.923-2.181,1.299-3.014,.375-.833,.775-1.641,1.2-2.425Z"/><path class="cls-1" d="M245.6,63.066c-.556,.065-1.151,.041-1.789-.073-.637-.114-1.054-.351-1.249-.71-.523-.947-.784-2.123-.784-3.528v-3.381c-.033-3.92-.033-6.19,0-6.812,.098-3.005,.245-5.341,.441-7.007,.13-1.176,.294-2.303,.489-3.381,.229-1.502,.604-2.629,1.127-3.381,.294-.393,.865-.62,1.716-.687,1.045-.064,1.666,.082,1.861,.441,.393,.719,.62,1.846,.687,3.381,.032,1.078,.081,2.205,.146,3.381,.065,.719,.139,1.83,.221,3.332,.081,1.503,.154,2.646,.221,3.431,.032,.392,.146,2.694,.343,6.908,.032,.262,.065,.646,.098,1.152s.057,.906,.074,1.2c.016,.294,.024,.678,.024,1.151s-.024,.874-.074,1.2c-.049,.327-.122,.687-.22,1.078-.099,.393-.229,.768-.393,1.127-.098,.164-.237,.318-.416,.466-.18,.146-.368,.253-.563,.318-.196,.065-.425,.13-.687,.196-.262,.064-.482,.105-.661,.122-.18,.017-.385,.041-.612,.073Zm3.185,2.156c.457,.719,.637,1.96,.539,3.725-.065,.783-.964,1.257-2.695,1.421-.588,.032-1.2-.018-1.837-.147-.637-.131-.973-.425-1.005-.882-.164-1.764-.049-3.038,.343-3.822,.229-.49,.98-.801,2.255-.931,1.306-.098,2.106,.114,2.4,.637Z"/></g></svg>