<?xml version="1.0" encoding="UTF-8"?><svg id="Layer_1" xmlns="http://www.w3.org/2000/svg" width="564.399" height="250" viewBox="0 0 564.399 250"><defs><style>.cls-1{fill:#f2f2f2;}.cls-2{fill:#f9dd9f;}.cls-3{fill:#f9da70;}.cls-4{fill:#8c6239;}.cls-5{fill:#754c24;}</style></defs><ellipse class="cls-5" cx="277.029" cy="123.709" rx="273.63" ry="47.112"/><polygon class="cls-5" points="476.728 247.912 99.283 247.912 1.7 119.426 182.137 150.263 299.973 155.402 427.016 145.123 554.058 119.426 476.728 247.912"/><path class="cls-1" d="M21.683,105.396c-1.023-4.945,1.378-13.632,5.921-16.541,3.305-2.116,4.935,.626,9.14-.813,7.538-2.579,6.549-12.842,15.06-17.353,1.31-.694,6.16-3.265,10.968-.975,4.277,2.038,5.043,6.267,7.908,6.16,2.986-.111,3.192-4.743,8.345-9.893,2.208-2.207,6.042-6.039,10.57-5.515,4.391,.508,4.786,4.575,9.736,5.997,5.948,1.709,11.351-2.449,12.597-3.408,5.801-4.465,4.626-9.021,9.974-12.326,5.515-3.408,11.558-1.524,12.795-1.138,5.264,1.641,5.012,4.401,9.736,5.997,7.127,2.409,14.219-1.673,18.081-3.896,5.712-3.288,5.712-5.396,8.742-5.353,6.031,.085,7.909,8.463,13.59,7.942,4.146-.38,8.742-5.353,8.742-5.353h0s3.845-9.147,8.345-9.893c5.131-.851,9.267,9.529,11.762,8.105,2.292-1.308-1.014-10.173,2.464-13.946,2.035-2.207,5.362-1.554,9.14-.813,5.303,1.041,6.011,2.994,9.537,3.727,6.142,1.278,8.156-3.781,16.054-6.003,5.73-1.612,5.95,.69,16.65,.807,13.657,.149,13.624-3.598,21.935-1.951,8.793,1.743,9.011,5.973,19.074,7.455,5.872,.865,7.143-.378,12.994,1.132,7.611,1.964,7.823,4.676,13.392,5.672,6.333,1.133,6.75-2.251,18.081-3.896,5.505-.799,10.608-1.476,16.65,.807,5.755,2.174,5.084,4.284,9.736,5.997,10.012,3.688,14.955-5.41,25.591-2.276,3.978,1.172,2.7,2.272,9.736,5.997,10.596,5.611,19.985,6.554,24.558,6.967,10.441,.943,11.114-1.396,18.478,.645,6.322,1.752,5.95,3.511,15.418,7.78,13.019,5.871,16.592,3.839,21.101,9.562,4.528,5.748,2.498,9.794,6.676,13.133,6.372,5.091,13.43-2.452,18.677,2.915,2.989,3.057,1.077,5.892,4.649,11.025,4.54,6.523,9.79,5.049,11.961,10.375,1.582,3.88,.546,8.956-.834,11.513-5.639,10.441-29.474,1.871-38.784-1.126-10.378-3.341-40.219-3.842-99.9-4.842-37.398-.627-32.741,3.267-89.767,5.695-61.324,2.611-59.799-2.186-128.948,.028-19.851,.636-44.828,1.827-81.025,.342-50.561-2.074-72.996-7.317-75.302-18.469Z"/><path class="cls-4" d="M538.762,138.271l-243.966,17.078c-.513,.036-1.029,.04-1.543,.012l-124.996-6.811-151.261-10.279c-9.348,0-16.996-7.709-16.996-17.131H0c0-9.422,7.648-17.132,16.996-17.132l141.064,11.992,164.858,5.139,215.845-17.131c9.348,0,16.996,7.709,16.996,17.131h0c0,9.422-7.648,17.132-16.996,17.132Z"/><path class="cls-2" d="M234.087,42.84c-16.912,1.479-19.807,4.749-20.495,5.649-1.935,2.531-1.059,5.477,0,9.038,1.608,5.407,4.095,5.634,5.124,10.168,1.252,5.517-2.049,6.864,0,10.168,3.008,4.849,12.873,6.389,15.371,6.779,11.691,1.825,22.052-1.59,27.327-3.389,13.126-4.476,12.244-8.475,22.203-10.168,10.183-1.731,13.358,2.066,23.911,0,2.075-.406,12.405-2.429,17.079-9.038,5.43-7.679-1.213-15.272-1.708-15.817-8.388-9.236-26.929-9.078-29.035-9.038-11.412,.215-11.508,3.984-25.619,5.649-13.584,1.603-16.201-1.571-34.158,0Z"/><polygon class="cls-3" points="294.639 56.308 239.16 64.125 235.626 38.64 291.104 30.823 294.639 56.308"/><path class="cls-5" d="M314.42,81.781c1.507,.205,3.399-.352,3.399-.857s-1.892-1.062-3.399-.857c-.699,.095-1.7,.407-1.7,.857s1.001,.761,1.7,.857Z"/><path class="cls-5" d="M229.364,79.734c1.507,.205,3.399-.352,3.399-.857s-1.892-1.062-3.399-.857c-.699,.095-1.7,.407-1.7,.857s1.001,.761,1.7,.857Z"/><path class="cls-5" d="M322.84,69.455c1.507,.205,3.399-.352,3.399-.857s-1.892-1.062-3.399-.857c-.699,.095-1.7,.407-1.7,.857s1.001,.761,1.7,.857Z"/><path class="cls-5" d="M253.158,78.021c1.507,.205,3.399-.352,3.399-.857s-1.892-1.062-3.399-.857c-.699,.095-1.7,.407-1.7,.857s1.001,.761,1.7,.857Z"/><path class="cls-5" d="M239.008,70.317c1.507,.205,3.399-.352,3.399-.857s-1.892-1.062-3.399-.857c-.699,.095-1.7,.407-1.7,.857s1.001,.761,1.7,.857Z"/><path class="cls-5" d="M279.797,78.882c1.507,.205,3.399-.352,3.399-.857s-1.892-1.062-3.399-.857c-.699,.095-1.7,.407-1.7,.857s1.001,.761,1.7,.857Z"/><path class="cls-5" d="M228.359,47.834c1.507,.205,3.399-.352,3.399-.857s-1.892-1.062-3.399-.857c-.699,.095-1.7,.407-1.7,.857s1.001,.761,1.7,.857Z"/><path class="cls-5" d="M303.14,70.105c1.507,.205,3.399-.352,3.399-.857s-1.892-1.062-3.399-.857c-.699,.095-1.7,.407-1.7,.857s1.001,.761,1.7,.857Z"/><path class="cls-5" d="M206.264,76.958c1.507,.205,3.399-.352,3.399-.857s-1.892-1.062-3.399-.857c-.699,.095-1.7,.407-1.7,.857s1.001,.761,1.7,.857Z"/><path class="cls-5" d="M235.157,58.113c1.507,.205,3.399-.352,3.399-.857s-1.892-1.062-3.399-.857c-.699,.095-1.7,.407-1.7,.857s1.001,.761,1.7,.857Z"/><path class="cls-5" d="M338.831,66.679c1.507,.205,3.399-.352,3.399-.857s-1.892-1.062-3.399-.857c-.699,.095-1.7,.407-1.7,.857s1.001,.761,1.7,.857Z"/><path class="cls-5" d="M329.994,52.974c1.507,.205,3.399-.352,3.399-.857s-1.892-1.062-3.399-.857c-.699,.095-1.7,.407-1.7,.857s1.001,.761,1.7,.857Z"/><path class="cls-5" d="M314.698,56.4c1.507,.205,3.399-.352,3.399-.857s-1.892-1.062-3.399-.857c-.699,.095-1.7,.407-1.7,.857s1.001,.761,1.7,.857Z"/><path class="cls-5" d="M348.689,49.547c1.507,.205,3.399-.352,3.399-.857s-1.892-1.062-3.399-.857c-.699,.095-1.7,.407-1.7,.857s1.001,.761,1.7,.857Z"/><path class="cls-5" d="M287.505,64.966c1.507,.205,3.399-.352,3.399-.857s-1.892-1.062-3.399-.857c-.699,.095-1.7,.407-1.7,.857s1.001,.761,1.7,.857Z"/><path class="cls-5" d="M267.11,68.392c1.507,.205,3.399-.352,3.399-.857s-1.892-1.062-3.399-.857c-.699,.095-1.7,.407-1.7,.857s1.001,.761,1.7,.857Z"/><path class="cls-5" d="M191.567,60.957c1.507,.205,3.399-.352,3.399-.857s-1.892-1.062-3.399-.857c-.699,.095-1.7,.407-1.7,.857s1.001,.761,1.7,.857Z"/><path class="cls-5" d="M176.27,64.383c1.507,.205,3.399-.352,3.399-.857s-1.892-1.062-3.399-.857c-.699,.095-1.7,.407-1.7,.857s1.001,.761,1.7,.857Z"/><path class="cls-5" d="M200.064,67.81c1.507,.205,3.399-.352,3.399-.857s-1.892-1.062-3.399-.857c-.699,.095-1.7,.407-1.7,.857s1.001,.761,1.7,.857Z"/><path class="cls-5" d="M201.764,55.818c1.507,.205,3.399-.352,3.399-.857s-1.892-1.062-3.399-.857c-.699,.095-1.7,.407-1.7,.857s1.001,.761,1.7,.857Z"/><path class="cls-5" d="M220.459,57.531c1.507,.205,3.399-.352,3.399-.857s-1.892-1.062-3.399-.857c-.699,.095-1.7,.407-1.7,.857s1.001,.761,1.7,.857Z"/><path class="cls-5" d="M223.858,67.81c1.507,.205,3.399-.352,3.399-.857s-1.892-1.062-3.399-.857c-.699,.095-1.7,.407-1.7,.857s1.001,.761,1.7,.857Z"/><path class="cls-5" d="M256.15,67.81c1.507,.205,3.399-.352,3.399-.857s-1.892-1.062-3.399-.857c-.699,.095-1.7,.407-1.7,.857s1.001,.761,1.7,.857Z"/><path class="cls-5" d="M310.133,47.207c1.507,.205,3.399-.352,3.399-.857s-1.892-1.062-3.399-.857c-.699,.095-1.7,.407-1.7,.857s1.001,.761,1.7,.857Z"/><path class="cls-5" d="M475.797,94.099h0c-1.322-1.569-4.214-4.425-4.102-6.341,.119-2.03,3.33-3.113,4.98-4.526l75.134-64.321c3.206-2.745,8.057-2.346,10.78,.886h0c2.723,3.232,2.328,8.122-.878,10.866l-75.134,64.321c-1.89,1.618-4.458,3.827-6.718,3.324-1.574-.35-2.945-2.882-4.063-4.209Z"/><path class="cls-5" d="M368.151,53.997c1.507,.205,3.399-.352,3.399-.857s-1.892-1.062-3.399-.857c-.699,.095-1.7,.407-1.7,.857s1.001,.761,1.7,.857Z"/><path class="cls-5" d="M357.954,64.276c1.507,.205,3.399-.352,3.399-.857s-1.892-1.062-3.399-.857c-.699,.095-1.7,.407-1.7,.857s1.001,.761,1.7,.857Z"/><path class="cls-5" d="M161.888,59.325c1.507,.205,3.399-.352,3.399-.857s-1.892-1.062-3.399-.857c-.699,.095-1.7,.407-1.7,.857s1.001,.761,1.7,.857Z"/><path class="cls-5" d="M187.382,69.604c1.507,.205,3.399-.352,3.399-.857s-1.892-1.062-3.399-.857c-.699,.095-1.7,.407-1.7,.857s1.001,.761,1.7,.857Z"/><path class="cls-5" d="M382.371,52.736c1.507,.205,3.399-.352,3.399-.857s-1.892-1.062-3.399-.857c-.699,.095-1.7,.407-1.7,.857s1.001,.761,1.7,.857Z"/><path class="cls-5" d="M346.68,57.875c1.507,.205,3.399-.352,3.399-.857s-1.892-1.062-3.399-.857c-.699,.095-1.7,.407-1.7,.857s1.001,.761,1.7,.857Z"/><path class="cls-5" d="M302.491,57.875c1.507,.205,3.399-.352,3.399-.857s-1.892-1.062-3.399-.857c-.699,.095-1.7,.407-1.7,.857s1.001,.761,1.7,.857Z"/><path class="cls-5" d="M353.478,76.72c1.507,.205,3.399-.352,3.399-.857s-1.892-1.062-3.399-.857c-.699,.095-1.7,.407-1.7,.857s1.001,.761,1.7,.857Z"/><path class="cls-5" d="M181.822,81.859c1.507,.205,3.399-.352,3.399-.857s-1.892-1.062-3.399-.857c-.699,.095-1.7,.407-1.7,.857s1.001,.761,1.7,.857Z"/><path class="cls-5" d="M273.599,63.015c1.507,.205,3.399-.352,3.399-.857s-1.892-1.062-3.399-.857c-.699,.095-1.7,.407-1.7,.857s1.001,.761,1.7,.857Z"/></svg>