<?xml version="1.0" encoding="UTF-8"?><svg id="Layer_1" xmlns="http://www.w3.org/2000/svg" width="760" height="311.286" viewBox="0 0 760 311.286"><defs><style>.cls-1{fill:#f2f2f2;}.cls-2{fill:#f9dd9f;}.cls-3{fill:#f9da70;}.cls-4{fill:#8c6239;}.cls-5{fill:#754c24;}</style></defs><ellipse class="cls-5" cx="373.027" cy="142.788" rx="369.012" ry="63.534"/><polygon class="cls-5" points="642.337 310.286 133.322 310.286 1.723 137.012 245.057 178.598 403.969 185.528 575.296 171.667 746.623 137.012 642.337 310.286"/><path class="cls-1" d="M28.673,118.091c-1.379-6.669,1.858-18.384,7.985-22.306,4.457-2.853,6.655,.844,12.325-1.096,10.165-3.478,8.832-17.318,20.31-23.403,1.766-.936,8.307-4.404,14.791-1.315,5.768,2.748,6.801,8.451,10.664,8.307,4.027-.15,4.305-6.397,11.254-13.342,2.977-2.976,8.148-8.144,14.255-7.438,5.922,.685,6.454,6.17,13.129,8.088,8.022,2.305,15.307-3.303,16.988-4.596,7.823-6.021,6.238-12.166,13.451-16.622,7.438-4.595,15.587-2.055,17.256-1.535,7.099,2.213,6.76,5.935,13.129,8.088,9.612,3.249,19.175-2.256,24.383-5.254,7.703-4.434,7.703-7.277,11.79-7.219,8.134,.115,10.666,11.413,18.327,10.711,5.591-.512,11.79-7.219,11.79-7.219h0s5.186-12.335,11.254-13.342c6.919-1.148,12.498,12.851,15.862,10.93,3.091-1.764-1.368-13.719,3.323-18.807,2.744-2.977,7.231-2.096,12.325-1.096,7.151,1.403,8.106,4.037,12.861,5.027,8.283,1.723,10.999-5.098,21.65-8.096,7.728-2.175,8.024,.931,22.454,1.088,18.417,.201,18.372-4.853,29.581-2.631,11.858,2.351,12.152,8.055,25.723,10.053,7.919,1.166,9.633-.509,17.524,1.527,10.264,2.649,10.55,6.306,18.059,7.65,8.541,1.529,9.103-3.035,24.383-5.254,7.424-1.078,14.306-1.99,22.454,1.088,7.761,2.932,6.856,5.777,13.129,8.088,13.502,4.973,20.168-7.296,34.511-3.069,5.364,1.581,3.642,3.064,13.129,8.088,14.29,7.567,26.952,8.839,33.118,9.396,14.08,1.272,14.988-1.883,24.919,.869,8.525,2.363,8.024,4.734,20.793,10.492,17.558,7.917,22.376,5.178,28.456,12.895,6.107,7.751,3.369,13.208,9.003,17.711,8.593,6.866,18.111-3.307,25.187,3.931,4.031,4.123,1.452,7.946,6.27,14.868,6.123,8.797,13.202,6.809,16.13,13.992,2.133,5.232,.737,12.078-1.125,15.526-7.605,14.08-39.748,2.523-52.303-1.519-13.996-4.506-54.239-5.181-134.723-6.53-50.434-.846-44.154,4.405-121.058,7.68-82.701,3.522-80.644-2.948-173.896,.038-26.771,.857-60.454,2.464-109.268,.461-68.185-2.797-98.44-9.867-101.551-24.906Z"/><path class="cls-4" d="M725.995,162.425l-329.008,23.03c-.692,.048-1.387,.054-2.08,.016l-168.567-9.185-203.988-13.862c-12.606,0-22.92-10.396-22.92-23.103H-.569c0-12.707,10.314-23.103,22.92-23.103l190.236,16.172,222.324,6.931,291.084-23.103c12.606,0,22.92,10.396,22.92,23.103h0c0,12.707-10.314,23.103-22.92,23.103Z"/><path class="cls-2" d="M315.116,33.73c-22.807,1.995-26.712,6.405-27.639,7.618-2.609,3.413-1.428,7.386,0,12.189,2.168,7.291,5.522,7.598,6.91,13.712,1.688,7.441-2.764,9.257,0,13.712,4.056,6.539,17.36,8.616,20.729,9.142,15.766,2.461,29.738-2.145,36.852-4.571,17.701-6.037,16.513-11.429,29.943-13.712,13.732-2.335,18.015,2.787,32.246,0,2.798-.548,16.73-3.276,23.033-12.189,7.323-10.355-1.635-20.595-2.303-21.33-11.312-12.456-36.315-12.242-39.156-12.189-15.39,.291-15.519,5.373-34.549,7.618-18.319,2.161-21.848-2.118-46.065,0Z"/><polygon class="cls-3" points="396.775 51.891 321.957 62.434 317.191 28.066 392.009 17.523 396.775 51.891"/><path class="cls-5" d="M423.451,86.244c2.033,.277,4.584-.474,4.584-1.155s-2.551-1.432-4.584-1.155c-.943,.128-2.292,.549-2.292,1.155s1.349,1.027,2.292,1.155Z"/><path class="cls-5" d="M308.747,83.484c2.033,.277,4.584-.474,4.584-1.155s-2.551-1.432-4.584-1.155c-.943,.128-2.292,.549-2.292,1.155s1.349,1.027,2.292,1.155Z"/><path class="cls-5" d="M434.807,69.622c2.033,.277,4.584-.474,4.584-1.155s-2.551-1.432-4.584-1.155c-.943,.128-2.292,.549-2.292,1.155s1.349,1.027,2.292,1.155Z"/><path class="cls-5" d="M340.835,81.173c2.033,.277,4.584-.474,4.584-1.155s-2.551-1.432-4.584-1.155c-.943,.128-2.292,.549-2.292,1.155s1.349,1.027,2.292,1.155Z"/><path class="cls-5" d="M321.752,70.784c2.033,.277,4.584-.474,4.584-1.155s-2.551-1.432-4.584-1.155c-.943,.128-2.292,.549-2.292,1.155s1.349,1.027,2.292,1.155Z"/><path class="cls-5" d="M376.76,82.335c2.033,.277,4.584-.474,4.584-1.155s-2.551-1.432-4.584-1.155c-.943,.128-2.292,.549-2.292,1.155s1.349,1.027,2.292,1.155Z"/><path class="cls-5" d="M307.391,40.464c2.033,.277,4.584-.474,4.584-1.155s-2.551-1.432-4.584-1.155c-.943,.128-2.292,.549-2.292,1.155s1.349,1.027,2.292,1.155Z"/><path class="cls-5" d="M408.239,70.498c2.033,.277,4.584-.474,4.584-1.155s-2.551-1.432-4.584-1.155c-.943,.128-2.292,.549-2.292,1.155s1.349,1.027,2.292,1.155Z"/><path class="cls-5" d="M277.595,79.74c2.033,.277,4.584-.474,4.584-1.155s-2.551-1.432-4.584-1.155c-.943,.128-2.292,.549-2.292,1.155s1.349,1.027,2.292,1.155Z"/><path class="cls-5" d="M316.559,54.326c2.033,.277,4.584-.474,4.584-1.155s-2.551-1.432-4.584-1.155c-.943,.128-2.292,.549-2.292,1.155s1.349,1.027,2.292,1.155Z"/><path class="cls-5" d="M456.371,65.878c2.033,.277,4.584-.474,4.584-1.155s-2.551-1.432-4.584-1.155c-.943,.128-2.292,.549-2.292,1.155s1.349,1.027,2.292,1.155Z"/><path class="cls-5" d="M444.454,47.395c2.033,.277,4.584-.474,4.584-1.155s-2.551-1.432-4.584-1.155c-.943,.128-2.292,.549-2.292,1.155s1.349,1.027,2.292,1.155Z"/><path class="cls-5" d="M423.826,52.016c2.033,.277,4.584-.474,4.584-1.155s-2.551-1.432-4.584-1.155c-.943,.128-2.292,.549-2.292,1.155s1.349,1.027,2.292,1.155Z"/><path class="cls-5" d="M469.666,42.775c2.033,.277,4.584-.474,4.584-1.155s-2.551-1.432-4.584-1.155c-.943,.128-2.292,.549-2.292,1.155s1.349,1.027,2.292,1.155Z"/><path class="cls-5" d="M387.155,63.567c2.033,.277,4.584-.474,4.584-1.155s-2.551-1.432-4.584-1.155c-.943,.128-2.292,.549-2.292,1.155s1.349,1.027,2.292,1.155Z"/><path class="cls-5" d="M359.651,68.188c2.033,.277,4.584-.474,4.584-1.155s-2.551-1.432-4.584-1.155c-.943,.128-2.292,.549-2.292,1.155s1.349,1.027,2.292,1.155Z"/><path class="cls-5" d="M257.774,58.161c2.033,.277,4.584-.474,4.584-1.155s-2.551-1.432-4.584-1.155c-.943,.128-2.292,.549-2.292,1.155s1.349,1.027,2.292,1.155Z"/><path class="cls-5" d="M237.146,62.782c2.033,.277,4.584-.474,4.584-1.155s-2.551-1.432-4.584-1.155c-.943,.128-2.292,.549-2.292,1.155s1.349,1.027,2.292,1.155Z"/><path class="cls-5" d="M269.234,67.403c2.033,.277,4.584-.474,4.584-1.155s-2.551-1.432-4.584-1.155c-.943,.128-2.292,.549-2.292,1.155s1.349,1.027,2.292,1.155Z"/><path class="cls-5" d="M271.526,51.23c2.033,.277,4.584-.474,4.584-1.155s-2.551-1.432-4.584-1.155c-.943,.128-2.292,.549-2.292,1.155s1.349,1.027,2.292,1.155Z"/><path class="cls-5" d="M296.738,53.541c2.033,.277,4.584-.474,4.584-1.155s-2.551-1.432-4.584-1.155c-.943,.128-2.292,.549-2.292,1.155s1.349,1.027,2.292,1.155Z"/><path class="cls-5" d="M301.322,67.403c2.033,.277,4.584-.474,4.584-1.155s-2.551-1.432-4.584-1.155c-.943,.128-2.292,.549-2.292,1.155s1.349,1.027,2.292,1.155Z"/><path class="cls-5" d="M344.87,67.403c2.033,.277,4.584-.474,4.584-1.155s-2.551-1.432-4.584-1.155c-.943,.128-2.292,.549-2.292,1.155s1.349,1.027,2.292,1.155Z"/><path class="cls-5" d="M417.67,39.618c2.033,.277,4.584-.474,4.584-1.155s-2.551-1.432-4.584-1.155c-.943,.128-2.292,.549-2.292,1.155s1.349,1.027,2.292,1.155Z"/><path class="cls-5" d="M641.081,102.857h0c-1.782-2.116-5.683-5.968-5.532-8.551,.161-2.738,4.491-4.199,6.716-6.104L743.59,1.46c4.324-3.701,10.866-3.164,14.538,1.194h0c3.672,4.358,3.139,10.953-1.185,14.654l-101.324,86.742c-2.548,2.182-6.011,5.16-9.059,4.483-2.123-.472-3.971-3.887-5.479-5.677Z"/><path class="cls-5" d="M495.913,48.775c2.033,.277,4.584-.474,4.584-1.155s-2.551-1.432-4.584-1.155c-.943,.128-2.292,.549-2.292,1.155s1.349,1.027,2.292,1.155Z"/><path class="cls-5" d="M482.161,62.637c2.033,.277,4.584-.474,4.584-1.155s-2.551-1.432-4.584-1.155c-.943,.128-2.292,.549-2.292,1.155s1.349,1.027,2.292,1.155Z"/><path class="cls-5" d="M217.75,55.961c2.033,.277,4.584-.474,4.584-1.155s-2.551-1.432-4.584-1.155c-.943,.128-2.292,.549-2.292,1.155s1.349,1.027,2.292,1.155Z"/><path class="cls-5" d="M252.13,69.823c2.033,.277,4.584-.474,4.584-1.155s-2.551-1.432-4.584-1.155c-.943,.128-2.292,.549-2.292,1.155s1.349,1.027,2.292,1.155Z"/><path class="cls-5" d="M515.089,47.074c2.033,.277,4.584-.474,4.584-1.155s-2.551-1.432-4.584-1.155c-.943,.128-2.292,.549-2.292,1.155s1.349,1.027,2.292,1.155Z"/><path class="cls-5" d="M466.957,54.005c2.033,.277,4.584-.474,4.584-1.155s-2.551-1.432-4.584-1.155c-.943,.128-2.292,.549-2.292,1.155s1.349,1.027,2.292,1.155Z"/><path class="cls-5" d="M407.365,54.005c2.033,.277,4.584-.474,4.584-1.155s-2.551-1.432-4.584-1.155c-.943,.128-2.292,.549-2.292,1.155s1.349,1.027,2.292,1.155Z"/><path class="cls-5" d="M476.125,79.419c2.033,.277,4.584-.474,4.584-1.155s-2.551-1.432-4.584-1.155c-.943,.128-2.292,.549-2.292,1.155s1.349,1.027,2.292,1.155Z"/><path class="cls-5" d="M244.633,86.35c2.033,.277,4.584-.474,4.584-1.155s-2.551-1.432-4.584-1.155c-.943,.128-2.292,.549-2.292,1.155s1.349,1.027,2.292,1.155Z"/><path class="cls-5" d="M368.401,60.936c2.033,.277,4.584-.474,4.584-1.155s-2.551-1.432-4.584-1.155c-.943,.128-2.292,.549-2.292,1.155s1.349,1.027,2.292,1.155Z"/></svg>