<?xml version="1.0" encoding="UTF-8"?><svg id="Layer_1" xmlns="http://www.w3.org/2000/svg" width="1290" height="490" viewBox="0 0 1290 490"><defs><style>.cls-1{fill:#f2f2f2;}.cls-2{fill:#f9dd9f;}.cls-3{fill:#f9da70;}.cls-4{fill:#8c6239;}.cls-5{fill:#754c24;}</style></defs><ellipse class="cls-5" cx="633.182" cy="226.372" rx="625.393" ry="99.83"/><polygon class="cls-5" points="1089.603 489.561 226.936 489.561 3.905 217.296 416.302 282.64 685.622 293.531 975.983 271.749 1266.344 217.296 1089.603 489.561"/><path class="cls-1" d="M49.578,187.566c-2.338-10.478,3.149-28.887,13.532-35.05,7.554-4.484,11.278,1.326,20.889-1.722,17.228-5.464,14.968-27.212,34.421-36.772,2.993-1.471,14.079-6.919,25.067-2.067,9.776,4.318,11.526,13.279,18.073,13.053,6.824-.236,7.297-10.051,19.073-20.964,5.046-4.676,13.81-12.797,24.159-11.687,10.036,1.076,10.938,9.695,22.251,12.709,13.595,3.622,25.943-5.189,28.79-7.222,13.259-9.461,10.572-19.116,22.796-26.118,12.606-7.221,26.417-3.228,29.245-2.411,12.031,3.478,11.456,9.326,22.251,12.709,16.29,5.105,32.498-3.545,41.324-8.255,13.055-6.967,13.054-11.434,19.981-11.343,13.785,.181,18.077,17.932,31.061,16.83,9.475-.804,19.981-11.343,19.981-11.343h0s8.789-19.382,19.073-20.964c11.727-1.803,21.181,20.193,26.883,17.175,5.239-2.772-2.318-21.556,5.631-29.551,4.651-4.677,12.254-3.294,20.889-1.722,12.12,2.205,13.738,6.344,21.797,7.898,14.038,2.708,18.64-8.011,36.692-12.721,13.097-3.417,13.599,1.463,38.054,1.71,31.213,.316,31.137-7.625,50.134-4.133,20.097,3.694,20.595,12.657,43.594,15.797,13.422,1.832,16.326-.8,29.699,2.399,17.394,4.162,17.88,9.908,30.607,12.02,14.475,2.402,15.428-4.77,41.324-8.255,12.582-1.693,24.246-3.127,38.054,1.71,13.153,4.607,11.619,9.078,22.251,12.709,22.883,7.815,34.181-11.465,58.489-4.822,9.091,2.484,6.172,4.814,22.251,12.709,24.218,11.89,45.678,13.888,56.128,14.763,23.862,1.999,25.401-2.959,42.232,1.366,14.448,3.713,13.598,7.439,35.239,16.486,29.756,12.44,37.922,8.136,48.226,20.263,10.35,12.18,5.709,20.754,15.258,27.829,14.563,10.789,30.694-5.196,42.686,6.176,6.831,6.478,2.46,12.486,10.626,23.363,10.377,13.823,22.375,10.699,27.337,21.985,3.615,8.221,1.249,18.979-1.907,24.396-12.889,22.124-67.364,3.965-88.642-2.387-23.72-7.081-91.922-8.141-228.325-10.261-85.475-1.329-74.831,6.922-205.166,12.068-140.159,5.534-136.673-4.632-294.716,.06-45.37,1.347-102.457,3.871-185.185,.725-115.558-4.394-166.834-15.504-172.107-39.135Z"/><path class="cls-4" d="M1231.384,257.229l-557.596,36.188c-1.174,.076-2.351,.085-3.526,.025l-285.684-14.432-345.714-21.781C17.5,257.229,.02,240.893,.02,220.927H.02c0-19.966,17.48-36.302,38.844-36.302l322.408,25.411,376.79,10.891,493.323-36.302c21.364,0,38.844,16.336,38.844,36.302h0c0,19.966-17.48,36.302-38.844,36.302Z"/><path class="cls-2" d="M535.035,55.01c-38.653,3.134-45.27,10.064-46.842,11.97-4.422,5.363-2.42,11.605,0,19.152,3.674,11.457,9.359,11.939,11.711,21.546,2.861,11.691-4.684,14.545,0,21.546,6.874,10.275,29.421,13.538,35.132,14.364,26.72,3.866,50.4-3.37,62.457-7.182,29.999-9.485,27.985-17.959,50.746-21.546,23.273-3.668,30.531,4.378,54.65,0,4.742-.861,28.353-5.147,39.035-19.152,12.411-16.271-2.771-32.361-3.904-33.516-19.172-19.572-61.546-19.237-66.36-19.152-26.083,.457-26.301,8.442-58.553,11.97-31.046,3.396-37.027-3.328-78.071,0Z"/><polygon class="cls-3" points="673.43 83.547 546.631 100.112 538.553 46.11 665.352 29.544 673.43 83.547"/><path class="cls-5" d="M718.64,137.525c3.445,.435,7.769-.745,7.769-1.815s-4.324-2.25-7.769-1.815c-1.597,.202-3.884,.862-3.884,1.815s2.287,1.613,3.884,1.815Z"/><path class="cls-5" d="M524.243,133.188c3.445,.435,7.769-.745,7.769-1.815s-4.324-2.25-7.769-1.815c-1.597,.202-3.884,.862-3.884,1.815s2.287,1.613,3.884,1.815Z"/><path class="cls-5" d="M737.886,111.407c3.445,.435,7.769-.745,7.769-1.815s-4.324-2.25-7.769-1.815c-1.597,.202-3.884,.862-3.884,1.815s2.287,1.613,3.884,1.815Z"/><path class="cls-5" d="M578.625,129.558c3.445,.435,7.769-.745,7.769-1.815s-4.324-2.25-7.769-1.815c-1.597,.202-3.884,.862-3.884,1.815s2.287,1.613,3.884,1.815Z"/><path class="cls-5" d="M546.283,113.232c3.445,.435,7.769-.745,7.769-1.815s-4.324-2.25-7.769-1.815c-1.597,.202-3.884,.862-3.884,1.815s2.287,1.613,3.884,1.815Z"/><path class="cls-5" d="M639.509,131.383c3.445,.435,7.769-.745,7.769-1.815s-4.324-2.25-7.769-1.815c-1.597,.202-3.884,.862-3.884,1.815s2.287,1.613,3.884,1.815Z"/><path class="cls-5" d="M521.944,65.592c3.445,.435,7.769-.745,7.769-1.815s-4.324-2.25-7.769-1.815c-1.597,.202-3.884,.862-3.884,1.815s2.287,1.613,3.884,1.815Z"/><path class="cls-5" d="M692.859,112.784c3.445,.435,7.769-.745,7.769-1.815s-4.324-2.25-7.769-1.815c-1.597,.202-3.884,.862-3.884,1.815s2.287,1.613,3.884,1.815Z"/><path class="cls-5" d="M471.447,127.305c3.445,.435,7.769-.745,7.769-1.815s-4.324-2.25-7.769-1.815c-1.597,.202-3.884,.862-3.884,1.815s2.287,1.613,3.884,1.815Z"/><path class="cls-5" d="M537.482,87.373c3.445,.435,7.769-.745,7.769-1.815s-4.324-2.25-7.769-1.815c-1.597,.202-3.884,.862-3.884,1.815s2.287,1.613,3.884,1.815Z"/><path class="cls-5" d="M774.432,105.524c3.445,.435,7.769-.745,7.769-1.815s-4.324-2.25-7.769-1.815c-1.597,.202-3.884,.862-3.884,1.815s2.287,1.613,3.884,1.815Z"/><path class="cls-5" d="M754.236,76.482c3.445,.435,7.769-.745,7.769-1.815s-4.324-2.25-7.769-1.815c-1.597,.202-3.884,.862-3.884,1.815s2.287,1.613,3.884,1.815Z"/><path class="cls-5" d="M719.276,83.743c3.445,.435,7.769-.745,7.769-1.815s-4.324-2.25-7.769-1.815c-1.597,.202-3.884,.862-3.884,1.815s2.287,1.613,3.884,1.815Z"/><path class="cls-5" d="M796.965,69.222c3.445,.435,7.769-.745,7.769-1.815s-4.324-2.25-7.769-1.815c-1.597,.202-3.884,.862-3.884,1.815s2.287,1.613,3.884,1.815Z"/><path class="cls-5" d="M657.125,101.893c3.445,.435,7.769-.745,7.769-1.815s-4.324-2.25-7.769-1.815c-1.597,.202-3.884,.862-3.884,1.815s2.287,1.613,3.884,1.815Z"/><path class="cls-5" d="M610.512,109.154c3.445,.435,7.769-.745,7.769-1.815s-4.324-2.25-7.769-1.815c-1.597,.202-3.884,.862-3.884,1.815s2.287,1.613,3.884,1.815Z"/><path class="cls-5" d="M437.854,93.399c3.445,.435,7.769-.745,7.769-1.815s-4.324-2.25-7.769-1.815c-1.597,.202-3.884,.862-3.884,1.815s2.287,1.613,3.884,1.815Z"/><path class="cls-5" d="M402.894,100.659c3.445,.435,7.769-.745,7.769-1.815s-4.324-2.25-7.769-1.815c-1.597,.202-3.884,.862-3.884,1.815s2.287,1.613,3.884,1.815Z"/><path class="cls-5" d="M457.276,107.92c3.445,.435,7.769-.745,7.769-1.815s-4.324-2.25-7.769-1.815c-1.597,.202-3.884,.862-3.884,1.815s2.287,1.613,3.884,1.815Z"/><path class="cls-5" d="M461.16,82.508c3.445,.435,7.769-.745,7.769-1.815s-4.324-2.25-7.769-1.815c-1.597,.202-3.884,.862-3.884,1.815s2.287,1.613,3.884,1.815Z"/><path class="cls-5" d="M503.889,86.139c3.445,.435,7.769-.745,7.769-1.815s-4.324-2.25-7.769-1.815c-1.597,.202-3.884,.862-3.884,1.815s2.287,1.613,3.884,1.815Z"/><path class="cls-5" d="M511.658,107.92c3.445,.435,7.769-.745,7.769-1.815s-4.324-2.25-7.769-1.815c-1.597,.202-3.884,.862-3.884,1.815s2.287,1.613,3.884,1.815Z"/><path class="cls-5" d="M585.462,107.92c3.445,.435,7.769-.745,7.769-1.815s-4.324-2.25-7.769-1.815c-1.597,.202-3.884,.862-3.884,1.815s2.287,1.613,3.884,1.815Z"/><path class="cls-5" d="M708.843,64.262c3.445,.435,7.769-.745,7.769-1.815s-4.324-2.25-7.769-1.815c-1.597,.202-3.884,.862-3.884,1.815s2.287,1.613,3.884,1.815Z"/><path class="cls-5" d="M1087.475,163.629h0c-3.021-3.324-9.632-9.377-9.375-13.436,.273-4.302,7.612-6.597,11.383-9.59L1261.205,4.305c7.328-5.816,18.415-4.972,24.639,1.876h0c6.223,6.848,5.32,17.21-2.008,23.026l-171.722,136.298c-4.319,3.428-10.188,8.109-15.353,7.043-3.598-.742-6.73-6.108-9.285-8.92Z"/><path class="cls-5" d="M841.446,78.651c3.445,.435,7.769-.745,7.769-1.815s-4.324-2.25-7.769-1.815c-1.597,.202-3.884,.862-3.884,1.815s2.287,1.613,3.884,1.815Z"/><path class="cls-5" d="M818.14,100.432c3.445,.435,7.769-.745,7.769-1.815s-4.324-2.25-7.769-1.815c-1.597,.202-3.884,.862-3.884,1.815s2.287,1.613,3.884,1.815Z"/><path class="cls-5" d="M370.022,89.941c3.445,.435,7.769-.745,7.769-1.815s-4.324-2.25-7.769-1.815c-1.597,.202-3.884,.862-3.884,1.815s2.287,1.613,3.884,1.815Z"/><path class="cls-5" d="M428.289,111.722c3.445,.435,7.769-.745,7.769-1.815s-4.324-2.25-7.769-1.815c-1.597,.202-3.884,.862-3.884,1.815s2.287,1.613,3.884,1.815Z"/><path class="cls-5" d="M873.945,75.978c3.445,.435,7.769-.745,7.769-1.815s-4.324-2.25-7.769-1.815c-1.597,.202-3.884,.862-3.884,1.815s2.287,1.613,3.884,1.815Z"/><path class="cls-5" d="M792.372,86.869c3.445,.435,7.769-.745,7.769-1.815s-4.324-2.25-7.769-1.815c-1.597,.202-3.884,.862-3.884,1.815s2.287,1.613,3.884,1.815Z"/><path class="cls-5" d="M691.377,86.869c3.445,.435,7.769-.745,7.769-1.815s-4.324-2.25-7.769-1.815c-1.597,.202-3.884,.862-3.884,1.815s2.287,1.613,3.884,1.815Z"/><path class="cls-5" d="M807.91,126.801c3.445,.435,7.769-.745,7.769-1.815s-4.324-2.25-7.769-1.815c-1.597,.202-3.884,.862-3.884,1.815s2.287,1.613,3.884,1.815Z"/><path class="cls-5" d="M415.582,137.691c3.445,.435,7.769-.745,7.769-1.815s-4.324-2.25-7.769-1.815c-1.597,.202-3.884,.862-3.884,1.815s2.287,1.613,3.884,1.815Z"/><path class="cls-5" d="M625.342,97.759c3.445,.435,7.769-.745,7.769-1.815s-4.324-2.25-7.769-1.815c-1.597,.202-3.884,.862-3.884,1.815s2.287,1.613,3.884,1.815Z"/></svg>