<?xml version="1.0" encoding="UTF-8"?><svg id="Layer_1" xmlns="http://www.w3.org/2000/svg" width="315.309" height="108.012" viewBox="0 0 315.309 108.012"><defs><style>.cls-1{fill:#fff;}.cls-2{fill:red;}</style></defs><rect class="cls-2" width="315.309" height="108.012" rx="12" ry="12"/><g><path class="cls-1" d="M52.755,58.721c.981-.23,1.97-.321,2.968-.271,.997,.049,1.913,.395,2.747,1.038,.834,.644,1.283,1.492,1.349,2.547,.032,.132-.066,.24-.294,.321-.23,.083-.466,.1-.712,.05-.245-.05-.368-.14-.368-.272-.098-.858-.524-1.591-1.276-2.201-.753-.61-1.569-.898-2.452-.866-1.538,.066-3.254,1.121-5.151,3.165-.294,.33-.605,.692-.932,1.088,.261,.692,.76,1.971,1.496,3.834,.736,1.862,1.3,3.305,1.692,4.328,1.831,4.88,2.796,8.821,2.894,11.822,.031,1.187-.245,2.06-.834,2.621-.753,.693-1.636,1.154-2.649,1.385-1.668,.396-3.254,.198-4.758-.593-1.538-.792-2.681-2.061-3.433-3.808-.753-1.749-1.146-3.629-1.178-5.64-.032-2.308,.376-4.666,1.227-7.073-.687-1.582-1.186-2.728-1.497-3.437-.311-.709-.727-1.706-1.25-2.993-.524-1.285-.981-2.44-1.373-3.462-.753-2.045-1.407-3.923-1.962-5.639-.785-2.638-1.242-4.6-1.373-5.886-.163-2.077,.098-4.023,.785-5.837,.752-2.011,1.765-3.561,3.041-4.649,.654-.561,1.356-1.064,2.109-1.509,.752-.445,1.578-.841,2.477-1.187s1.791-.486,2.674-.42,1.668,.363,2.354,.89c.719,.527,1.251,1.22,1.594,2.077,.343,.859,.54,1.649,.588,2.375s.073,1.649,.073,2.77,.032,1.962,.099,2.523c.032,.165-.115,.297-.442,.395-.327,.099-.654,.123-.98,.074-.327-.049-.507-.173-.54-.371-.033-.263-.049-1.286-.049-3.067s-.181-3.099-.54-3.957c-.426-.956-.981-1.665-1.668-2.127-.361-.23-.655-.329-.884-.297-.229,.034-.49,.198-.784,.495-.425,.429-.785,1.088-1.079,1.978-.393,1.187-.622,1.995-.687,2.424-.262,1.582-.18,3.71,.245,6.38,.654,3.925,2.011,8.641,4.071,14.147,1.503-1.583,3.057-2.638,4.659-3.166Zm-4.316,23.545c-.523-1.22-1.283-2.943-2.281-5.169-.998-2.226-1.676-3.718-2.035-4.476-.066,.263-.115,.477-.148,.643-.392,1.714-.458,3.602-.196,5.663,.262,2.061,.915,3.8,1.962,5.219,.556,.792,1.227,1.418,2.012,1.88,1.078,.626,1.814,.841,2.206,.643,.065-.066,.114-.124,.148-.174,.032-.049,.049-.107,.049-.173,0-.067-.008-.116-.024-.149-.017-.034-.058-.148-.122-.346-.033-.099-.074-.223-.123-.371-.049-.149-.098-.29-.147-.421-.05-.132-.107-.247-.172-.346-.098-.232-.286-.618-.564-1.162-.279-.544-.466-.965-.564-1.262Z"/><path class="cls-1" d="M77.72,63.42c.099-.263,.425-.346,.981-.247,.228,.1,.343,.198,.343,.297-1.047,2.375-2.371,4.501-3.973,6.381-.916,1.088-1.832,1.945-2.747,2.572-.196,.1-.45,.28-.761,.544s-.605,.478-.883,.643c-.279,.165-.564,.313-.858,.446-1.145,.428-2.387,.552-3.727,.371-1.341-.181-2.486-.652-3.434-1.41-1.602-1.22-2.747-3.05-3.433-5.49v-.049c-.785-1.418-1.308-3.084-1.57-4.996-.359-2.473-.572-5.243-.637-8.31-.065-4.187,.065-7.748,.392-10.684-3.531,.33-6.261-.312-8.191-1.929-.229-.165-.098-.312,.392-.445,.393-.066,.655-.033,.785,.099,1.734,1.419,4.105,1.978,7.112,1.682,.196-1.714,.491-3.297,.883-4.749,.948-3.725,2.698-6.281,5.248-7.667,.849-.461,1.79-.758,2.82-.89,1.03-.131,1.97,.017,2.82,.445,.196,.132,.506,.495,.932,1.088,.36,.528,.621,1.023,.785,1.485,.588,1.748,.899,4.072,.933,6.974,2.484-.362,4.74-.379,6.768-.049,.326,.067,.424,.198,.294,.396-.131,.197-.458,.264-.981,.197-1.831-.329-3.858-.312-6.081,.049v.99c-.033,3.001-.312,6.084-.834,9.25-.753,4.55-2.207,10.14-4.366,16.768,.13,.692,.228,1.153,.294,1.385,.065,.165,.13,.379,.196,.643,.032,.065,.065,.148,.098,.247l.049,.049c.393,.923,.719,1.582,.981,1.978,.13,.165,.31,.379,.54,.643,.032,0,.049,.017,.049,.049,.032,0,.147,.066,.343,.198,.098,.033,.179,.066,.245,.099,.621-.066,1.275-.354,1.962-.866,.686-.512,1.226-.989,1.619-1.434,.392-.445,.866-1.031,1.422-1.756,1.275-1.648,2.337-3.314,3.188-4.996Zm-11.575-6.776c.065,1.913,.13,3.842,.196,5.788,1.472-4.913,2.485-9.316,3.041-13.207,.457-3.198,.671-6.084,.638-8.656-.851,.166-1.881,.413-3.09,.742-.033,.329-.066,.577-.099,.741-.556,4.683-.785,9.546-.686,14.592Zm1.863-21.912c-.36,1.682-.686,3.66-.98,5.935,1.111-.297,2.092-.544,2.942-.741-.032-1.22-.114-2.407-.244-3.562-.23-1.714-.573-2.95-1.03-3.71-.066-.066-.131-.165-.196-.297-.065,.297-.155,.726-.27,1.285-.114,.561-.189,.924-.221,1.088Z"/><path class="cls-1" d="M98.271,63.469c.163-.297,.522-.362,1.079-.197,.261,.033,.359,.115,.294,.247-.393,.791-.72,1.434-.981,1.928-.262,.495-.613,1.056-1.055,1.682-.441,.626-.891,1.17-1.348,1.632-.818,.792-1.538,1.302-2.158,1.534-.655,.23-1.341,.279-2.061,.148-.719-.132-1.357-.412-1.912-.841-1.21-.89-1.864-2.884-1.963-5.985-.98,1.88-2.06,3.314-3.237,4.303-1.112,.956-2.256,1.402-3.433,1.336-1.995-.066-3.353-.89-4.071-2.473-.621-1.285-.801-2.72-.54-4.303,.327-1.978,.834-3.396,1.52-4.254,.687-.858,1.545-1.566,2.576-2.127,1.029-.56,2.101-.857,3.212-.89,1.111-.033,2.142,.33,3.09,1.088,.425,.395,.834,.841,1.227,1.336,0-.165,.016-.329,.049-.495,.196-.824,.506-1.5,.932-2.028,.457-.527,1.406-.792,2.845-.792,1.341-.033,2.158,.215,2.453,.741,.163,.265,.27,.587,.319,.965,.05,.38,.065,.701,.05,.964-.018,.264-.066,.644-.148,1.138-.082,.495-.122,.825-.122,.99-.164,1.419-.279,2.738-.344,3.957-.065,1.616-.065,2.951,0,4.006,.065,.858,.099,1.385,.099,1.583v.148c.163-.132,.359-.313,.588-.544,.424-.429,.834-.939,1.226-1.533,.491-.725,1.096-1.813,1.815-3.265Zm-14.028,3.463c.556-.495,1.087-1.121,1.594-1.88,.506-.758,.907-1.418,1.201-1.978,.294-.56,.654-1.319,1.079-2.275-.196-.428-.409-.824-.637-1.187-.36-.593-.753-1.138-1.177-1.632-.294-.363-.588-.626-.883-.792-.099-.066-.196-.131-.294-.198-.033,.1-.082,.232-.148,.396-.065,.132-.122,.272-.172,.42-.049,.149-.098,.281-.147,.396s-.098,.255-.148,.42c-.049,.166-.09,.297-.122,.396-.588,1.682-.949,2.951-1.079,3.808-.196,1.419-.131,2.77,.196,4.057,0,.033,.016,.115,.049,.246,.032,.132,.065,.232,.098,.297,.163-.131,.36-.297,.588-.494Z"/><path class="cls-1" d="M117.743,64.41c.359,.197,.343,.395-.049,.593-1.146,.692-2.453,.948-3.925,.767-1.471-.181-2.665-.75-3.58-1.706-.589-.659-.818-1.765-.687-3.314,.196-2.407,.294-3.776,.294-4.106,.065-.923,.13-1.648,.196-2.177,.032-.23,.098-.56,.196-.989,.098-.428,.147-.742,.147-.94,.032,0,.049-.131,.049-.395-.458,.528-.753,.89-.883,1.088-1.079,1.551-1.945,3.809-2.599,6.776-.196,.99-.393,2.012-.588,3.067,0,.395-.018,.957-.049,1.682-.033,.726-.066,1.377-.099,1.954-.033,.578-.082,1.113-.147,1.608-.164,1.253-.327,2.11-.491,2.572-.361,.857-1.096,1.516-2.207,1.978-.556,.165-1.12,.165-1.692,0-.573-.166-1.071-.429-1.496-.792-.589-.462-1.097-1.336-1.521-2.621-.392-1.254-.654-3.018-.785-5.293-.098-1.583-.114-3.43-.049-5.54,.065-1.682,.442-3.577,1.128-5.688,.098-.363,.637-.709,1.619-1.039,.588-.23,1.357-.362,2.305-.395,1.994,0,3.09,.445,3.286,1.336,.196,.89,.326,1.748,.392,2.572,.457-1.121,1.014-2.078,1.668-2.87,.752-.989,1.57-1.533,2.453-1.631,.588-.066,1.169-.008,1.741,.173,.572,.182,1.006,.487,1.3,.916,.261,.395,.474,.824,.637,1.285,.163,.462,.286,.874,.369,1.237,.081,.363,.139,.858,.171,1.484,.032,.627,.041,1.064,.024,1.31-.017,.247-.041,.742-.073,1.485-.033,.741-.065,1.179-.098,1.31-.033,.957,.049,2.095,.245,3.414,.098,.527,.294,.873,.588,1.038,.098,.067,.375,.018,.834-.148,.555-.198,1.013-.198,1.373,0Z"/><path class="cls-1" d="M136.381,63.42c.099-.263,.425-.346,.981-.247,.228,.1,.343,.198,.343,.297-1.047,2.375-2.371,4.501-3.973,6.381-.916,1.088-1.832,1.945-2.747,2.572-.196,.1-.45,.28-.761,.544s-.605,.478-.883,.643c-.279,.165-.564,.313-.858,.446-1.145,.428-2.387,.552-3.727,.371-1.341-.181-2.486-.652-3.434-1.41-1.602-1.22-2.747-3.05-3.433-5.49v-.049c-.785-1.418-1.308-3.084-1.57-4.996-.359-2.473-.572-5.243-.637-8.31-.065-4.187,.065-7.748,.392-10.684-3.531,.33-6.261-.312-8.191-1.929-.229-.165-.098-.312,.392-.445,.393-.066,.655-.033,.785,.099,1.734,1.419,4.105,1.978,7.112,1.682,.196-1.714,.491-3.297,.883-4.749,.948-3.725,2.698-6.281,5.248-7.667,.849-.461,1.79-.758,2.82-.89,1.03-.131,1.97,.017,2.82,.445,.196,.132,.506,.495,.932,1.088,.36,.528,.621,1.023,.785,1.485,.588,1.748,.899,4.072,.933,6.974,2.484-.362,4.74-.379,6.768-.049,.326,.067,.424,.198,.294,.396-.131,.197-.458,.264-.981,.197-1.831-.329-3.858-.312-6.081,.049v.99c-.033,3.001-.312,6.084-.834,9.25-.753,4.55-2.207,10.14-4.366,16.768,.13,.692,.228,1.153,.294,1.385,.065,.165,.13,.379,.196,.643,.032,.065,.065,.148,.098,.247l.049,.049c.393,.923,.719,1.582,.981,1.978,.13,.165,.31,.379,.54,.643,.032,0,.049,.017,.049,.049,.032,0,.147,.066,.343,.198,.098,.033,.179,.066,.245,.099,.621-.066,1.275-.354,1.962-.866,.686-.512,1.226-.989,1.619-1.434,.392-.445,.866-1.031,1.422-1.756,1.275-1.648,2.337-3.314,3.188-4.996Zm-11.575-6.776c.065,1.913,.13,3.842,.196,5.788,1.472-4.913,2.485-9.316,3.041-13.207,.457-3.198,.671-6.084,.638-8.656-.851,.166-1.881,.413-3.09,.742-.033,.329-.066,.577-.099,.741-.556,4.683-.785,9.546-.686,14.592Zm1.863-21.912c-.36,1.682-.686,3.66-.98,5.935,1.111-.297,2.092-.544,2.942-.741-.032-1.22-.114-2.407-.244-3.562-.23-1.714-.573-2.95-1.03-3.71-.066-.066-.131-.165-.196-.297-.065,.297-.155,.726-.27,1.285-.114,.561-.189,.924-.221,1.088Z"/><path class="cls-1" d="M168.948,58.721c.981-.23,1.97-.321,2.968-.271,.997,.049,1.913,.395,2.747,1.038,.834,.644,1.283,1.492,1.349,2.547,.032,.132-.066,.24-.294,.321-.23,.083-.466,.1-.712,.05-.245-.05-.368-.14-.368-.272-.098-.858-.524-1.591-1.276-2.201-.753-.61-1.569-.898-2.452-.866-1.538,.066-3.254,1.121-5.151,3.165-.294,.33-.605,.692-.932,1.088,.261,.692,.76,1.971,1.496,3.834,.736,1.862,1.3,3.305,1.692,4.328,1.831,4.88,2.796,8.821,2.894,11.822,.031,1.187-.245,2.06-.834,2.621-.753,.693-1.636,1.154-2.649,1.385-1.668,.396-3.254,.198-4.758-.593-1.538-.792-2.681-2.061-3.433-3.808-.753-1.749-1.146-3.629-1.178-5.64-.032-2.308,.376-4.666,1.227-7.073-.687-1.582-1.186-2.728-1.497-3.437-.311-.709-.727-1.706-1.25-2.993-.524-1.285-.981-2.44-1.373-3.462-.753-2.045-1.407-3.923-1.962-5.639-.785-2.638-1.242-4.6-1.373-5.886-.163-2.077,.098-4.023,.785-5.837,.752-2.011,1.765-3.561,3.041-4.649,.654-.561,1.356-1.064,2.109-1.509,.752-.445,1.578-.841,2.477-1.187s1.791-.486,2.674-.42,1.668,.363,2.354,.89c.719,.527,1.251,1.22,1.594,2.077,.343,.859,.54,1.649,.588,2.375s.073,1.649,.073,2.77,.032,1.962,.099,2.523c.032,.165-.115,.297-.442,.395-.327,.099-.654,.123-.98,.074-.327-.049-.507-.173-.54-.371-.033-.263-.049-1.286-.049-3.067s-.181-3.099-.54-3.957c-.426-.956-.981-1.665-1.668-2.127-.361-.23-.655-.329-.884-.297-.229,.034-.49,.198-.784,.495-.425,.429-.785,1.088-1.079,1.978-.393,1.187-.622,1.995-.687,2.424-.262,1.582-.18,3.71,.245,6.38,.654,3.925,2.011,8.641,4.071,14.147,1.503-1.583,3.057-2.638,4.659-3.166Zm-4.316,23.545c-.523-1.22-1.283-2.943-2.281-5.169-.998-2.226-1.676-3.718-2.035-4.476-.066,.263-.115,.477-.148,.643-.392,1.714-.458,3.602-.196,5.663,.262,2.061,.915,3.8,1.962,5.219,.556,.792,1.227,1.418,2.012,1.88,1.078,.626,1.814,.841,2.206,.643,.065-.066,.114-.124,.148-.174,.032-.049,.049-.107,.049-.173,0-.067-.008-.116-.024-.149-.017-.034-.058-.148-.122-.346-.033-.099-.074-.223-.123-.371-.049-.149-.098-.29-.147-.421-.05-.132-.107-.247-.172-.346-.098-.232-.286-.618-.564-1.162-.279-.544-.466-.965-.564-1.262Z"/><path class="cls-1" d="M197.887,63.569c.261,.166,.179,.33-.245,.495-.361,.132-.687,.115-.981-.05-.916-.494-1.864-.823-2.845-.989,0,.627-.033,1.236-.098,1.83-.393,3.331-1.292,5.705-2.698,7.123-.883,.923-2.077,1.599-3.581,2.028-.458,.131-.883,.214-1.276,.247h-.637c-.196,.033-.36,.049-.491,.049-.392,.033-.784,.033-1.177,0,0,1.55-.082,3.099-.245,4.649-.163,1.253-.441,2.506-.834,3.76-.392,1.187-1.014,2.077-1.863,2.671-.588,.429-1.235,.775-1.937,1.039-.704,.263-1.448,.387-2.232,.371-.785-.017-1.456-.24-2.012-.667-.883-.692-1.471-1.319-1.765-1.88-.36-.692-.637-1.631-.834-2.819-.686-3.957-.441-8.376,.736-13.256,.523-2.209,1.079-4.137,1.668-5.787-.033-.329-.099-.858-.196-1.583s-.155-1.253-.172-1.583c-.017-.329-.041-.866-.073-1.607-.033-.742-.017-1.262,.049-1.559,.163-1.154,1.504-1.846,4.023-2.077,2.419-.231,3.826,.264,4.218,1.484,.229,.692,.442,2.077,.637,4.155v.297c.457-1.253,.997-2.424,1.619-3.512,.654-1.187,1.373-1.896,2.158-2.126,1.046-.329,2.084-.174,3.114,.469,1.03,.644,1.855,1.492,2.477,2.547,.785,1.385,1.242,3.051,1.373,4.996,1.471,.166,2.845,.593,4.12,1.286Zm-21.827,21.616c.032-.067,.032-.215,0-.446s-.049-.38-.049-.446c.032-.858,.032-1.748,0-2.671-.131-4.55-.392-8.755-.785-12.613-.065-.561-.147-1.336-.245-2.325-.131,.593-.262,1.187-.392,1.78-.981,4.353-1.209,8.343-.687,11.971,.196,1.318,.442,2.308,.736,2.967,.163,.429,.36,.792,.588,1.088,.131,.165,.409,.396,.834,.693Zm-.196,.346c0,.033,.016,.033,.049,0h-.049Zm12.066-27.798c.032-.593,.016-1.219-.049-1.88-.066-.329-.148-.593-.245-.792,.163-.165,.13-.148-.099,.05-.131,.099-.244,.215-.343,.346-.622,.759-1.292,2.012-2.011,3.759-.818,2.012-1.373,4.155-1.668,6.43,0,.034,.016,.247,.049,.643,.588-.692,1.258-1.335,2.011-1.928,.621-.429,1.276-.792,1.962-1.088,.196-1.517,.326-3.364,.393-5.54Zm-1.128,9.151c.196-.792,.375-1.616,.54-2.473-.327,.197-.622,.429-.883,.692-1.309,1.154-2.192,2.589-2.649,4.304,0,.032-.017,.099-.049,.197,.032,.792,.065,1.516,.098,2.177v.989l.049,.05c.032-.067,.09-.141,.172-.223,.081-.083,.139-.157,.172-.223,.196-.231,.506-.726,.932-1.484,.654-1.187,1.194-2.523,1.619-4.006Z"/><path class="cls-1" d="M205.979,63.469c.13-.297,.491-.362,1.079-.197,.196,.066,.294,.148,.294,.247-1.21,2.472-2.338,4.22-3.384,5.242-.818,.792-1.538,1.302-2.158,1.534-.655,.23-1.341,.279-2.061,.148-.719-.132-1.357-.412-1.912-.841-.458-.33-.827-.75-1.104-1.261-.278-.512-.474-1.162-.588-1.954s-.18-1.368-.196-1.731-.041-.99-.073-1.88c-.032-1.022,.032-2.292,.196-3.809,.066-.791,.131-1.401,.196-1.83,.196-.824,.506-1.5,.932-2.028,.457-.527,1.406-.792,2.845-.792,1.341-.033,2.158,.215,2.453,.741,.163,.265,.27,.587,.319,.965,.05,.38,.065,.701,.05,.964-.018,.264-.066,.644-.148,1.138-.082,.495-.122,.825-.122,.99-.164,1.419-.279,2.738-.344,3.957-.065,1.616-.065,2.951,0,4.006,.065,.858,.099,1.385,.099,1.583v.148c.163-.132,.359-.313,.588-.544,.424-.429,.834-.939,1.226-1.533,.491-.725,1.096-1.813,1.815-3.265Zm-6.916-12.069c-1.014,.034-1.684-.165-2.011-.593-.523-.593-.703-1.714-.54-3.364,.065-.626,.491-1.063,1.275-1.31,.785-.247,1.586-.372,2.404-.372,.294,0,.588,.018,.883,.05s.63,.099,1.006,.197c.375,.1,.654,.264,.834,.495,.179,.231,.221,.512,.122,.841,0,.066-.017,.149-.049,.247-.458,1.517-.98,2.572-1.57,3.165-.457,.429-1.242,.643-2.354,.643Z"/><path class="cls-1" d="M225.892,63.42c.131-.263,.474-.346,1.03-.247,.229,.1,.343,.198,.343,.297-1.047,2.375-2.387,4.501-4.022,6.381-.916,1.088-1.832,1.945-2.747,2.572-.164,.1-.41,.28-.736,.544s-.622,.478-.883,.643c-.262,.165-.556,.313-.883,.446-1.112,.428-2.338,.552-3.678,.371-1.341-.181-2.486-.652-3.434-1.41-1.635-1.22-2.796-3.05-3.482-5.49v-.049c-.392-.758-.712-1.55-.957-2.375-.244-.824-.449-1.698-.613-2.621-.359-2.473-.572-5.243-.637-8.31-.098-6.595,.36-11.937,1.373-16.026,.948-3.725,2.714-6.281,5.297-7.667,.817-.461,1.741-.758,2.771-.89,1.03-.131,1.986,.017,2.869,.445,.163,.132,.457,.495,.883,1.088,.36,.528,.621,1.023,.785,1.485,.654,1.879,.964,4.732,.933,8.557,0,3.001-.279,6.084-.834,9.25-.753,4.55-2.207,10.14-4.366,16.768,.163,.692,.278,1.153,.343,1.385,.032,.165,.098,.379,.196,.643,.032,.065,.065,.148,.098,.247v.049c.393,.923,.719,1.582,.981,1.978,.13,.165,.326,.379,.588,.643l.049,.049,.294,.198c.098,.033,.196,.066,.294,.099,.588-.066,1.226-.354,1.913-.866,.686-.512,1.234-.989,1.643-1.434,.409-.445,.891-1.031,1.447-1.756,1.276-1.648,2.322-3.314,3.139-4.996Zm-11.526-6.776c.032,1.913,.081,3.842,.147,5.788,1.472-4.913,2.501-9.316,3.091-13.207,.457-3.198,.653-6.084,.588-8.656-.033-1.451-.131-2.852-.294-4.204-.196-1.714-.524-2.95-.981-3.71-.065-.066-.131-.165-.196-.297-.098,.297-.196,.726-.294,1.285-.098,.561-.163,.924-.196,1.088-.426,1.978-.818,4.419-1.178,7.321-.588,4.683-.817,9.546-.686,14.592Z"/><path class="cls-1" d="M245.805,63.42c.131-.263,.474-.346,1.03-.247,.229,.1,.343,.198,.343,.297-1.047,2.375-2.387,4.501-4.022,6.381-.916,1.088-1.832,1.945-2.747,2.572-.164,.1-.41,.28-.736,.544s-.622,.478-.883,.643c-.262,.165-.556,.313-.883,.446-1.112,.428-2.338,.552-3.678,.371-1.341-.181-2.486-.652-3.434-1.41-1.635-1.22-2.796-3.05-3.482-5.49v-.049c-.392-.758-.712-1.55-.957-2.375-.244-.824-.449-1.698-.613-2.621-.359-2.473-.572-5.243-.637-8.31-.098-6.595,.36-11.937,1.373-16.026,.948-3.725,2.714-6.281,5.297-7.667,.817-.461,1.741-.758,2.771-.89,1.03-.131,1.986,.017,2.869,.445,.163,.132,.457,.495,.883,1.088,.36,.528,.621,1.023,.785,1.485,.654,1.879,.964,4.732,.933,8.557,0,3.001-.279,6.084-.834,9.25-.753,4.55-2.207,10.14-4.366,16.768,.163,.692,.278,1.153,.343,1.385,.032,.165,.098,.379,.196,.643,.032,.065,.065,.148,.098,.247v.049c.393,.923,.719,1.582,.981,1.978,.13,.165,.326,.379,.588,.643l.049,.049,.294,.198c.098,.033,.196,.066,.294,.099,.588-.066,1.226-.354,1.913-.866,.686-.512,1.234-.989,1.643-1.434,.409-.445,.891-1.031,1.447-1.756,1.276-1.648,2.322-3.314,3.139-4.996Zm-11.526-6.776c.032,1.913,.081,3.842,.147,5.788,1.472-4.913,2.501-9.316,3.091-13.207,.457-3.198,.653-6.084,.588-8.656-.033-1.451-.131-2.852-.294-4.204-.196-1.714-.524-2.95-.981-3.71-.065-.066-.131-.165-.196-.297-.098,.297-.196,.726-.294,1.285-.098,.561-.163,.924-.196,1.088-.426,1.978-.818,4.419-1.178,7.321-.588,4.683-.817,9.546-.686,14.592Z"/><path class="cls-1" d="M261.009,62.827c.131-.263,.474-.346,1.03-.247,.261,.1,.392,.215,.392,.346-.915,2.342-1.888,4.37-2.918,6.084-1.03,1.714-2.329,3.198-3.899,4.452-.033,.033-.148,.14-.343,.321-.196,.181-.361,.305-.491,.371-.327,.165-.753,.297-1.276,.396-1.765,.329-3.204,.099-4.316-.693-.622-.429-1.276-1.253-1.962-2.472-.294-.462-.54-.948-.736-1.46-.196-.512-.36-1.03-.49-1.558-.491-1.946-.768-4.039-.834-6.282-.065-2.737,.311-4.962,1.128-6.677,.49-1.022,1.177-1.946,2.06-2.77s1.847-1.402,2.893-1.731c.588-.198,1.21-.329,1.864-.396,.654-.065,1.325,0,2.011,.198,.687,.198,1.177,.561,1.472,1.088,.163,.297,.261,.643,.294,1.039,.032,.395,.032,.75,0,1.063-.033,.314-.123,.701-.27,1.162-.148,.462-.279,.809-.393,1.039-.114,.232-.27,.561-.465,.99-.491,1.088-1.227,2.341-2.207,3.759,.065,2.936,.245,5.573,.54,7.914,.163,1.219,.277,2.011,.343,2.375,.032,.131,.073,.297,.122,.494,.049,.198,.099,.387,.148,.569s.089,.338,.122,.47c.556-.395,1.096-.907,1.619-1.533,1.537-1.715,3.057-4.484,4.561-8.31Zm-7.111-9.052c-.23,.956-.343,2.407-.343,4.352,.13-.197,.245-.411,.343-.643,1.34-2.671,1.619-4.452,.834-5.342l-.049-.049c-.066,.066-.099,.132-.099,.198-.326,.494-.556,.989-.686,1.484Zm.98,19.588l.05,.049c0-.034-.018-.049-.05-.049Z"/><path class="cls-1" d="M280.923,63.42c.099-.263,.425-.346,.981-.247,.228,.1,.343,.198,.343,.297-1.047,2.375-2.371,4.501-3.973,6.381-.916,1.088-1.832,1.945-2.747,2.572-.196,.1-.45,.28-.761,.544s-.605,.478-.883,.643c-.279,.165-.564,.313-.858,.446-1.145,.428-2.387,.552-3.727,.371-1.341-.181-2.486-.652-3.434-1.41-1.602-1.22-2.747-3.05-3.433-5.49v-.049c-.785-1.418-1.308-3.084-1.57-4.996-.359-2.473-.572-5.243-.637-8.31-.065-4.187,.065-7.748,.392-10.684-3.531,.33-6.261-.312-8.191-1.929-.229-.165-.098-.312,.392-.445,.393-.066,.655-.033,.785,.099,1.734,1.419,4.105,1.978,7.112,1.682,.196-1.714,.491-3.297,.883-4.749,.948-3.725,2.698-6.281,5.248-7.667,.849-.461,1.79-.758,2.82-.89,1.03-.131,1.97,.017,2.82,.445,.196,.132,.506,.495,.932,1.088,.36,.528,.621,1.023,.785,1.485,.588,1.748,.899,4.072,.933,6.974,2.484-.362,4.74-.379,6.768-.049,.326,.067,.424,.198,.294,.396-.131,.197-.458,.264-.981,.197-1.831-.329-3.858-.312-6.081,.049v.99c-.033,3.001-.312,6.084-.834,9.25-.753,4.55-2.207,10.14-4.366,16.768,.13,.692,.228,1.153,.294,1.385,.065,.165,.13,.379,.196,.643,.032,.065,.065,.148,.098,.247l.049,.049c.393,.923,.719,1.582,.981,1.978,.13,.165,.31,.379,.54,.643,.032,0,.049,.017,.049,.049,.032,0,.147,.066,.343,.198,.098,.033,.179,.066,.245,.099,.621-.066,1.275-.354,1.962-.866,.686-.512,1.226-.989,1.619-1.434,.392-.445,.866-1.031,1.422-1.756,1.275-1.648,2.337-3.314,3.188-4.996Zm-11.575-6.776c.065,1.913,.13,3.842,.196,5.788,1.472-4.913,2.485-9.316,3.041-13.207,.457-3.198,.671-6.084,.638-8.656-.851,.166-1.881,.413-3.09,.742-.033,.329-.066,.577-.099,.741-.556,4.683-.785,9.546-.686,14.592Zm1.863-21.912c-.36,1.682-.686,3.66-.98,5.935,1.111-.297,2.092-.544,2.942-.741-.032-1.22-.114-2.407-.244-3.562-.23-1.714-.573-2.95-1.03-3.71-.066-.066-.131-.165-.196-.297-.065,.297-.155,.726-.27,1.285-.114,.561-.189,.924-.221,1.088Z"/></g></svg>