<?xml version="1.0" encoding="UTF-8"?><svg id="Layer_1" xmlns="http://www.w3.org/2000/svg" width="51" height="44" viewBox="0 0 51 44"><defs><style>.cls-1{fill:#e6e6e6;}.cls-2{fill:#fbb03b;}</style></defs><path class="cls-2" d="M22.16,26.017c-3.145-2.486-3.42-6.245-3.472-6.943-.197-2.679,.754-4.778,1.736-6.943,1.797-3.964,3.365-4.458,3.472-6.943,.127-2.958-1.975-5.053-1.736-5.208,.277-.179,2.9,2.777,5.208,6.943,1.284,2.318,2.753,4.972,3.472,8.679,.295,1.522,1.969,10.16-1.736,12.151-2.256,1.213-5.489-.586-6.943-1.736Z"/><ellipse class="cls-1" cx="25.5" cy="38.259" rx="25.17" ry="5.77"/><path d="M25.427,39.168c.049-.015-.045-.617-.096-1.878-.037-.904-.056-2.246,.096-4.387,.278-3.911,.685-4.294,.877-7.518,.245-4.107-.253-6.212-.877-7.518-.098-.204-.665-1.39-.877-1.253-.18,.116-.02,1.126,0,1.253,.2,1.265,.611,1.669,.877,2.506,.281,.885,.085,1.262,0,3.759-.081,2.37,.087,2.279,0,3.759-.157,2.674-.7,2.875-.877,5.012-.278,3.346,.765,6.299,.877,6.265Z"/></svg>