<?xml version="1.0" encoding="UTF-8"?><svg id="Layer_1" xmlns="http://www.w3.org/2000/svg" width="304" height="164" viewBox="0 0 304 164"><defs><style>.cls-1{fill:#006837;}.cls-2{fill:#009245;}</style></defs><path class="cls-1" d="M143.602,140.713c1.216-.759-6.074-15.963-14.766-29.614,0,0-13.125-20.615-35.314-42.963-2.456-2.474-5.023-4.951-5.023-4.951s-4.792-4.624-9.673-8.969c-6.517-5.802-31.4-26.818-33.254-24.888-.971,1.011,7.911,8.502,11.067,10.723,14.95,10.523,12.58,9.866,26.874,22.759,11.977,10.804,22.723,24.023,25.56,27.5,9.027,11.063,8.882,11.266,21.348,28.885,3.461,4.892,12.098,22.193,13.18,21.518Z"/><path class="cls-2" d="M137.412,127.802c-.635-.198-.158-7.918,3.689-14.758,4.476-7.957,12.206-12.401,12.298-12.298,.018,.021-.808,.834-2.46,2.46-2.816,2.772-3.05,2.859-3.689,3.689-1.47,1.907-2.127,2.302-3.689,4.919-1.82,3.048-1.456,2.661-2.46,4.919-1.007,2.266-.253,1.691-1.23,4.919-.737,2.435-2.066,6.272-2.46,6.149Z"/><path class="cls-2" d="M133.806,121.7c-.635-.198-.158-7.918,3.689-14.758,4.476-7.957,12.206-12.401,12.298-12.298,.018,.021-.808,.834-2.46,2.46-2.816,2.772-3.05,2.859-3.689,3.689-1.47,1.907-2.127,2.302-3.689,4.919-1.82,3.048-1.456,2.661-2.46,4.919-1.007,2.266-.253,1.691-1.23,4.919-.737,2.435-2.066,6.272-2.46,6.149Z"/><path class="cls-2" d="M128.887,114.322c-.635-.198-.158-7.918,3.689-14.758,4.476-7.957,12.206-12.401,12.298-12.298,.018,.021-.808,.834-2.46,2.46-2.816,2.772-3.05,2.859-3.689,3.689-1.47,1.907-2.127,2.302-3.689,4.919-1.82,3.048-1.456,2.661-2.46,4.919-1.007,2.266-.253,1.691-1.23,4.919-.737,2.435-2.066,6.272-2.46,6.149Z"/><path class="cls-2" d="M123.968,108.173c-.635-.198-.158-7.918,3.689-14.758,4.476-7.957,12.206-12.401,12.298-12.298,.018,.021-.808,.834-2.46,2.46-2.816,2.772-3.05,2.859-3.689,3.689-1.47,1.907-2.127,2.302-3.689,4.919-1.82,3.048-1.456,2.661-2.46,4.919-1.007,2.266-.253,1.691-1.23,4.919-.737,2.435-2.066,6.272-2.46,6.149Z"/><path class="cls-2" d="M120.401,100.227c-.635-.198-.158-7.918,3.689-14.758,4.476-7.957,12.206-12.401,12.298-12.298,.018,.021-.808,.834-2.46,2.46-2.816,2.772-3.05,2.859-3.689,3.689-1.47,1.907-2.127,2.302-3.689,4.919-1.82,3.048-1.456,2.661-2.46,4.919-1.007,2.266-.253,1.691-1.23,4.919-.737,2.435-2.066,6.272-2.46,6.149Z"/><path class="cls-2" d="M115.481,94.078c-.635-.198-.158-7.918,3.689-14.758,4.476-7.957,12.206-12.401,12.298-12.298,.018,.021-.808,.834-2.46,2.46-2.816,2.772-3.05,2.859-3.689,3.689-1.47,1.907-2.127,2.302-3.689,4.919-1.82,3.048-1.456,2.661-2.46,4.919-1.007,2.266-.253,1.691-1.23,4.919-.737,2.435-2.066,6.272-2.46,6.149Z"/><path class="cls-2" d="M111.792,90.389c-.635-.198-.158-7.918,3.689-14.758,4.476-7.957,12.206-12.401,12.298-12.298,.018,.021-.808,.834-2.46,2.46-2.816,2.772-3.05,2.859-3.689,3.689-1.47,1.907-2.127,2.302-3.689,4.919-1.82,3.048-1.456,2.661-2.46,4.919-1.007,2.266-.253,1.691-1.23,4.919-.737,2.435-2.066,6.272-2.46,6.149Z"/><path class="cls-2" d="M141.307,137.121c-.635-.198-.158-7.918,3.689-14.758,4.476-7.957,12.206-12.401,12.298-12.298,.018,.021-.808,.834-2.46,2.46-2.816,2.772-3.05,2.859-3.689,3.689-1.47,1.907-2.127,2.302-3.689,4.919-1.82,3.048-1.456,2.661-2.46,4.919-1.007,2.266-.253,1.691-1.23,4.919-.737,2.435-2.066,6.272-2.46,6.149Z"/><path class="cls-2" d="M109.332,86.699c-.635-.198-.158-7.918,3.689-14.758,4.476-7.957,12.206-12.401,12.298-12.298,.018,.021-.808,.834-2.46,2.46-2.816,2.772-3.05,2.859-3.689,3.689-1.47,1.907-2.127,2.302-3.689,4.919-1.82,3.048-1.456,2.661-2.46,4.919-1.007,2.266-.253,1.691-1.23,4.919-.737,2.435-2.066,6.272-2.46,6.149Z"/><path class="cls-2" d="M105.643,81.78c-.635-.198-.158-7.918,3.689-14.758,4.476-7.957,12.206-12.401,12.298-12.298,.018,.021-.808,.834-2.46,2.46-2.816,2.772-3.05,2.859-3.689,3.689-1.47,1.907-2.127,2.302-3.689,4.919-1.82,3.048-1.456,2.661-2.46,4.919-1.007,2.266-.253,1.691-1.23,4.919-.737,2.435-2.066,6.272-2.46,6.149Z"/><path class="cls-2" d="M100.724,79.321c-.635-.198-.158-7.918,3.689-14.758,4.476-7.957,12.206-12.401,12.298-12.298,.018,.021-.808,.834-2.46,2.46-2.816,2.772-3.05,2.859-3.689,3.689-1.47,1.907-2.127,2.302-3.689,4.919-1.82,3.048-1.456,2.661-2.46,4.919-1.007,2.266-.253,1.691-1.23,4.919-.737,2.435-2.066,6.272-2.46,6.149Z"/><path class="cls-2" d="M97.034,73.172c-.635-.198-.158-7.918,3.689-14.758,4.476-7.957,12.206-12.401,12.298-12.298,.018,.021-.808,.834-2.46,2.46-2.816,2.772-3.05,2.859-3.689,3.689-1.47,1.907-2.127,2.302-3.689,4.919-1.82,3.048-1.456,2.661-2.46,4.919-1.007,2.266-.253,1.691-1.23,4.919-.737,2.435-2.066,6.272-2.46,6.149Z"/><path class="cls-2" d="M92.115,68.252c-.635-.198-.158-7.918,3.689-14.758,4.476-7.957,12.206-12.401,12.298-12.298,.018,.021-.808,.834-2.46,2.46-2.816,2.772-3.05,2.859-3.689,3.689-1.47,1.907-2.127,2.302-3.689,4.919-1.82,3.048-1.456,2.661-2.46,4.919-1.007,2.266-.253,1.691-1.23,4.919-.737,2.435-2.066,6.272-2.46,6.149Z"/><path class="cls-2" d="M87.196,63.333c-.635-.198-.158-7.918,3.689-14.758,4.476-7.957,12.206-12.401,12.298-12.298,.018,.021-.808,.834-2.46,2.46-2.816,2.772-3.05,2.859-3.689,3.689-1.47,1.907-2.127,2.302-3.689,4.919-1.82,3.048-1.456,2.661-2.46,4.919-1.007,2.266-.253,1.691-1.23,4.919-.737,2.435-2.066,6.272-2.46,6.149Z"/><path class="cls-2" d="M83.506,59.644c-.635-.198-.158-7.918,3.689-14.758,4.476-7.957,12.206-12.401,12.298-12.298,.018,.021-.808,.834-2.46,2.46-2.816,2.772-3.05,2.859-3.689,3.689-1.47,1.907-2.127,2.302-3.689,4.919-1.82,3.048-1.456,2.661-2.46,4.919-1.007,2.266-.253,1.691-1.23,4.919-.737,2.435-2.066,6.272-2.46,6.149Z"/><path class="cls-2" d="M78.587,55.954c-.635-.198-.158-7.918,3.689-14.758,4.476-7.957,12.206-12.401,12.298-12.298,.018,.021-.808,.834-2.46,2.46-2.816,2.772-3.05,2.859-3.689,3.689-1.47,1.907-2.127,2.302-3.689,4.919-1.82,3.048-1.456,2.661-2.46,4.919-1.007,2.266-.253,1.691-1.23,4.919-.737,2.435-2.066,6.272-2.46,6.149Z"/><path class="cls-2" d="M74.898,49.805c-.635-.198-.158-7.918,3.689-14.758,4.476-7.957,12.206-12.401,12.298-12.298,.018,.021-.808,.834-2.46,2.46-2.816,2.772-3.05,2.859-3.689,3.689-1.47,1.907-2.127,2.302-3.689,4.919-1.82,3.048-1.456,2.661-2.46,4.919-1.007,2.266-.253,1.691-1.23,4.919-.737,2.435-2.066,6.272-2.46,6.149Z"/><path class="cls-2" d="M69.979,46.116c-.635-.198-.158-7.918,3.689-14.758,4.476-7.957,12.206-12.401,12.298-12.298,.018,.021-.808,.834-2.46,2.46-2.816,2.772-3.05,2.859-3.689,3.689-1.47,1.907-2.127,2.302-3.689,4.919-1.82,3.048-1.456,2.661-2.46,4.919-1.007,2.266-.253,1.691-1.23,4.919-.737,2.435-2.066,6.272-2.46,6.149Z"/><path class="cls-2" d="M62.6,42.427c-.635-.198-.158-7.918,3.689-14.758,4.476-7.957,12.206-12.401,12.298-12.298,.018,.021-.808,.834-2.46,2.46-2.816,2.772-3.05,2.859-3.689,3.689-1.47,1.907-2.127,2.302-3.689,4.919-1.82,3.048-1.456,2.661-2.46,4.919-1.007,2.266-.253,1.691-1.23,4.919-.737,2.435-2.066,6.272-2.46,6.149Z"/><path class="cls-2" d="M58.91,37.507c-.635-.198-.158-7.918,3.689-14.758,4.476-7.957,12.206-12.401,12.298-12.298,.018,.021-.808,.834-2.46,2.46-2.816,2.772-3.05,2.859-3.689,3.689-1.47,1.907-2.127,2.302-3.689,4.919-1.82,3.048-1.456,2.661-2.46,4.919-1.007,2.266-.253,1.691-1.23,4.919-.737,2.435-2.066,6.272-2.46,6.149Z"/><path class="cls-2" d="M53.991,35.048c-.635-.198-.158-7.918,3.689-14.758,4.476-7.957,12.206-12.401,12.298-12.298,.018,.021-.808,.834-2.46,2.46-2.816,2.772-3.05,2.859-3.689,3.689-1.47,1.907-2.127,2.302-3.689,4.919-1.82,3.048-1.456,2.661-2.46,4.919-1.007,2.266-.253,1.691-1.23,4.919-.737,2.435-2.066,6.272-2.46,6.149Z"/><path class="cls-2" d="M48.834,32.427c-.658-.096-1.399-7.794,1.327-15.154,3.171-8.561,10.108-14.163,10.215-14.076,.021,.017-.667,.95-2.043,2.815-2.346,3.18-2.563,3.303-3.064,4.223-1.152,2.114-1.739,2.607-2.871,5.437-1.319,3.296-1.02,2.857-1.657,5.244-.639,2.396,.015,1.71-.442,5.051-.345,2.521-1.056,6.518-1.464,6.459Z"/><path class="cls-2" d="M48.163,32.184c-.649,.095-3.485-6.941-2.946-14.631,.627-8.946,5.638-16.166,5.763-16.115,.025,.01-.368,1.081-1.153,3.223-1.338,3.651-1.51,3.828-1.729,4.834-.504,2.313-.923,2.942-1.209,5.923-.334,3.471-.173,2.974-.114,5.4,.06,2.434,.488,1.604,.982,4.877,.372,2.469,.808,6.43,.406,6.488Z"/><path class="cls-2" d="M51.008,31.995c-.452,.488-7.214-3.267-11.73-9.685-5.254-7.466-5.935-16.357-5.803-16.395,.026-.008,.405,1.088,1.161,3.279,1.289,3.735,1.267,3.984,1.741,4.919,1.088,2.148,1.162,2.911,2.851,5.448,1.967,2.955,1.775,2.46,3.38,4.338,1.611,1.885,1.417,.957,3.91,3.228,1.881,1.713,4.77,4.566,4.49,4.868Z"/><path class="cls-2" d="M142.399,137.369c-.039-.474-7.408-2.797-14.733-2.659-8.521,.161-14.494,3.606-14.419,3.699,.015,.019,.971-.234,2.884-.74,3.26-.862,3.397-.982,4.326-1.11,2.135-.293,2.658-.58,5.482-.691,3.288-.129,2.84-.028,5.196,.098,2.364,.126,1.649,.413,4.911,.886,2.461,.357,6.377,.81,6.353,.516Z"/><path class="cls-2" d="M140.083,131.74c-.039-.474-7.408-2.797-14.733-2.659-8.521,.161-14.494,3.606-14.419,3.699,.015,.019,.971-.234,2.884-.74,3.26-.862,3.397-.982,4.326-1.11,2.135-.293,2.658-.58,5.482-.691,3.288-.129,2.84-.028,5.196,.098,2.364,.126,1.649,.413,4.911,.886,2.461,.357,6.377,.81,6.353,.516Z"/><path class="cls-2" d="M136.394,125.591c-.039-.474-7.408-2.797-14.733-2.659-8.521,.161-14.494,3.606-14.419,3.699,.015,.019,.971-.234,2.884-.74,3.26-.862,3.397-.982,4.326-1.11,2.135-.293,2.658-.58,5.482-.691,3.288-.129,2.84-.028,5.196,.098,2.364,.126,1.649,.413,4.911,.886,2.461,.357,6.377,.81,6.353,.516Z"/><path class="cls-2" d="M131.475,119.442c-.039-.474-7.408-2.797-14.733-2.659-8.521,.161-14.494,3.606-14.419,3.699,.015,.019,.971-.234,2.884-.74,3.26-.862,3.397-.982,4.326-1.11,2.135-.293,2.658-.58,5.482-.691,3.288-.129,2.84-.028,5.196,.098,2.364,.126,1.649,.413,4.911,.886,2.461,.357,6.377,.81,6.353,.516Z"/><path class="cls-2" d="M130.245,114.522c-.039-.474-7.408-2.797-14.733-2.659-8.521,.161-14.494,3.606-14.419,3.699,.015,.019,.971-.234,2.884-.74,3.26-.862,3.397-.982,4.326-1.11,2.135-.293,2.658-.58,5.482-.691,3.288-.129,2.84-.028,5.196,.098,2.364,.126,1.649,.413,4.911,.886,2.461,.357,6.377,.81,6.353,.516Z"/><path class="cls-2" d="M124.096,108.373c-.039-.474-7.408-2.797-14.733-2.659-8.521,.161-14.494,3.606-14.419,3.699,.015,.019,.971-.234,2.884-.74,3.26-.862,3.397-.982,4.326-1.11,2.135-.293,2.658-.58,5.482-.691,3.288-.129,2.84-.028,5.196,.098,2.364,.126,1.649,.413,4.911,.886,2.461,.357,6.377,.81,6.353,.516Z"/><path class="cls-2" d="M121.636,102.224c-.039-.474-7.408-2.797-14.733-2.659-8.521,.161-14.494,3.606-14.419,3.699,.015,.019,.971-.234,2.884-.74,3.26-.862,3.397-.982,4.326-1.11,2.135-.293,2.658-.58,5.482-.691,3.288-.129,2.84-.028,5.196,.098,2.364,.126,1.649,.413,4.911,.886,2.461,.357,6.377,.81,6.353,.516Z"/><path class="cls-2" d="M117.947,97.305c-.039-.474-7.408-2.797-14.733-2.659-8.521,.161-14.494,3.606-14.419,3.699,.015,.019,.971-.234,2.884-.74,3.26-.862,3.397-.982,4.326-1.11,2.135-.293,2.658-.58,5.482-.691,3.288-.129,2.84-.028,5.196,.098,2.364,.126,1.649,.413,4.911,.886,2.461,.357,6.377,.81,6.353,.516Z"/><path class="cls-2" d="M112.882,93.58c-.039-.474-7.408-2.797-14.733-2.659-8.521,.161-14.494,3.606-14.419,3.699,.015,.019,.971-.234,2.884-.74,3.26-.862,3.397-.982,4.326-1.11,2.135-.293,2.658-.58,5.482-.691,3.288-.129,2.84-.028,5.196,.098,2.364,.126,1.649,.413,4.911,.886,2.461,.357,6.377,.81,6.353,.516Z"/><path class="cls-2" d="M109.193,89.89c-.039-.474-7.408-2.797-14.733-2.659-8.521,.161-14.494,3.606-14.419,3.699,.015,.019,.971-.234,2.884-.74,3.26-.862,3.397-.982,4.326-1.11,2.135-.293,2.658-.58,5.482-.691,3.288-.129,2.84-.028,5.196,.098,2.364,.126,1.649,.413,4.911,.886,2.461,.357,6.377,.81,6.353,.516Z"/><path class="cls-2" d="M105.503,83.741c-.039-.474-7.408-2.797-14.733-2.659-8.521,.161-14.494,3.606-14.419,3.699,.015,.019,.971-.234,2.884-.74,3.26-.862,3.397-.982,4.326-1.11,2.135-.293,2.658-.58,5.482-.691,3.288-.129,2.84-.028,5.196,.098,2.364,.126,1.649,.413,4.911,.886,2.461,.357,6.377,.81,6.353,.516Z"/><path class="cls-2" d="M64.92,44.387c-.039-.474-7.408-2.797-14.733-2.659-8.521,.161-14.494,3.606-14.419,3.699,.015,.019,.971-.234,2.884-.74,3.26-.862,3.397-.982,4.326-1.11,2.135-.293,2.658-.58,5.482-.691,3.288-.129,2.84-.028,5.196,.098,2.364,.126,1.649,.413,4.911,.886,2.461,.357,6.377,.81,6.353,.516Z"/><path class="cls-2" d="M94.435,71.443c-.039-.474-7.408-2.797-14.733-2.659-8.521,.161-14.494,3.606-14.419,3.699,.015,.019,.971-.234,2.884-.74,3.26-.862,3.397-.982,4.326-1.11,2.135-.293,2.658-.58,5.482-.691,3.288-.129,2.84-.028,5.196,.098,2.364,.126,1.649,.413,4.911,.886,2.461,.357,6.377,.81,6.353,.516Z"/><path class="cls-2" d="M88.286,66.524c-.039-.474-7.408-2.797-14.733-2.659-8.521,.161-14.494,3.606-14.419,3.699,.015,.019,.971-.234,2.884-.74,3.26-.862,3.397-.982,4.326-1.11,2.135-.293,2.658-.58,5.482-.691,3.288-.129,2.84-.028,5.196,.098,2.364,.126,1.649,.413,4.911,.886,2.461,.357,6.377,.81,6.353,.516Z"/><path class="cls-2" d="M84.596,60.375c-.039-.474-7.408-2.797-14.733-2.659-8.521,.161-14.494,3.606-14.419,3.699,.015,.019,.971-.234,2.884-.74,3.26-.862,3.397-.982,4.326-1.11,2.135-.293,2.658-.58,5.482-.691,3.288-.129,2.84-.028,5.196,.098,2.364,.126,1.649,.413,4.911,.886,2.461,.357,6.377,.81,6.353,.516Z"/><path class="cls-2" d="M76.937,54.252c-.118-.461-7.772-1.516-14.97-.151-8.373,1.587-13.685,5.985-13.595,6.065,.018,.016,.918-.394,2.719-1.213,3.069-1.397,3.184-1.538,4.078-1.819,2.055-.647,2.524-1.018,5.289-1.6,3.22-.679,2.795-.503,5.139-.775,2.352-.273,1.694,.131,4.99,.05,2.486-.061,6.422-.27,6.349-.556Z"/><path class="cls-2" d="M73.528,49.307c-.039-.474-7.408-2.797-14.733-2.659-8.521,.161-14.494,3.606-14.419,3.699,.015,.019,.971-.234,2.884-.74,3.26-.862,3.397-.982,4.326-1.11,2.135-.293,2.658-.58,5.482-.691,3.288-.129,2.84-.028,5.196,.098,2.364,.126,1.649,.413,4.911,.886,2.461,.357,6.377,.81,6.353,.516Z"/><path class="cls-2" d="M98.124,78.822c-.039-.474-7.408-2.797-14.733-2.659-8.521,.161-14.494,3.606-14.419,3.699,.015,.019,.971-.234,2.884-.74,3.26-.862,3.397-.982,4.326-1.11,2.135-.293,2.658-.58,5.482-.691,3.288-.129,2.84-.028,5.196,.098,2.364,.126,1.649,.413,4.911,.886,2.461,.357,6.377,.81,6.353,.516Z"/><path class="cls-2" d="M58.771,39.468c-.039-.474-7.408-2.797-14.733-2.659-8.521,.161-14.494,3.606-14.419,3.699,.015,.019,.971-.234,2.884-.74,3.26-.862,3.397-.982,4.326-1.11,2.135-.293,2.658-.58,5.482-.691,3.288-.129,2.84-.028,5.196,.098,2.364,.126,1.649,.413,4.911,.886,2.461,.357,6.377,.81,6.353,.516Z"/><path class="cls-2" d="M52.622,34.549c-.039-.474-7.408-2.797-14.733-2.659-8.521,.161-14.494,3.606-14.419,3.699,.015,.019,.971-.234,2.884-.74,3.26-.862,3.397-.982,4.326-1.11,2.135-.293,2.658-.58,5.482-.691,3.288-.129,2.84-.028,5.196,.098,2.364,.126,1.649,.413,4.911,.886,2.461,.357,6.377,.81,6.353,.516Z"/><path class="cls-2" d="M50.047,31.957c.038-.474-6.866-3.943-14.12-4.975-8.437-1.2-14.884,1.247-14.825,1.351,.012,.021,.996-.076,2.965-.27,3.356-.331,3.51-.428,4.447-.405,2.154,.051,2.717-.149,5.522,.192,3.267,.397,2.808,.426,5.114,.925,2.314,.501,1.561,.671,4.707,1.658,2.372,.745,6.166,1.817,6.189,1.523Z"/><path class="cls-1" d="M158.751,151.936c.78-1.202-12.267-11.884-25.925-20.565,0,0-20.625-13.11-50.194-23.948-3.273-1.2-6.648-2.355-6.648-2.355s-6.3-2.157-12.562-4.024c-8.362-2.493-39.806-10.983-40.668-8.449-.451,1.327,10.769,4.348,14.568,5.022,18.001,3.195,15.576,3.605,33.987,9.225,15.427,4.709,30.763,12.128,34.806,14.075,12.865,6.195,12.82,6.44,31.578,17.115,5.208,2.964,20.363,14.974,21.057,13.904Z"/><path class="cls-2" d="M147.673,142.866c-.659,.09-3.499-7.104-2.913-14.93,.682-9.103,5.8-16.405,5.927-16.351,.025,.011-.378,1.097-1.185,3.27-1.376,3.704-1.55,3.882-1.778,4.905-.523,2.351-.951,2.986-1.257,6.019-.356,3.532-.191,3.027-.143,5.498,.048,2.479,.487,1.639,.971,4.977,.365,2.518,.786,6.556,.378,6.612Z"/><path class="cls-2" d="M141.821,138.867c-.659,.09-3.499-7.104-2.913-14.93,.682-9.103,5.8-16.405,5.927-16.351,.025,.011-.378,1.097-1.185,3.27-1.376,3.704-1.55,3.882-1.778,4.905-.523,2.351-.951,2.986-1.257,6.019-.356,3.532-.191,3.027-.143,5.498,.048,2.479,.487,1.639,.971,4.977,.365,2.518,.786,6.556,.378,6.612Z"/><path class="cls-2" d="M134.238,134.269c-.659,.09-3.499-7.104-2.913-14.93,.682-9.103,5.8-16.405,5.927-16.351,.025,.011-.378,1.097-1.185,3.27-1.376,3.704-1.55,3.882-1.778,4.905-.523,2.351-.951,2.986-1.257,6.019-.356,3.532-.191,3.027-.143,5.498,.048,2.479,.487,1.639,.971,4.977,.365,2.518,.786,6.556,.378,6.612Z"/><path class="cls-2" d="M127.176,130.784c-.659,.09-3.499-7.104-2.913-14.93,.682-9.103,5.8-16.405,5.927-16.351,.025,.011-.378,1.097-1.185,3.27-1.376,3.704-1.55,3.882-1.778,4.905-.523,2.351-.951,2.986-1.257,6.019-.356,3.532-.191,3.027-.143,5.498,.048,2.479,.487,1.639,.971,4.977,.365,2.518,.786,6.556,.378,6.612Z"/><path class="cls-2" d="M120.578,125.099c-.659,.09-3.499-7.104-2.913-14.93,.682-9.103,5.8-16.405,5.927-16.351,.025,.011-.378,1.097-1.185,3.27-1.376,3.704-1.55,3.882-1.778,4.905-.523,2.351-.951,2.986-1.257,6.019-.356,3.532-.191,3.027-.143,5.498,.048,2.479,.487,1.639,.971,4.977,.365,2.518,.786,6.556,.378,6.612Z"/><path class="cls-2" d="M113.516,121.615c-.659,.09-3.499-7.104-2.913-14.93,.682-9.103,5.8-16.405,5.927-16.351,.025,.011-.378,1.097-1.185,3.27-1.376,3.704-1.55,3.882-1.778,4.905-.523,2.351-.951,2.986-1.257,6.019-.356,3.532-.191,3.027-.143,5.498,.048,2.479,.487,1.639,.971,4.977,.365,2.518,.786,6.556,.378,6.612Z"/><path class="cls-2" d="M108.611,119.836c-.659,.09-3.499-7.104-2.913-14.93,.682-9.103,5.8-16.405,5.927-16.351,.025,.011-.378,1.097-1.185,3.27-1.376,3.704-1.55,3.882-1.778,4.905-.523,2.351-.951,2.986-1.257,6.019-.356,3.532-.191,3.027-.143,5.498,.048,2.479,.487,1.639,.971,4.977,.365,2.518,.786,6.556,.378,6.612Z"/><path class="cls-2" d="M155.15,149.656c-.659,.09-3.499-7.104-2.913-14.93,.682-9.103,5.8-16.405,5.927-16.351,.025,.011-.378,1.097-1.185,3.27-1.376,3.704-1.55,3.882-1.778,4.905-.523,2.351-.951,2.986-1.257,6.019-.356,3.532-.191,3.027-.143,5.498,.048,2.479,.487,1.639,.971,4.977,.365,2.518,.786,6.556,.378,6.612Z"/><path class="cls-2" d="M104.82,117.537c-.659,.09-3.499-7.104-2.913-14.93,.682-9.103,5.8-16.405,5.927-16.351,.025,.011-.378,1.097-1.185,3.27-1.376,3.704-1.55,3.882-1.778,4.905-.523,2.351-.951,2.986-1.257,6.019-.356,3.532-.191,3.027-.143,5.498,.048,2.479,.487,1.639,.971,4.977,.365,2.518,.786,6.556,.378,6.612Z"/><path class="cls-2" d="M99.393,114.645c-.659,.09-3.499-7.104-2.913-14.93,.682-9.103,5.8-16.405,5.927-16.351,.025,.011-.378,1.097-1.185,3.27-1.376,3.704-1.55,3.882-1.778,4.905-.523,2.351-.951,2.986-1.257,6.019-.356,3.532-.191,3.027-.143,5.498,.048,2.479,.487,1.639,.971,4.977,.365,2.518,.786,6.556,.378,6.612Z"/><path class="cls-2" d="M93.895,114.502c-.659,.09-3.499-7.104-2.913-14.93,.682-9.103,5.8-16.405,5.927-16.351,.025,.011-.378,1.097-1.185,3.27-1.376,3.704-1.55,3.882-1.778,4.905-.523,2.351-.951,2.986-1.257,6.019-.356,3.532-.191,3.027-.143,5.498,.048,2.479,.487,1.639,.971,4.977,.365,2.518,.786,6.556,.378,6.612Z"/><path class="cls-2" d="M87.947,110.496c-.659,.09-3.499-7.104-2.913-14.93,.682-9.103,5.8-16.405,5.927-16.351,.025,.011-.378,1.097-1.185,3.27-1.376,3.704-1.55,3.882-1.778,4.905-.523,2.351-.951,2.986-1.257,6.019-.356,3.532-.191,3.027-.143,5.498,.048,2.479,.487,1.639,.971,4.977,.365,2.518,.786,6.556,.378,6.612Z"/><path class="cls-2" d="M81.407,108.126c-.659,.09-3.499-7.104-2.913-14.93,.682-9.103,5.8-16.405,5.927-16.351,.025,.011-.378,1.097-1.185,3.27-1.376,3.704-1.55,3.882-1.778,4.905-.523,2.351-.951,2.986-1.257,6.019-.356,3.532-.191,3.027-.143,5.498,.048,2.479,.487,1.639,.971,4.977,.365,2.518,.786,6.556,.378,6.612Z"/><path class="cls-2" d="M74.867,105.755c-.659,.09-3.499-7.104-2.913-14.93,.682-9.103,5.8-16.405,5.927-16.351,.025,.011-.378,1.097-1.185,3.27-1.376,3.704-1.55,3.882-1.778,4.905-.523,2.351-.951,2.986-1.257,6.019-.356,3.532-.191,3.027-.143,5.498,.048,2.479,.487,1.639,.971,4.977,.365,2.518,.786,6.556,.378,6.612Z"/><path class="cls-2" d="M69.961,103.977c-.659,.09-3.499-7.104-2.913-14.93,.682-9.103,5.8-16.405,5.927-16.351,.025,.011-.378,1.097-1.185,3.27-1.376,3.704-1.55,3.882-1.778,4.905-.523,2.351-.951,2.986-1.257,6.019-.356,3.532-.191,3.027-.143,5.498,.048,2.479,.487,1.639,.971,4.977,.365,2.518,.786,6.556,.378,6.612Z"/><path class="cls-2" d="M63.942,102.72c-.659,.09-3.499-7.104-2.913-14.93,.682-9.103,5.8-16.405,5.927-16.351,.025,.011-.378,1.097-1.185,3.27-1.376,3.704-1.55,3.882-1.778,4.905-.523,2.351-.951,2.986-1.257,6.019-.356,3.532-.191,3.027-.143,5.498,.048,2.479,.487,1.639,.971,4.977,.365,2.518,.786,6.556,.378,6.612Z"/><path class="cls-2" d="M57.995,98.714c-.659,.09-3.499-7.104-2.913-14.93,.682-9.103,5.8-16.405,5.927-16.351,.025,.011-.378,1.097-1.185,3.27-1.376,3.704-1.55,3.882-1.778,4.905-.523,2.351-.951,2.986-1.257,6.019-.356,3.532-.191,3.027-.143,5.498,.048,2.479,.487,1.639,.971,4.977,.365,2.518,.786,6.556,.378,6.612Z"/><path class="cls-2" d="M51.975,97.457c-.659,.09-3.499-7.104-2.913-14.93,.682-9.103,5.8-16.405,5.927-16.351,.025,.011-.378,1.097-1.185,3.27-1.376,3.704-1.55,3.882-1.778,4.905-.523,2.351-.951,2.986-1.257,6.019-.356,3.532-.191,3.027-.143,5.498,.048,2.479,.487,1.639,.971,4.977,.365,2.518,.786,6.556,.378,6.612Z"/><path class="cls-2" d="M43.728,97.243c-.659,.09-3.499-7.104-2.913-14.93,.682-9.103,5.8-16.405,5.927-16.351,.025,.011-.378,1.097-1.185,3.27-1.376,3.704-1.55,3.882-1.778,4.905-.523,2.351-.951,2.986-1.257,6.019-.356,3.532-.191,3.027-.143,5.498,.048,2.479,.487,1.639,.971,4.977,.365,2.518,.786,6.556,.378,6.612Z"/><path class="cls-2" d="M38.302,94.351c-.659,.09-3.499-7.104-2.913-14.93,.682-9.103,5.8-16.405,5.927-16.351,.025,.011-.378,1.097-1.185,3.27-1.376,3.704-1.55,3.882-1.778,4.905-.523,2.351-.951,2.986-1.257,6.019-.356,3.532-.191,3.027-.143,5.498,.048,2.479,.487,1.639,.971,4.977,.365,2.518,.786,6.556,.378,6.612Z"/><path class="cls-2" d="M32.804,94.208c-.659,.09-3.499-7.104-2.913-14.93,.682-9.103,5.8-16.405,5.927-16.351,.025,.011-.378,1.097-1.185,3.27-1.376,3.704-1.55,3.882-1.778,4.905-.523,2.351-.951,2.986-1.257,6.019-.356,3.532-.191,3.027-.143,5.498,.048,2.479,.487,1.639,.971,4.977,.365,2.518,.786,6.556,.378,6.612Z"/><path class="cls-2" d="M27.022,94.02c-.636,.192-4.571-6.467-5.221-14.288-.756-9.098,3.153-17.112,3.286-17.079,.027,.007-.201,1.143-.657,3.416-.777,3.874-.922,4.078-.986,5.124-.148,2.404-.47,3.099-.296,6.142,.202,3.544,.287,3.02,.722,5.452,.437,2.441,.738,1.542,1.74,4.763,.756,2.429,1.806,6.351,1.412,6.47Z"/><path class="cls-2" d="M26.311,94.085c-.548,.361-6.098-4.809-8.869-12.003-3.223-8.368-1.745-17.032-1.61-17.038,.027-.001,.125,1.135,.322,3.408,.335,3.874,.255,4.107,.483,5.112,.524,2.309,.411,3.056,1.415,5.877,1.169,3.286,1.104,2.767,2.186,4.939,1.085,2.179,1.122,1.246,2.956,4.001,1.384,2.078,3.457,5.481,3.117,5.705Z"/><path class="cls-2" d="M28.808,92.707c-.203,.633-7.918,.098-14.729-3.801-7.923-4.536-12.308-12.299-12.205-12.391,.021-.018,.827,.814,2.441,2.478,2.75,2.837,2.836,3.071,3.661,3.717,1.896,1.485,2.286,2.144,4.891,3.726,3.034,1.843,2.65,1.476,4.9,2.497,2.258,1.024,1.689,.266,4.91,1.267,2.43,.755,6.256,2.114,6.13,2.506Z"/><path class="cls-2" d="M156.244,149.417c-.236-.413-7.895,.606-14.471,3.836-7.649,3.757-11.6,9.409-11.492,9.462,.022,.011,.781-.624,2.298-1.892,2.587-2.163,2.66-2.329,3.448-2.839,1.809-1.17,2.162-1.652,4.673-2.949,2.924-1.511,2.561-1.229,4.748-2.114,2.195-.888,1.668-.324,4.824-1.279,2.38-.72,6.119-1.969,5.973-2.225Z"/><path class="cls-2" d="M151.761,145.3c-.236-.413-7.895,.606-14.471,3.836-7.649,3.757-11.6,9.409-11.492,9.462,.022,.011,.781-.624,2.298-1.892,2.587-2.163,2.66-2.329,3.448-2.839,1.809-1.17,2.162-1.652,4.673-2.949,2.924-1.511,2.561-1.229,4.748-2.114,2.195-.888,1.668-.324,4.824-1.279,2.38-.72,6.119-1.969,5.973-2.225Z"/><path class="cls-2" d="M145.813,141.294c-.236-.413-7.895,.606-14.471,3.836-7.649,3.757-11.6,9.409-11.492,9.462,.022,.011,.781-.624,2.298-1.892,2.587-2.163,2.66-2.329,3.448-2.839,1.809-1.17,2.162-1.652,4.673-2.949,2.924-1.511,2.561-1.229,4.748-2.114,2.195-.888,1.668-.324,4.824-1.279,2.38-.72,6.119-1.969,5.973-2.225Z"/><path class="cls-2" d="M138.751,137.809c-.236-.413-7.895,.606-14.471,3.836-7.649,3.757-11.6,9.409-11.492,9.462,.022,.011,.781-.624,2.298-1.892,2.587-2.163,2.66-2.329,3.448-2.839,1.809-1.17,2.162-1.652,4.673-2.949,2.924-1.511,2.561-1.229,4.748-2.114,2.195-.888,1.668-.324,4.824-1.279,2.38-.72,6.119-1.969,5.973-2.225Z"/><path class="cls-2" d="M135.553,133.875c-.236-.413-7.895,.606-14.471,3.836-7.649,3.757-11.6,9.409-11.492,9.462,.022,.011,.781-.624,2.298-1.892,2.587-2.163,2.66-2.329,3.448-2.839,1.809-1.17,2.162-1.652,4.673-2.949,2.924-1.511,2.561-1.229,4.748-2.114,2.195-.888,1.668-.324,4.824-1.279,2.38-.72,6.119-1.969,5.973-2.225Z"/><path class="cls-2" d="M127.377,130.912c-.236-.413-7.895,.606-14.471,3.836-7.649,3.757-11.6,9.409-11.492,9.462,.022,.011,.781-.624,2.298-1.892,2.587-2.163,2.66-2.329,3.448-2.839,1.809-1.17,2.162-1.652,4.673-2.949,2.924-1.511,2.561-1.229,4.748-2.114,2.195-.888,1.668-.324,4.824-1.279,2.38-.72,6.119-1.969,5.973-2.225Z"/><path class="cls-2" d="M122.543,126.384c-.236-.413-7.895,.606-14.471,3.836-7.649,3.757-11.6,9.409-11.492,9.462,.022,.011,.781-.624,2.298-1.892,2.587-2.163,2.66-2.329,3.448-2.839,1.809-1.17,2.162-1.652,4.673-2.949,2.924-1.511,2.561-1.229,4.748-2.114,2.195-.888,1.668-.324,4.824-1.279,2.38-.72,6.119-1.969,5.973-2.225Z"/><path class="cls-2" d="M117.117,123.493c-.236-.413-7.895,.606-14.471,3.836-7.649,3.757-11.6,9.409-11.492,9.462,.022,.011,.781-.624,2.298-1.892,2.587-2.163,2.66-2.329,3.448-2.839,1.809-1.17,2.162-1.652,4.673-2.949,2.924-1.511,2.561-1.229,4.748-2.114,2.195-.888,1.668-.324,4.824-1.279,2.38-.72,6.119-1.969,5.973-2.225Z"/><path class="cls-2" d="M110.951,122.264c-.236-.413-7.895,.606-14.471,3.836-7.649,3.757-11.6,9.409-11.492,9.462,.022,.011,.781-.624,2.298-1.892,2.587-2.163,2.66-2.329,3.448-2.839,1.809-1.17,2.162-1.652,4.673-2.949,2.924-1.511,2.561-1.229,4.748-2.114,2.195-.888,1.668-.324,4.824-1.279,2.38-.72,6.119-1.969,5.973-2.225Z"/><path class="cls-2" d="M106.045,120.486c-.236-.413-7.895,.606-14.471,3.836-7.649,3.757-11.6,9.409-11.492,9.462,.022,.011,.781-.624,2.298-1.892,2.587-2.163,2.66-2.329,3.448-2.839,1.809-1.17,2.162-1.652,4.673-2.949,2.924-1.511,2.561-1.229,4.748-2.114,2.195-.888,1.668-.324,4.824-1.279,2.38-.72,6.119-1.969,5.973-2.225Z"/><path class="cls-2" d="M100.098,116.481c-.236-.413-7.895,.606-14.471,3.836-7.649,3.757-11.6,9.409-11.492,9.462,.022,.011,.781-.624,2.298-1.892,2.587-2.163,2.66-2.329,3.448-2.839,1.809-1.17,2.162-1.652,4.673-2.949,2.924-1.511,2.561-1.229,4.748-2.114,2.195-.888,1.668-.324,4.824-1.279,2.38-.72,6.119-1.969,5.973-2.225Z"/><path class="cls-2" d="M46.661,98.036c-.236-.413-7.895,.606-14.471,3.836-7.649,3.757-11.6,9.409-11.492,9.462,.022,.011,.781-.624,2.298-1.892,2.587-2.163,2.66-2.329,3.448-2.839,1.809-1.17,2.162-1.652,4.673-2.949,2.924-1.511,2.561-1.229,4.748-2.114,2.195-.888,1.668-.324,4.824-1.279,2.38-.72,6.119-1.969,5.973-2.225Z"/><path class="cls-2" d="M84.86,110.032c-.236-.413-7.895,.606-14.471,3.836-7.649,3.757-11.6,9.409-11.492,9.462,.022,.011,.781-.624,2.298-1.892,2.587-2.163,2.66-2.329,3.448-2.839,1.809-1.17,2.162-1.652,4.673-2.949,2.924-1.511,2.561-1.229,4.748-2.114,2.195-.888,1.668-.324,4.824-1.279,2.38-.72,6.119-1.969,5.973-2.225Z"/><path class="cls-2" d="M77.206,108.183c-.236-.413-7.895,.606-14.471,3.836-7.649,3.757-11.6,9.409-11.492,9.462,.022,.011,.781-.624,2.298-1.892,2.587-2.163,2.66-2.329,3.448-2.839,1.809-1.17,2.162-1.652,4.673-2.949,2.924-1.511,2.561-1.229,4.748-2.114,2.195-.888,1.668-.324,4.824-1.279,2.38-.72,6.119-1.969,5.973-2.225Z"/><path class="cls-2" d="M71.259,104.177c-.236-.413-7.895,.606-14.471,3.836-7.649,3.757-11.6,9.409-11.492,9.462,.022,.011,.781-.624,2.298-1.892,2.587-2.163,2.66-2.329,3.448-2.839,1.809-1.17,2.162-1.652,4.673-2.949,2.924-1.511,2.561-1.229,4.748-2.114,2.195-.888,1.668-.324,4.824-1.279,2.38-.72,6.119-1.969,5.973-2.225Z"/><path class="cls-2" d="M61.726,101.878c-.302-.368-7.682,1.921-13.623,6.208-6.911,4.986-9.859,11.22-9.743,11.255,.023,.007,.665-.746,1.949-2.251,2.188-2.566,2.232-2.742,2.923-3.376,1.587-1.457,1.854-1.991,4.112-3.691,2.629-1.979,2.318-1.641,4.326-2.88,2.015-1.244,1.59-.6,4.541-2.069,2.226-1.109,5.702-2.967,5.515-3.195Z"/><path class="cls-2" d="M56.543,98.843c-.236-.413-7.895,.606-14.471,3.836-7.649,3.757-11.6,9.409-11.492,9.462,.022,.011,.781-.624,2.298-1.892,2.587-2.163,2.66-2.329,3.448-2.839,1.809-1.17,2.162-1.652,4.673-2.949,2.924-1.511,2.561-1.229,4.748-2.114,2.195-.888,1.668-.324,4.824-1.279,2.38-.72,6.119-1.969,5.973-2.225Z"/><path class="cls-2" d="M91.329,115.152c-.236-.413-7.895,.606-14.471,3.836-7.649,3.757-11.6,9.409-11.492,9.462,.022,.011,.781-.624,2.298-1.892,2.587-2.163,2.66-2.329,3.448-2.839,1.809-1.17,2.162-1.652,4.673-2.949,2.924-1.511,2.561-1.229,4.748-2.114,2.195-.888,1.668-.324,4.824-1.279,2.38-.72,6.119-1.969,5.973-2.225Z"/><path class="cls-2" d="M39.006,96.186c-.236-.413-7.895,.606-14.471,3.836-7.649,3.757-11.6,9.409-11.492,9.462,.022,.011,.781-.624,2.298-1.892,2.587-2.163,2.66-2.329,3.448-2.839,1.809-1.17,2.162-1.652,4.673-2.949,2.924-1.511,2.561-1.229,4.748-2.114,2.195-.888,1.668-.324,4.824-1.279,2.38-.72,6.119-1.969,5.973-2.225Z"/><path class="cls-2" d="M31.352,94.337c-.236-.413-7.895,.606-14.471,3.836-7.649,3.757-11.6,9.409-11.492,9.462,.022,.011,.781-.624,2.298-1.892,2.587-2.163,2.66-2.329,3.448-2.839,1.809-1.17,2.162-1.652,4.673-2.949,2.924-1.511,2.561-1.229,4.748-2.114,2.195-.888,1.668-.324,4.824-1.279,2.38-.72,6.119-1.969,5.973-2.225Z"/><path class="cls-2" d="M27.921,93.08c-.167-.446-7.891-.662-14.898,1.478C4.873,97.046,.071,101.995,.169,102.064c.02,.014,.87-.491,2.571-1.501,2.899-1.722,2.998-1.875,3.856-2.252,1.973-.867,2.398-1.286,5.083-2.166,3.127-1.025,2.724-.804,5.025-1.329,2.308-.527,1.699-.054,4.966-.493,2.465-.331,6.355-.967,6.251-1.243Z"/><path class="cls-1" d="M147.183,151.15c-1.216-.759,6.074-15.963,14.766-29.614,0,0,13.125-20.615,35.314-42.963,2.456-2.474,5.023-4.951,5.023-4.951s4.792-4.624,9.673-8.969c6.517-5.802,31.4-26.818,33.254-24.888,.971,1.011-7.911,8.502-11.067,10.723-14.95,10.523-12.58,9.866-26.874,22.759-11.977,10.804-22.723,24.023-25.56,27.5-9.027,11.063-8.882,11.266-21.348,28.885-3.461,4.892-12.098,22.193-13.18,21.518Z"/><path class="cls-2" d="M153.373,138.239c.635-.198,.158-7.918-3.689-14.758-4.476-7.957-12.206-12.401-12.298-12.298-.018,.021,.808,.834,2.46,2.46,2.816,2.772,3.05,2.859,3.689,3.689,1.47,1.907,2.127,2.302,3.689,4.919,1.82,3.048,1.456,2.661,2.46,4.919,1.007,2.266,.253,1.691,1.23,4.919,.737,2.435,2.066,6.272,2.46,6.149Z"/><path class="cls-2" d="M156.979,132.138c.635-.198,.158-7.918-3.689-14.758-4.476-7.957-12.206-12.401-12.298-12.298-.018,.021,.808,.834,2.46,2.46,2.816,2.772,3.05,2.859,3.689,3.689,1.47,1.907,2.127,2.302,3.689,4.919,1.82,3.048,1.456,2.661,2.46,4.919,1.007,2.266,.253,1.691,1.23,4.919,.737,2.435,2.066,6.272,2.46,6.149Z"/><path class="cls-2" d="M161.898,124.759c.635-.198,.158-7.918-3.689-14.758-4.476-7.957-12.206-12.401-12.298-12.298-.018,.021,.808,.834,2.46,2.46,2.816,2.772,3.05,2.859,3.689,3.689,1.47,1.907,2.127,2.302,3.689,4.919,1.82,3.048,1.456,2.661,2.46,4.919,1.007,2.266,.253,1.691,1.23,4.919,.737,2.435,2.066,6.272,2.46,6.149Z"/><path class="cls-2" d="M166.818,118.61c.635-.198,.158-7.918-3.689-14.758-4.476-7.957-12.206-12.401-12.298-12.298-.018,.021,.808,.834,2.46,2.46,2.816,2.772,3.05,2.859,3.689,3.689,1.47,1.907,2.127,2.302,3.689,4.919,1.82,3.048,1.456,2.661,2.46,4.919,1.007,2.266,.253,1.691,1.23,4.919,.737,2.435,2.066,6.272,2.46,6.149Z"/><path class="cls-2" d="M170.385,110.664c.635-.198,.158-7.918-3.689-14.758-4.476-7.957-12.206-12.401-12.298-12.298-.018,.021,.808,.834,2.46,2.46,2.816,2.772,3.05,2.859,3.689,3.689,1.47,1.907,2.127,2.302,3.689,4.919,1.82,3.048,1.456,2.661,2.46,4.919,1.007,2.266,.253,1.691,1.23,4.919,.737,2.435,2.066,6.272,2.46,6.149Z"/><path class="cls-2" d="M175.304,104.515c.635-.198,.158-7.918-3.689-14.758-4.476-7.957-12.206-12.401-12.298-12.298-.018,.021,.808,.834,2.46,2.46,2.816,2.772,3.05,2.859,3.689,3.689,1.47,1.907,2.127,2.302,3.689,4.919,1.82,3.048,1.456,2.661,2.46,4.919,1.007,2.266,.253,1.691,1.23,4.919,.737,2.435,2.066,6.272,2.46,6.149Z"/><path class="cls-2" d="M178.993,100.826c.635-.198,.158-7.918-3.689-14.758-4.476-7.957-12.206-12.401-12.298-12.298-.018,.021,.808,.834,2.46,2.46,2.816,2.772,3.05,2.859,3.689,3.689,1.47,1.907,2.127,2.302,3.689,4.919,1.82,3.048,1.456,2.661,2.46,4.919,1.007,2.266,.253,1.691,1.23,4.919,.737,2.435,2.066,6.272,2.46,6.149Z"/><path class="cls-2" d="M149.478,147.558c.635-.198,.158-7.918-3.689-14.758-4.476-7.957-12.206-12.401-12.298-12.298-.018,.021,.808,.834,2.46,2.46,2.816,2.772,3.05,2.859,3.689,3.689,1.47,1.907,2.127,2.302,3.689,4.919,1.82,3.048,1.456,2.661,2.46,4.919,1.007,2.266,.253,1.691,1.23,4.919,.737,2.435,2.066,6.272,2.46,6.149Z"/><path class="cls-2" d="M181.453,97.137c.635-.198,.158-7.918-3.689-14.758-4.476-7.957-12.206-12.401-12.298-12.298-.018,.021,.808,.834,2.46,2.46,2.816,2.772,3.05,2.859,3.689,3.689,1.47,1.907,2.127,2.302,3.689,4.919,1.82,3.048,1.456,2.661,2.46,4.919,1.007,2.266,.253,1.691,1.23,4.919,.737,2.435,2.066,6.272,2.46,6.149Z"/><path class="cls-2" d="M185.142,92.217c.635-.198,.158-7.918-3.689-14.758-4.476-7.957-12.206-12.401-12.298-12.298-.018,.021,.808,.834,2.46,2.46,2.816,2.772,3.05,2.859,3.689,3.689,1.47,1.907,2.127,2.302,3.689,4.919,1.82,3.048,1.456,2.661,2.46,4.919,1.007,2.266,.253,1.691,1.23,4.919,.737,2.435,2.066,6.272,2.46,6.149Z"/><path class="cls-2" d="M190.062,89.758c.635-.198,.158-7.918-3.689-14.758-4.476-7.957-12.206-12.401-12.298-12.298-.018,.021,.808,.834,2.46,2.46,2.816,2.772,3.05,2.859,3.689,3.689,1.47,1.907,2.127,2.302,3.689,4.919,1.82,3.048,1.456,2.661,2.46,4.919,1.007,2.266,.253,1.691,1.23,4.919,.737,2.435,2.066,6.272,2.46,6.149Z"/><path class="cls-2" d="M193.751,83.609c.635-.198,.158-7.918-3.689-14.758-4.476-7.957-12.206-12.401-12.298-12.298-.018,.021,.808,.834,2.46,2.46,2.816,2.772,3.05,2.859,3.689,3.689,1.47,1.907,2.127,2.302,3.689,4.919,1.82,3.048,1.456,2.661,2.46,4.919,1.007,2.266,.253,1.691,1.23,4.919,.737,2.435,2.066,6.272,2.46,6.149Z"/><path class="cls-2" d="M198.67,78.69c.635-.198,.158-7.918-3.689-14.758-4.476-7.957-12.206-12.401-12.298-12.298-.018,.021,.808,.834,2.46,2.46,2.816,2.772,3.05,2.859,3.689,3.689,1.47,1.907,2.127,2.302,3.689,4.919,1.82,3.048,1.456,2.661,2.46,4.919,1.007,2.266,.253,1.691,1.23,4.919,.737,2.435,2.066,6.272,2.46,6.149Z"/><path class="cls-2" d="M203.589,73.77c.635-.198,.158-7.918-3.689-14.758-4.476-7.957-12.206-12.401-12.298-12.298-.018,.021,.808,.834,2.46,2.46,2.816,2.772,3.05,2.859,3.689,3.689,1.47,1.907,2.127,2.302,3.689,4.919,1.82,3.048,1.456,2.661,2.46,4.919,1.007,2.266,.253,1.691,1.23,4.919,.737,2.435,2.066,6.272,2.46,6.149Z"/><path class="cls-2" d="M207.279,70.081c.635-.198,.158-7.918-3.689-14.758-4.476-7.957-12.206-12.401-12.298-12.298-.018,.021,.808,.834,2.46,2.46,2.816,2.772,3.05,2.859,3.689,3.689,1.47,1.907,2.127,2.302,3.689,4.919,1.82,3.048,1.456,2.661,2.46,4.919,1.007,2.266,.253,1.691,1.23,4.919,.737,2.435,2.066,6.272,2.46,6.149Z"/><path class="cls-2" d="M212.198,66.391c.635-.198,.158-7.918-3.689-14.758-4.476-7.957-12.206-12.401-12.298-12.298-.018,.021,.808,.834,2.46,2.46,2.816,2.772,3.05,2.859,3.689,3.689,1.47,1.907,2.127,2.302,3.689,4.919,1.82,3.048,1.456,2.661,2.46,4.919,1.007,2.266,.253,1.691,1.23,4.919,.737,2.435,2.066,6.272,2.46,6.149Z"/><path class="cls-2" d="M215.888,60.242c.635-.198,.158-7.918-3.689-14.758-4.476-7.957-12.206-12.401-12.298-12.298-.018,.021,.808,.834,2.46,2.46,2.816,2.772,3.05,2.859,3.689,3.689,1.47,1.907,2.127,2.302,3.689,4.919,1.82,3.048,1.456,2.661,2.46,4.919,1.007,2.266,.253,1.691,1.23,4.919,.737,2.435,2.066,6.272,2.46,6.149Z"/><path class="cls-2" d="M220.807,56.553c.635-.198,.158-7.918-3.689-14.758-4.476-7.957-12.206-12.401-12.298-12.298-.018,.021,.808,.834,2.46,2.46,2.816,2.772,3.05,2.859,3.689,3.689,1.47,1.907,2.127,2.302,3.689,4.919,1.82,3.048,1.456,2.661,2.46,4.919,1.007,2.266,.253,1.691,1.23,4.919,.737,2.435,2.066,6.272,2.46,6.149Z"/><path class="cls-2" d="M228.186,52.864c.635-.198,.158-7.918-3.689-14.758-4.476-7.957-12.206-12.401-12.298-12.298-.018,.021,.808,.834,2.46,2.46,2.816,2.772,3.05,2.859,3.689,3.689,1.47,1.907,2.127,2.302,3.689,4.919,1.82,3.048,1.456,2.661,2.46,4.919,1.007,2.266,.253,1.691,1.23,4.919,.737,2.435,2.066,6.272,2.46,6.149Z"/><path class="cls-2" d="M231.875,47.944c.635-.198,.158-7.918-3.689-14.758-4.476-7.957-12.206-12.401-12.298-12.298-.018,.021,.808,.834,2.46,2.46,2.816,2.772,3.05,2.859,3.689,3.689,1.47,1.907,2.127,2.302,3.689,4.919,1.82,3.048,1.456,2.661,2.46,4.919,1.007,2.266,.253,1.691,1.23,4.919,.737,2.435,2.066,6.272,2.46,6.149Z"/><path class="cls-2" d="M236.794,45.485c.635-.198,.158-7.918-3.689-14.758-4.476-7.957-12.206-12.401-12.298-12.298-.018,.021,.808,.834,2.46,2.46,2.816,2.772,3.05,2.859,3.689,3.689,1.47,1.907,2.127,2.302,3.689,4.919,1.82,3.048,1.456,2.661,2.46,4.919,1.007,2.266,.253,1.691,1.23,4.919,.737,2.435,2.066,6.272,2.46,6.149Z"/><path class="cls-2" d="M241.951,42.864c.658-.096,1.399-7.794-1.327-15.154-3.171-8.561-10.108-14.163-10.215-14.076-.021,.017,.667,.95,2.043,2.815,2.346,3.18,2.563,3.303,3.064,4.223,1.152,2.114,1.739,2.607,2.871,5.437,1.319,3.296,1.02,2.857,1.657,5.244,.639,2.396-.015,1.71,.442,5.051,.345,2.521,1.056,6.518,1.464,6.459Z"/><path class="cls-2" d="M242.623,42.622c.649,.095,3.485-6.941,2.946-14.631-.627-8.946-5.638-16.166-5.763-16.115-.025,.01,.368,1.081,1.153,3.223,1.338,3.651,1.51,3.828,1.729,4.834,.504,2.313,.923,2.942,1.209,5.923,.334,3.471,.173,2.974,.114,5.4-.06,2.434-.488,1.604-.982,4.877-.372,2.469-.808,6.43-.406,6.488Z"/><path class="cls-2" d="M239.778,42.432c.452,.488,7.214-3.267,11.73-9.685,5.254-7.466,5.935-16.357,5.803-16.395-.026-.008-.405,1.088-1.161,3.279-1.289,3.735-1.267,3.984-1.741,4.919-1.088,2.148-1.162,2.911-2.851,5.448-1.967,2.955-1.775,2.46-3.38,4.338-1.611,1.885-1.417,.957-3.91,3.228-1.881,1.713-4.77,4.566-4.49,4.868Z"/><path class="cls-2" d="M148.386,147.806c.039-.474,7.408-2.797,14.733-2.659,8.521,.161,14.494,3.606,14.419,3.699-.015,.019-.971-.234-2.884-.74-3.26-.862-3.397-.982-4.326-1.11-2.135-.293-2.658-.58-5.482-.691-3.288-.129-2.84-.028-5.196,.098-2.364,.126-1.649,.413-4.911,.886-2.461,.357-6.377,.81-6.353,.516Z"/><path class="cls-2" d="M150.702,142.177c.039-.474,7.408-2.797,14.733-2.659,8.521,.161,14.494,3.606,14.419,3.699-.015,.019-.971-.234-2.884-.74-3.26-.862-3.397-.982-4.326-1.11-2.135-.293-2.658-.58-5.482-.691-3.288-.129-2.84-.028-5.196,.098-2.364,.126-1.649,.413-4.911,.886-2.461,.357-6.377,.81-6.353,.516Z"/><path class="cls-2" d="M154.392,136.028c.039-.474,7.408-2.797,14.733-2.659,8.521,.161,14.494,3.606,14.419,3.699-.015,.019-.971-.234-2.884-.74-3.26-.862-3.397-.982-4.326-1.11-2.135-.293-2.658-.58-5.482-.691-3.288-.129-2.84-.028-5.196,.098-2.364,.126-1.649,.413-4.911,.886-2.461,.357-6.377,.81-6.353,.516Z"/><path class="cls-2" d="M159.311,129.879c.039-.474,7.408-2.797,14.733-2.659,8.521,.161,14.494,3.606,14.419,3.699-.015,.019-.971-.234-2.884-.74-3.26-.862-3.397-.982-4.326-1.11-2.135-.293-2.658-.58-5.482-.691-3.288-.129-2.84-.028-5.196,.098-2.364,.126-1.649,.413-4.911,.886-2.461,.357-6.377,.81-6.353,.516Z"/><path class="cls-2" d="M160.541,124.96c.039-.474,7.408-2.797,14.733-2.659,8.521,.161,14.494,3.606,14.419,3.699-.015,.019-.971-.234-2.884-.74-3.26-.862-3.397-.982-4.326-1.11-2.135-.293-2.658-.58-5.482-.691-3.288-.129-2.84-.028-5.196,.098-2.364,.126-1.649,.413-4.911,.886-2.461,.357-6.377,.81-6.353,.516Z"/><path class="cls-2" d="M166.69,118.811c.039-.474,7.408-2.797,14.733-2.659,8.521,.161,14.494,3.606,14.419,3.699-.015,.019-.971-.234-2.884-.74-3.26-.862-3.397-.982-4.326-1.11-2.135-.293-2.658-.58-5.482-.691-3.288-.129-2.84-.028-5.196,.098-2.364,.126-1.649,.413-4.911,.886-2.461,.357-6.377,.81-6.353,.516Z"/><path class="cls-2" d="M169.149,112.662c.039-.474,7.408-2.797,14.733-2.659,8.521,.161,14.494,3.606,14.419,3.699-.015,.019-.971-.234-2.884-.74-3.26-.862-3.397-.982-4.326-1.11-2.135-.293-2.658-.58-5.482-.691-3.288-.129-2.84-.028-5.196,.098-2.364,.126-1.649,.413-4.911,.886-2.461,.357-6.377,.81-6.353,.516Z"/><path class="cls-2" d="M172.839,107.742c.039-.474,7.408-2.797,14.733-2.659,8.521,.161,14.494,3.606,14.419,3.699-.015,.019-.971-.234-2.884-.74-3.26-.862-3.397-.982-4.326-1.11-2.135-.293-2.658-.58-5.482-.691-3.288-.129-2.84-.028-5.196,.098-2.364,.126-1.649,.413-4.911,.886-2.461,.357-6.377,.81-6.353,.516Z"/><path class="cls-2" d="M177.903,104.017c.039-.474,7.408-2.797,14.733-2.659,8.521,.161,14.494,3.606,14.419,3.699-.015,.019-.971-.234-2.884-.74-3.26-.862-3.397-.982-4.326-1.11-2.135-.293-2.658-.58-5.482-.691-3.288-.129-2.84-.028-5.196,.098-2.364,.126-1.649,.413-4.911,.886-2.461,.357-6.377,.81-6.353,.516Z"/><path class="cls-2" d="M181.593,100.327c.039-.474,7.408-2.797,14.733-2.659,8.521,.161,14.494,3.606,14.419,3.699-.015,.019-.971-.234-2.884-.74-3.26-.862-3.397-.982-4.326-1.11-2.135-.293-2.658-.58-5.482-.691-3.288-.129-2.84-.028-5.196,.098-2.364,.126-1.649,.413-4.911,.886-2.461,.357-6.377,.81-6.353,.516Z"/><path class="cls-2" d="M185.282,94.178c.039-.474,7.408-2.797,14.733-2.659,8.521,.161,14.494,3.606,14.419,3.699-.015,.019-.971-.234-2.884-.74-3.26-.862-3.397-.982-4.326-1.11-2.135-.293-2.658-.58-5.482-.691-3.288-.129-2.84-.028-5.196,.098-2.364,.126-1.649,.413-4.911,.886-2.461,.357-6.377,.81-6.353,.516Z"/><path class="cls-2" d="M225.866,54.825c.039-.474,7.408-2.797,14.733-2.659,8.521,.161,14.494,3.606,14.419,3.699-.015,.019-.971-.234-2.884-.74-3.26-.862-3.397-.982-4.326-1.11-2.135-.293-2.658-.58-5.482-.691-3.288-.129-2.84-.028-5.196,.098-2.364,.126-1.649,.413-4.911,.886-2.461,.357-6.377,.81-6.353,.516Z"/><path class="cls-2" d="M196.35,81.88c.039-.474,7.408-2.797,14.733-2.659,8.521,.161,14.494,3.606,14.419,3.699-.015,.019-.971-.234-2.884-.74-3.26-.862-3.397-.982-4.326-1.11-2.135-.293-2.658-.58-5.482-.691-3.288-.129-2.84-.028-5.196,.098-2.364,.126-1.649,.413-4.911,.886-2.461,.357-6.377,.81-6.353,.516Z"/><path class="cls-2" d="M202.499,76.961c.039-.474,7.408-2.797,14.733-2.659,8.521,.161,14.494,3.606,14.419,3.699-.015,.019-.971-.234-2.884-.74-3.26-.862-3.397-.982-4.326-1.11-2.135-.293-2.658-.58-5.482-.691-3.288-.129-2.84-.028-5.196,.098-2.364,.126-1.649,.413-4.911,.886-2.461,.357-6.377,.81-6.353,.516Z"/><path class="cls-2" d="M206.189,70.812c.039-.474,7.408-2.797,14.733-2.659,8.521,.161,14.494,3.606,14.419,3.699-.015,.019-.971-.234-2.884-.74-3.26-.862-3.397-.982-4.326-1.11-2.135-.293-2.658-.58-5.482-.691-3.288-.129-2.84-.028-5.196,.098-2.364,.126-1.649,.413-4.911,.886-2.461,.357-6.377,.81-6.353,.516Z"/><path class="cls-2" d="M213.848,64.69c.118-.461,7.772-1.516,14.97-.151,8.373,1.587,13.685,5.985,13.595,6.065-.018,.016-.918-.394-2.719-1.213-3.069-1.397-3.184-1.538-4.078-1.819-2.055-.647-2.524-1.018-5.289-1.6-3.22-.679-2.795-.503-5.139-.775-2.352-.273-1.694,.131-4.99,.05-2.486-.061-6.422-.27-6.349-.556Z"/><path class="cls-2" d="M217.257,59.744c.039-.474,7.408-2.797,14.733-2.659,8.521,.161,14.494,3.606,14.419,3.699-.015,.019-.971-.234-2.884-.74-3.26-.862-3.397-.982-4.326-1.11-2.135-.293-2.658-.58-5.482-.691-3.288-.129-2.84-.028-5.196,.098-2.364,.126-1.649,.413-4.911,.886-2.461,.357-6.377,.81-6.353,.516Z"/><path class="cls-2" d="M192.661,89.259c.039-.474,7.408-2.797,14.733-2.659,8.521,.161,14.494,3.606,14.419,3.699-.015,.019-.971-.234-2.884-.74-3.26-.862-3.397-.982-4.326-1.11-2.135-.293-2.658-.58-5.482-.691-3.288-.129-2.84-.028-5.196,.098-2.364,.126-1.649,.413-4.911,.886-2.461,.357-6.377,.81-6.353,.516Z"/><path class="cls-2" d="M232.015,49.905c.039-.474,7.408-2.797,14.733-2.659,8.521,.161,14.494,3.606,14.419,3.699-.015,.019-.971-.234-2.884-.74-3.26-.862-3.397-.982-4.326-1.11-2.135-.293-2.658-.58-5.482-.691-3.288-.129-2.84-.028-5.196,.098-2.364,.126-1.649,.413-4.911,.886-2.461,.357-6.377,.81-6.353,.516Z"/><path class="cls-2" d="M238.164,44.986c.039-.474,7.408-2.797,14.733-2.659,8.521,.161,14.494,3.606,14.419,3.699-.015,.019-.971-.234-2.884-.74-3.26-.862-3.397-.982-4.326-1.11-2.135-.293-2.658-.58-5.482-.691-3.288-.129-2.84-.028-5.196,.098-2.364,.126-1.649,.413-4.911,.886-2.461,.357-6.377,.81-6.353,.516Z"/><path class="cls-2" d="M240.739,42.394c-.038-.474,6.866-3.943,14.12-4.975,8.437-1.2,14.884,1.247,14.825,1.351-.012,.021-.996-.076-2.965-.27-3.356-.331-3.51-.428-4.447-.405-2.154,.051-2.717-.149-5.522,.192-3.267,.397-2.808,.426-5.114,.925-2.314,.501-1.561,.671-4.707,1.658-2.372,.745-6.166,1.817-6.189,1.523Z"/><path class="cls-1" d="M138.608,150.235c-.62-1.292,13.684-10.22,28.338-17.086,0,0,22.13-10.369,52.841-17.343,3.4-.772,6.894-1.487,6.894-1.487s6.524-1.335,12.973-2.387c8.612-1.405,40.883-5.811,41.413-3.187,.278,1.374-11.236,2.937-15.09,3.121-18.262,.87-15.909,1.586-34.886,4.81-15.902,2.701-32.06,8.101-36.318,9.516-13.55,4.501-13.537,4.75-33.505,12.943-5.544,2.275-22.109,12.251-22.66,11.101Z"/><path class="cls-2" d="M150.754,142.654c.642,.173,4.377-6.599,4.795-14.436,.486-9.116-3.658-17.011-3.791-16.974-.027,.007,.235,1.137,.758,3.395,.892,3.849,1.042,4.049,1.137,5.092,.219,2.398,.562,3.083,.478,6.13-.097,3.548-.197,3.027-.56,5.471-.364,2.453-.692,1.563-1.598,4.812-.684,2.451-1.617,6.402-1.219,6.509Z"/><path class="cls-2" d="M157.069,139.436c.642,.173,4.377-6.599,4.795-14.436,.486-9.116-3.658-17.011-3.791-16.974-.027,.007,.235,1.137,.758,3.395,.892,3.849,1.042,4.049,1.137,5.092,.219,2.398,.562,3.083,.478,6.13-.097,3.548-.197,3.027-.56,5.471-.364,2.453-.692,1.563-1.598,4.812-.684,2.451-1.617,6.402-1.219,6.509Z"/><path class="cls-2" d="M165.177,135.843c.642,.173,4.377-6.599,4.795-14.436,.486-9.116-3.658-17.011-3.791-16.974-.027,.007,.235,1.137,.758,3.395,.892,3.849,1.042,4.049,1.137,5.092,.219,2.398,.562,3.083,.478,6.13-.097,3.548-.197,3.027-.56,5.471-.364,2.453-.692,1.563-1.598,4.812-.684,2.451-1.617,6.402-1.219,6.509Z"/><path class="cls-2" d="M172.625,133.289c.642,.173,4.377-6.599,4.795-14.436,.486-9.116-3.658-17.011-3.791-16.974-.027,.007,.235,1.137,.758,3.395,.892,3.849,1.042,4.049,1.137,5.092,.219,2.398,.562,3.083,.478,6.13-.097,3.548-.197,3.027-.56,5.471-.364,2.453-.692,1.563-1.598,4.812-.684,2.451-1.617,6.402-1.219,6.509Z"/><path class="cls-2" d="M179.896,128.493c.642,.173,4.377-6.599,4.795-14.436,.486-9.116-3.658-17.011-3.791-16.974-.027,.007,.235,1.137,.758,3.395,.892,3.849,1.042,4.049,1.137,5.092,.219,2.398,.562,3.083,.478,6.13-.097,3.548-.197,3.027-.56,5.471-.364,2.453-.692,1.563-1.598,4.812-.684,2.451-1.617,6.402-1.219,6.509Z"/><path class="cls-2" d="M187.344,125.938c.642,.173,4.377-6.599,4.795-14.436,.486-9.116-3.658-17.011-3.791-16.974-.027,.007,.235,1.137,.758,3.395,.892,3.849,1.042,4.049,1.137,5.092,.219,2.398,.562,3.083,.478,6.13-.097,3.548-.197,3.027-.56,5.471-.364,2.453-.692,1.563-1.598,4.812-.684,2.451-1.617,6.402-1.219,6.509Z"/><path class="cls-2" d="M192.437,124.801c.642,.173,4.377-6.599,4.795-14.436,.486-9.116-3.658-17.011-3.791-16.974-.027,.007,.235,1.137,.758,3.395,.892,3.849,1.042,4.049,1.137,5.092,.219,2.398,.562,3.083,.478,6.13-.097,3.548-.197,3.027-.56,5.471-.364,2.453-.692,1.563-1.598,4.812-.684,2.451-1.617,6.402-1.219,6.509Z"/><path class="cls-2" d="M142.471,148.434c.642,.173,4.377-6.599,4.795-14.436,.486-9.116-3.658-17.011-3.791-16.974-.027,.007,.235,1.137,.758,3.395,.892,3.849,1.042,4.049,1.137,5.092,.219,2.398,.562,3.083,.478,6.13-.097,3.548-.197,3.027-.56,5.471-.364,2.453-.692,1.563-1.598,4.812-.684,2.451-1.617,6.402-1.219,6.509Z"/><path class="cls-2" d="M196.491,123.005c.642,.173,4.377-6.599,4.795-14.436,.486-9.116-3.658-17.011-3.791-16.974-.027,.007,.235,1.137,.758,3.395,.892,3.849,1.042,4.049,1.137,5.092,.219,2.398,.562,3.083,.478,6.13-.097,3.548-.197,3.027-.56,5.471-.364,2.453-.692,1.563-1.598,4.812-.684,2.451-1.617,6.402-1.219,6.509Z"/><path class="cls-2" d="M202.242,120.83c.642,.173,4.377-6.599,4.795-14.436,.486-9.116-3.658-17.011-3.791-16.974-.027,.007,.235,1.137,.758,3.395,.892,3.849,1.042,4.049,1.137,5.092,.219,2.398,.562,3.083,.478,6.13-.097,3.548-.197,3.027-.56,5.471-.364,2.453-.692,1.563-1.598,4.812-.684,2.451-1.617,6.402-1.219,6.509Z"/><path class="cls-2" d="M207.713,121.39c.642,.173,4.377-6.599,4.795-14.436,.486-9.116-3.658-17.011-3.791-16.974-.027,.007,.235,1.137,.758,3.395,.892,3.849,1.042,4.049,1.137,5.092,.219,2.398,.562,3.083,.478,6.13-.097,3.548-.197,3.027-.56,5.471-.364,2.453-.692,1.563-1.598,4.812-.684,2.451-1.617,6.402-1.219,6.509Z"/><path class="cls-2" d="M214.124,118.176c.642,.173,4.377-6.599,4.795-14.436,.486-9.116-3.658-17.011-3.791-16.974-.027,.007,.235,1.137,.758,3.395,.892,3.849,1.042,4.049,1.137,5.092,.219,2.398,.562,3.083,.478,6.13-.097,3.548-.197,3.027-.56,5.471-.364,2.453-.692,1.563-1.598,4.812-.684,2.451-1.617,6.402-1.219,6.509Z"/><path class="cls-2" d="M220.913,116.66c.642,.173,4.377-6.599,4.795-14.436,.486-9.116-3.658-17.011-3.791-16.974-.027,.007,.235,1.137,.758,3.395,.892,3.849,1.042,4.049,1.137,5.092,.219,2.398,.562,3.083,.478,6.13-.097,3.548-.197,3.027-.56,5.471-.364,2.453-.692,1.563-1.598,4.812-.684,2.451-1.617,6.402-1.219,6.509Z"/><path class="cls-2" d="M227.703,115.144c.642,.173,4.377-6.599,4.795-14.436,.486-9.116-3.658-17.011-3.791-16.974-.027,.007,.235,1.137,.758,3.395,.892,3.849,1.042,4.049,1.137,5.092,.219,2.398,.562,3.083,.478,6.13-.097,3.548-.197,3.027-.56,5.471-.364,2.453-.692,1.563-1.598,4.812-.684,2.451-1.617,6.402-1.219,6.509Z"/><path class="cls-2" d="M232.795,114.007c.642,.173,4.377-6.599,4.795-14.436,.486-9.116-3.658-17.011-3.791-16.974-.027,.007,.235,1.137,.758,3.395,.892,3.849,1.042,4.049,1.137,5.092,.219,2.398,.562,3.083,.478,6.13-.097,3.548-.197,3.027-.56,5.471-.364,2.453-.692,1.563-1.598,4.812-.684,2.451-1.617,6.402-1.219,6.509Z"/><path class="cls-2" d="M238.925,113.529c.642,.173,4.377-6.599,4.795-14.436,.486-9.116-3.658-17.011-3.791-16.974-.027,.007,.235,1.137,.758,3.395,.892,3.849,1.042,4.049,1.137,5.092,.219,2.398,.562,3.083,.478,6.13-.097,3.548-.197,3.027-.56,5.471-.364,2.453-.692,1.563-1.598,4.812-.684,2.451-1.617,6.402-1.219,6.509Z"/><path class="cls-2" d="M245.336,110.315c.642,.173,4.377-6.599,4.795-14.436,.486-9.116-3.658-17.011-3.791-16.974-.027,.007,.235,1.137,.758,3.395,.892,3.849,1.042,4.049,1.137,5.092,.219,2.398,.562,3.083,.478,6.13-.097,3.548-.197,3.027-.56,5.471-.364,2.453-.692,1.563-1.598,4.812-.684,2.451-1.617,6.402-1.219,6.509Z"/><path class="cls-2" d="M251.466,109.837c.642,.173,4.377-6.599,4.795-14.436,.486-9.116-3.658-17.011-3.791-16.974-.027,.007,.235,1.137,.758,3.395,.892,3.849,1.042,4.049,1.137,5.092,.219,2.398,.562,3.083,.478,6.13-.097,3.548-.197,3.027-.56,5.471-.364,2.453-.692,1.563-1.598,4.812-.684,2.451-1.617,6.402-1.219,6.509Z"/><path class="cls-2" d="M259.673,110.677c.642,.173,4.377-6.599,4.795-14.436,.486-9.116-3.658-17.011-3.791-16.974-.027,.007,.235,1.137,.758,3.395,.892,3.849,1.042,4.049,1.137,5.092,.219,2.398,.562,3.083,.478,6.13-.097,3.548-.197,3.027-.56,5.471-.364,2.453-.692,1.563-1.598,4.812-.684,2.451-1.617,6.402-1.219,6.509Z"/><path class="cls-2" d="M265.425,108.502c.642,.173,4.377-6.599,4.795-14.436,.486-9.116-3.658-17.011-3.791-16.974-.027,.007,.235,1.137,.758,3.395,.892,3.849,1.042,4.049,1.137,5.092,.219,2.398,.562,3.083,.478,6.13-.097,3.548-.197,3.027-.56,5.471-.364,2.453-.692,1.563-1.598,4.812-.684,2.451-1.617,6.402-1.219,6.509Z"/><path class="cls-2" d="M270.896,109.062c.642,.173,4.377-6.599,4.795-14.436,.486-9.116-3.658-17.011-3.791-16.974-.027,.007,.235,1.137,.758,3.395,.892,3.849,1.042,4.049,1.137,5.092,.219,2.398,.562,3.083,.478,6.13-.097,3.548-.197,3.027-.56,5.471-.364,2.453-.692,1.563-1.598,4.812-.684,2.451-1.617,6.402-1.219,6.509Z"/><path class="cls-2" d="M276.654,109.614c.607,.272,5.359-5.83,7.002-13.504,1.912-8.927-.942-17.375-1.079-17.359-.027,.003,.054,1.159,.216,3.472,.276,3.942,.393,4.162,.324,5.208-.16,2.403,.071,3.133-.49,6.129-.653,3.489-.67,2.958-1.412,5.315-.745,2.365-.929,1.435-2.334,4.501-1.06,2.313-2.602,6.069-2.226,6.237Z"/><path class="cls-2" d="M277.351,109.769c.497,.428,6.663-3.991,10.33-10.773,4.266-7.888,3.905-16.67,3.772-16.693-.027-.005-.269,1.11-.754,3.339-.827,3.799-.777,4.041-1.132,5.008-.814,2.223-.798,2.978-2.154,5.649-1.579,3.11-1.448,2.604-2.798,4.62-1.355,2.023-1.272,1.093-3.443,3.591-1.638,1.885-4.128,4.995-3.82,5.26Z"/><path class="cls-2" d="M275.051,108.084c.12,.654,7.841,1.109,15.094-1.889,8.437-3.487,13.778-10.627,13.687-10.731-.018-.021-.925,.702-2.737,2.146-3.09,2.462-3.205,2.684-4.106,3.219-2.07,1.23-2.541,1.835-5.327,3.071-3.244,1.44-2.817,1.125-5.179,1.851-2.371,.728-1.709,.048-5.031,.63-2.506,.438-6.474,1.298-6.4,1.703Z"/><path class="cls-2" d="M141.416,148.058c.287-.38,7.753,1.609,13.863,5.652,7.107,4.703,10.304,10.813,10.19,10.852-.023,.008-.695-.718-2.038-2.17-2.29-2.475-2.341-2.65-3.057-3.256-1.645-1.392-1.933-1.915-4.258-3.522-2.707-1.872-2.383-1.545-4.439-2.703-2.063-1.161-1.613-.535-4.621-1.884-2.269-1.018-5.818-2.734-5.64-2.969Z"/><path class="cls-2" d="M146.389,144.547c.287-.38,7.753,1.609,13.863,5.652,7.107,4.703,10.304,10.813,10.19,10.852-.023,.008-.695-.718-2.038-2.17-2.29-2.475-2.341-2.65-3.057-3.256-1.645-1.392-1.933-1.915-4.258-3.522-2.707-1.872-2.383-1.545-4.439-2.703-2.063-1.161-1.613-.535-4.621-1.884-2.269-1.018-5.818-2.734-5.64-2.969Z"/><path class="cls-2" d="M152.799,141.333c.287-.38,7.753,1.609,13.863,5.652,7.107,4.703,10.304,10.813,10.19,10.852-.023,.008-.695-.718-2.038-2.17-2.29-2.475-2.341-2.65-3.057-3.256-1.645-1.392-1.933-1.915-4.258-3.522-2.707-1.872-2.383-1.545-4.439-2.703-2.063-1.161-1.613-.535-4.621-1.884-2.269-1.018-5.818-2.734-5.64-2.969Z"/><path class="cls-2" d="M160.248,138.778c.287-.38,7.753,1.609,13.863,5.652,7.107,4.703,10.304,10.813,10.19,10.852-.023,.008-.695-.718-2.038-2.17-2.29-2.475-2.341-2.65-3.057-3.256-1.645-1.392-1.933-1.915-4.258-3.522-2.707-1.872-2.383-1.545-4.439-2.703-2.063-1.161-1.613-.535-4.621-1.884-2.269-1.018-5.818-2.734-5.64-2.969Z"/><path class="cls-2" d="M163.923,135.285c.287-.38,7.753,1.609,13.863,5.652,7.107,4.703,10.304,10.813,10.19,10.852-.023,.008-.695-.718-2.038-2.17-2.29-2.475-2.341-2.65-3.057-3.256-1.645-1.392-1.933-1.915-4.258-3.522-2.707-1.872-2.383-1.545-4.439-2.703-2.063-1.161-1.613-.535-4.621-1.884-2.269-1.018-5.818-2.734-5.64-2.969Z"/><path class="cls-2" d="M172.41,133.389c.287-.38,7.753,1.609,13.863,5.652,7.107,4.703,10.304,10.813,10.19,10.852-.023,.008-.695-.718-2.038-2.17-2.29-2.475-2.341-2.65-3.057-3.256-1.645-1.392-1.933-1.915-4.258-3.522-2.707-1.872-2.383-1.545-4.439-2.703-2.063-1.161-1.613-.535-4.621-1.884-2.269-1.018-5.818-2.734-5.64-2.969Z"/><path class="cls-2" d="M177.782,129.517c.287-.38,7.753,1.609,13.863,5.652,7.107,4.703,10.304,10.813,10.19,10.852-.023,.008-.695-.718-2.038-2.17-2.29-2.475-2.341-2.65-3.057-3.256-1.645-1.392-1.933-1.915-4.258-3.522-2.707-1.872-2.383-1.545-4.439-2.703-2.063-1.161-1.613-.535-4.621-1.884-2.269-1.018-5.818-2.734-5.64-2.969Z"/><path class="cls-2" d="M183.533,127.341c.287-.38,7.753,1.609,13.863,5.652,7.107,4.703,10.304,10.813,10.19,10.852-.023,.008-.695-.718-2.038-2.17-2.29-2.475-2.341-2.65-3.057-3.256-1.645-1.392-1.933-1.915-4.258-3.522-2.707-1.872-2.383-1.545-4.439-2.703-2.063-1.161-1.613-.535-4.621-1.884-2.269-1.018-5.818-2.734-5.64-2.969Z"/><path class="cls-2" d="M189.806,126.911c.287-.38,7.753,1.609,13.863,5.652,7.107,4.703,10.304,10.813,10.19,10.852-.023,.008-.695-.718-2.038-2.17-2.29-2.475-2.341-2.65-3.057-3.256-1.645-1.392-1.933-1.915-4.258-3.522-2.707-1.872-2.383-1.545-4.439-2.703-2.063-1.161-1.613-.535-4.621-1.884-2.269-1.018-5.818-2.734-5.64-2.969Z"/><path class="cls-2" d="M194.898,125.774c.287-.38,7.753,1.609,13.863,5.652,7.107,4.703,10.304,10.813,10.19,10.852-.023,.008-.695-.718-2.038-2.17-2.29-2.475-2.341-2.65-3.057-3.256-1.645-1.392-1.933-1.915-4.258-3.522-2.707-1.872-2.383-1.545-4.439-2.703-2.063-1.161-1.613-.535-4.621-1.884-2.269-1.018-5.818-2.734-5.64-2.969Z"/><path class="cls-2" d="M201.309,122.56c.287-.38,7.753,1.609,13.863,5.652,7.107,4.703,10.304,10.813,10.19,10.852-.023,.008-.695-.718-2.038-2.17-2.29-2.475-2.341-2.65-3.057-3.256-1.645-1.392-1.933-1.915-4.258-3.522-2.707-1.872-2.383-1.545-4.439-2.703-2.063-1.161-1.613-.535-4.621-1.884-2.269-1.018-5.818-2.734-5.64-2.969Z"/><path class="cls-2" d="M256.664,111.089c.287-.38,7.753,1.609,13.863,5.652,7.107,4.703,10.304,10.813,10.19,10.852-.023,.008-.695-.718-2.038-2.17-2.29-2.475-2.341-2.65-3.057-3.256-1.645-1.392-1.933-1.915-4.258-3.522-2.707-1.872-2.383-1.545-4.439-2.703-2.063-1.161-1.613-.535-4.621-1.884-2.269-1.018-5.818-2.734-5.64-2.969Z"/><path class="cls-2" d="M217.245,118.11c.287-.38,7.753,1.609,13.863,5.652,7.107,4.703,10.304,10.813,10.19,10.852-.023,.008-.695-.718-2.038-2.17-2.29-2.475-2.341-2.65-3.057-3.256-1.645-1.392-1.933-1.915-4.258-3.522-2.707-1.872-2.383-1.545-4.439-2.703-2.063-1.161-1.613-.535-4.621-1.884-2.269-1.018-5.818-2.734-5.64-2.969Z"/><path class="cls-2" d="M225.072,117.253c.287-.38,7.753,1.609,13.863,5.652,7.107,4.703,10.304,10.813,10.19,10.852-.023,.008-.695-.718-2.038-2.17-2.29-2.475-2.341-2.65-3.057-3.256-1.645-1.392-1.933-1.915-4.258-3.522-2.707-1.872-2.383-1.545-4.439-2.703-2.063-1.161-1.613-.535-4.621-1.884-2.269-1.018-5.818-2.734-5.64-2.969Z"/><path class="cls-2" d="M231.483,114.04c.287-.38,7.753,1.609,13.863,5.652,7.107,4.703,10.304,10.813,10.19,10.852-.023,.008-.695-.718-2.038-2.17-2.29-2.475-2.341-2.65-3.057-3.256-1.645-1.392-1.933-1.915-4.258-3.522-2.707-1.872-2.383-1.545-4.439-2.703-2.063-1.161-1.613-.535-4.621-1.884-2.269-1.018-5.818-2.734-5.64-2.969Z"/><path class="cls-2" d="M241.231,112.976c.346-.326,7.374,2.886,12.719,7.896,6.218,5.828,8.345,12.387,8.226,12.407-.024,.004-.564-.825-1.645-2.481-1.843-2.824-1.864-3.005-2.468-3.722-1.388-1.648-1.585-2.212-3.607-4.186-2.355-2.299-2.09-1.923-3.923-3.409-1.839-1.491-1.501-.798-4.24-2.632-2.066-1.384-5.277-3.671-5.062-3.873Z"/><path class="cls-2" d="M246.759,110.628c.287-.38,7.753,1.609,13.863,5.652,7.107,4.703,10.304,10.813,10.19,10.852-.023,.008-.695-.718-2.038-2.17-2.29-2.475-2.341-2.65-3.057-3.256-1.645-1.392-1.933-1.915-4.258-3.522-2.707-1.872-2.383-1.545-4.439-2.703-2.063-1.161-1.613-.535-4.621-1.884-2.269-1.018-5.818-2.734-5.64-2.969Z"/><path class="cls-2" d="M210.175,122.362c.287-.38,7.753,1.609,13.863,5.652,7.107,4.703,10.304,10.813,10.19,10.852-.023,.008-.695-.718-2.038-2.17-2.29-2.475-2.341-2.65-3.057-3.256-1.645-1.392-1.933-1.915-4.258-3.522-2.707-1.872-2.383-1.545-4.439-2.703-2.063-1.161-1.613-.535-4.621-1.884-2.269-1.018-5.818-2.734-5.64-2.969Z"/><path class="cls-2" d="M264.492,110.232c.287-.38,7.753,1.609,13.863,5.652,7.107,4.703,10.304,10.813,10.19,10.852-.023,.008-.695-.718-2.038-2.17-2.29-2.475-2.341-2.65-3.057-3.256-1.645-1.392-1.933-1.915-4.258-3.522-2.707-1.872-2.383-1.545-4.439-2.703-2.063-1.161-1.613-.535-4.621-1.884-2.269-1.018-5.818-2.734-5.64-2.969Z"/><path class="cls-2" d="M272.319,109.375c.287-.38,7.753,1.609,13.863,5.652,7.107,4.703,10.304,10.813,10.19,10.852-.023,.008-.695-.718-2.038-2.17-2.29-2.475-2.341-2.65-3.057-3.256-1.645-1.392-1.933-1.915-4.258-3.522-2.707-1.872-2.383-1.545-4.439-2.703-2.063-1.161-1.613-.535-4.621-1.884-2.269-1.018-5.818-2.734-5.64-2.969Z"/><path class="cls-2" d="M275.883,108.567c.223-.421,7.91,.351,14.587,3.368,7.766,3.509,11.897,9.03,11.791,9.087-.021,.011-.8-.598-2.358-1.817-2.656-2.078-2.734-2.242-3.537-2.726-1.846-1.112-2.214-1.582-4.765-2.797-2.971-1.416-2.599-1.146-4.814-1.96-2.222-.817-1.678-.271-4.862-1.123-2.402-.643-6.179-1.771-6.041-2.031Z"/></svg>