<?xml version="1.0" encoding="UTF-8"?><svg id="Layer_1" xmlns="http://www.w3.org/2000/svg" width="51" height="325" viewBox="0 0 51 325"><defs><style>.cls-1{fill:#f2f2f2;}</style></defs><path class="cls-1" d="M34.773,324.726H16.227c-8.743,0-15.897-6.165-15.897-13.701V6.178C.33-1.358,6.159,.469,14.902,.469h19.871c8.743,0,15.897-1.827,15.897,5.709V311.025c0,7.536-7.154,13.701-15.897,13.701Z"/><g><path d="M26.971,17.227c.047,.054,.075,.195,.085,.426,.01,.229,.007,.486-.01,.77s-.032,.642-.045,1.075c-.014,.434-.014,.82,0,1.16,.006,.22,.017,.496,.029,.83,.014,.333,.025,.609,.035,.83,.01,.22,.017,.443,.021,.67,.003,.227,0,.406-.011,.54-.01,.133-.024,.217-.045,.25-.026,.04-.187,.068-.479,.085-.294,.017-.594,.005-.9-.035s-.483-.11-.53-.21c-.033-.026-.048-.142-.045-.345,.004-.204,.014-.397,.03-.58,.017-.184,.037-.417,.061-.7,.022-.283,.038-.519,.045-.705l.1-2.65-.3,.471c-.113,.159-.197,.233-.25,.22-.087-.033-.21-.115-.37-.245s-.304-.28-.43-.45c-.127-.17-.174-.308-.141-.415,.054-.16,.227-.366,.521-.62,.293-.253,.59-.433,.89-.54,.333-.093,.688-.111,1.065-.055,.376,.057,.602,.132,.675,.225Z"/><path d="M27.12,34.028c.14,.06,.21,.536,.21,1.43,0,.14-.267,.264-.8,.37-.273,.054-.614,.08-1.021,.08s-.821-.014-1.245-.04c-.423-.026-.678-.04-.765-.04-.12,0-.195-.208-.226-.625-.029-.417,.006-.719,.105-.905,.24-.5,.597-1.03,1.07-1.59,.093-.106,.206-.248,.34-.425,.133-.177,.26-.349,.38-.516,.12-.166,.19-.263,.21-.29,.073-.086,.1-.196,.08-.329-.021-.134-.077-.21-.17-.23-.047-.007-.085,.014-.115,.06-.03,.047-.05,.103-.06,.165-.011,.063-.023,.136-.04,.216s-.039,.137-.065,.17c-.066,.08-.276,.086-.63,.02s-.573-.144-.66-.229c-.04-.094-.06-.264-.06-.511s.029-.526,.09-.84c.06-.313,.137-.52,.229-.62,.167-.193,.344-.321,.53-.385s.457-.095,.811-.095c.333,0,.653,.113,.96,.34s.506,.477,.6,.75c.054,.146,.104,.335,.15,.565,.046,.229,.081,.489,.104,.779s-.002,.512-.075,.665c-.1,.214-.248,.459-.444,.735-.197,.276-.391,.523-.58,.74-.19,.217-.36,.401-.511,.555-.149,.153-.238,.236-.265,.25,.014-.007,.031-.012,.055-.015,.023-.004,.07-.014,.141-.03,.069-.017,.14-.033,.21-.05s.153-.035,.25-.056c.097-.02,.189-.036,.28-.05,.09-.013,.183-.026,.279-.04,.097-.013,.186-.021,.266-.024,.08-.004,.154-.002,.225,.005s.122,.02,.155,.04Z"/><path d="M26.98,44.398c.166,.166,.32,.376,.46,.63,.087,.153,.121,.363,.104,.63s-.05,.51-.1,.729c-.05,.221-.104,.4-.165,.54-.113,.261-.347,.5-.7,.721-.354,.22-.727,.329-1.12,.329-.406,0-.718-.031-.935-.095s-.425-.188-.625-.375c-.153-.146-.283-.395-.39-.745-.107-.35-.137-.585-.091-.705,.054-.14,.296-.284,.726-.435s.682-.182,.755-.095c.033,.04,.083,.142,.15,.305,.066,.163,.136,.305,.21,.425,.073,.12,.143,.177,.21,.17,.113-.026,.163-.22,.149-.58-.013-.359-.063-.586-.149-.68-.027-.033-.087-.055-.181-.065-.093-.01-.187-.016-.279-.02-.094-.003-.181-.021-.261-.055s-.123-.084-.13-.15c-.02-.113-.031-.255-.035-.425-.003-.17,.019-.321,.065-.455,.047-.087,.215-.161,.505-.225s.452-.119,.485-.165c.073-.094,.109-.237,.109-.431s-.046-.303-.14-.33c-.06-.013-.104,.017-.13,.091-.026,.073-.05,.163-.07,.27-.02,.106-.047,.184-.08,.23-.066,.079-.276,.086-.63,.02s-.569-.144-.649-.23c-.047-.086-.07-.25-.07-.489s.031-.511,.095-.811,.139-.5,.226-.6c.113-.127,.229-.222,.35-.285s.255-.108,.405-.135c.149-.026,.345-.04,.585-.04,.227,0,.451,.054,.675,.16s.411,.238,.565,.395c.152,.157,.26,.322,.319,.495,.054,.134,.102,.312,.146,.535,.043,.224,.071,.467,.085,.729,.013,.264-.017,.472-.09,.625-.114,.233-.233,.431-.36,.591Z"/><path d="M27.39,54.477c.053,.034,.09,.474,.109,1.32,.021,.847,.023,1.367,.011,1.561-.007,.053-.016,.276-.025,.67s-.021,.774-.035,1.145-.023,.572-.03,.605c-.02,.073-.281,.111-.784,.114-.504,.004-.775-.034-.815-.114-.02-.101-.025-.197-.015-.29,.01-.094,.028-.264,.055-.511,.026-.246,.04-.463,.04-.649,.007-.566-.014-.873-.06-.92-.027-.026-.391-.04-1.091-.04s-1.069-.01-1.109-.03c-.061-.026-.119-.205-.175-.535-.058-.33-.079-.545-.065-.645,.007-.033,.05-.141,.13-.32s.187-.405,.32-.675c.133-.271,.263-.505,.39-.705,.08-.133,.162-.28,.245-.44,.083-.159,.15-.3,.2-.42s.1-.231,.149-.335c.051-.103,.097-.182,.141-.234,.043-.054,.085-.08,.125-.08,.146,0,.354,.115,.625,.345,.27,.23,.411,.385,.425,.465,0,.033-.087,.24-.26,.62-.174,.38-.347,.754-.521,1.12l-.27,.55,.75,.01c.033-.006,.045-.253,.035-.739-.011-.487,.008-.743,.055-.771,.073-.04,.315-.071,.725-.095,.41-.023,.652-.015,.726,.024Z"/><path d="M25.535,67.408c.094,.02,.164,.033,.21,.04,.047,.007,.119,.024,.216,.055s.175,.061,.234,.09c.061,.03,.134,.073,.221,.13,.086,.057,.161,.12,.225,.19s.13,.158,.2,.265c.069,.107,.135,.224,.194,.351,.08,.187,.131,.432,.15,.734,.021,.304,.019,.579-.005,.825-.023,.247-.055,.437-.095,.57-.094,.293-.205,.538-.335,.734-.131,.197-.277,.342-.44,.436s-.32,.158-.47,.195c-.15,.036-.322,.055-.516,.055-.319,0-.619-.061-.899-.18-.28-.12-.504-.28-.67-.48-.054-.06-.102-.139-.146-.235-.043-.096-.08-.206-.109-.33-.03-.123-.054-.227-.07-.31s-.035-.185-.055-.305c-.021-.12-.03-.184-.03-.19-.014-.073,.078-.165,.274-.274,.197-.11,.405-.195,.625-.256,.221-.06,.351-.062,.391-.01,.013,.027,.047,.125,.1,.295,.054,.17,.127,.312,.221,.425,.093,.114,.216,.164,.369,.15,.021,0,.04-.005,.061-.015,.02-.011,.036-.023,.05-.04s.025-.035,.035-.056c.01-.02,.019-.046,.024-.079,.007-.034,.012-.063,.016-.091,.003-.026,.008-.06,.015-.1s.01-.073,.01-.1c0-.027,.002-.063,.006-.11,.003-.047,.008-.08,.015-.1,.007-.134-.068-.301-.225-.5-.157-.2-.375-.351-.655-.45-.233-.087-.429-.198-.585-.335-.157-.137-.259-.252-.306-.346-.086-.187-.058-.728,.085-1.625,.144-.896,.275-1.361,.396-1.395,.206-.066,.767-.07,1.68-.01,.193,.013,.375,.015,.545,.005s.318-.01,.445,0,.2,.035,.22,.075c.066,.14,.066,.448,0,.925s-.149,.722-.25,.734c-.153,.021-.335,.03-.545,.03s-.404-.007-.585-.02l-.27-.021c0,.007-.002,.016-.005,.025-.004,.01-.011,.028-.021,.055s-.019,.054-.024,.08c-.007,.026-.014,.059-.021,.095-.007,.037-.012,.072-.015,.105-.004,.033-.005,.066-.005,.1s.005,.063,.015,.09c.01,.027,.023,.049,.04,.065s.038,.028,.064,.035Z"/><path d="M26.89,80.078c.16,.12,.275,.394,.346,.82,.069,.427,.098,.829,.085,1.21-.014,.38-.04,.646-.08,.8-.073,.273-.29,.51-.65,.71-.359,.2-.75,.316-1.17,.35-.52,.04-.955-.1-1.305-.42-.351-.32-.578-.76-.686-1.32-.04-.187-.073-.516-.1-.989s-.015-1.025,.035-1.655,.158-1.092,.325-1.385c.013-.021,.05-.084,.109-.19,.061-.106,.104-.182,.13-.225,.027-.044,.072-.113,.136-.21,.062-.097,.116-.17,.16-.221,.043-.05,.102-.111,.175-.185s.143-.128,.21-.165c.066-.036,.142-.068,.225-.095s.172-.04,.266-.04c.819,0,1.38,.16,1.68,.479,.093,.107,.173,.317,.24,.63,.066,.313,.1,.596,.1,.846s-.023,.422-.07,.515c-.093,.087-.34,.165-.739,.235-.4,.069-.637,.062-.71-.025-.034-.04-.061-.121-.08-.245-.021-.123-.045-.227-.075-.31s-.075-.118-.135-.105c-.054,.014-.117,.33-.19,.95,.88-.066,1.47,.014,1.77,.24Zm-1.289,2.149c.093-.013,.147-.156,.164-.43s-.015-.456-.095-.55c-.06-.073-.273-.12-.64-.14,.02,.233,.064,.439,.135,.619,.07,.181,.146,.312,.225,.396,.08,.083,.15,.118,.211,.104Z"/><path d="M23.625,89.108c.181-.101,.547-.153,1.101-.16,.553-.007,1.083,.021,1.59,.085s.793,.139,.859,.225c.067,.087,.101,.207,.101,.36s-.023,.318-.07,.495-.106,.378-.18,.604-.146,.445-.22,.655c-.074,.21-.139,.437-.195,.68-.057,.244-.092,.462-.105,.655-.013,.347-.02,.696-.02,1.05s.005,.67,.015,.95,.012,.52,.005,.72-.023,.323-.05,.37c-.026,.04-.189,.07-.49,.09-.3,.021-.604,.012-.915-.024-.31-.037-.491-.105-.545-.205-.026-.167-.028-.342-.005-.525,.023-.183,.062-.472,.115-.865,.054-.393,.083-.71,.09-.949,.007-.307,.047-.67,.12-1.091,.073-.42,.144-.766,.21-1.039l.1-.4c-1.073,.073-1.643,.07-1.71-.01-.033-.04-.053-.186-.06-.436s.012-.506,.055-.77c.044-.264,.112-.419,.205-.465Z"/><path d="M26.83,104.457c.22,.227,.37,.437,.45,.63,.133,.32,.151,.78,.055,1.38-.097,.601-.245,.967-.445,1.101-.253,.173-.483,.295-.689,.364-.207,.07-.497,.105-.87,.105h-.021c-.38,0-.678-.037-.895-.11s-.438-.193-.665-.359c-.167-.12-.295-.335-.385-.646-.09-.31-.134-.632-.13-.965,.003-.333,.041-.623,.114-.87,.021-.04,.042-.085,.065-.135s.043-.09,.06-.12,.046-.068,.085-.115c.04-.046,.067-.076,.08-.09l.17-.17c-.126-.16-.246-.356-.359-.59-.101-.26-.129-.629-.085-1.105,.043-.477,.115-.808,.215-.995,.16-.306,.405-.529,.735-.67,.33-.14,.665-.196,1.005-.17,.466,.047,.848,.167,1.145,.36s.492,.424,.585,.689c.047,.134,.092,.312,.135,.535,.044,.224,.074,.469,.091,.735,.017,.267-.016,.474-.096,.62-.106,.233-.223,.43-.35,.59Zm-1.01,1.34c.033-.246-.016-.455-.146-.625s-.281-.222-.455-.155c-.133,.047-.229,.16-.285,.341-.057,.18-.074,.363-.055,.55,.021,.187,.071,.354,.155,.5,.083,.146,.178,.22,.285,.22,.066,0,.123-.007,.17-.02,.046-.014,.086-.04,.12-.08,.033-.04,.062-.077,.085-.11s.041-.081,.055-.145,.023-.113,.03-.15c.006-.036,.013-.094,.02-.17,.007-.077,.014-.128,.021-.155Zm-.601-3.02c-.16,.007-.263,.153-.31,.439-.047,.287-.021,.497,.08,.63,.04,.054,.137,.087,.29,.101s.253-.021,.3-.101c.047-.1,.073-.233,.08-.399,.007-.167-.026-.322-.101-.465-.073-.144-.187-.212-.34-.205Z"/><path d="M25.22,112.938c.261-.021,.504,.008,.73,.085,.227,.076,.423,.191,.59,.345s.307,.34,.42,.56c.113,.221,.196,.467,.25,.74,.04,.187,.073,.517,.101,.99,.026,.474,.015,1.024-.035,1.655-.05,.63-.159,1.091-.325,1.385-.014,.02-.05,.083-.11,.189-.06,.107-.104,.182-.13,.226-.026,.043-.071,.114-.135,.215-.063,.1-.117,.173-.16,.22s-.102,.106-.175,.18c-.073,.074-.144,.129-.21,.165-.066,.037-.144,.068-.23,.096-.086,.026-.173,.04-.26,.04-.826,0-1.387-.16-1.68-.48-.146-.153-.25-.443-.311-.87-.06-.427-.047-.673,.04-.739,.087-.087,.332-.165,.735-.235s.639-.065,.705,.015c.033,.047,.06,.132,.08,.255,.02,.124,.045,.228,.075,.311,.029,.083,.074,.118,.135,.104,.013,0,.026-.028,.04-.085,.013-.057,.028-.14,.045-.25,.017-.109,.03-.211,.04-.305s.023-.215,.04-.365c.017-.149,.028-.255,.035-.314-.881,.06-1.471-.021-1.771-.24-.167-.127-.283-.401-.35-.825-.067-.423-.094-.825-.08-1.205,.013-.38,.04-.649,.08-.81,.066-.273,.281-.509,.645-.705s.755-.312,1.175-.345Zm-.25,2.72c.061,.066,.273,.109,.641,.13-.047-.594-.197-.87-.45-.83-.1,.02-.177,.117-.23,.29-.053,.174-.04,.31,.04,.41Z"/><path d="M24.506,125.227c.047,.054,.075,.195,.085,.426,.01,.229,.007,.486-.01,.77s-.032,.642-.045,1.075c-.014,.434-.014,.82,0,1.16,.006,.22,.017,.496,.029,.83,.014,.333,.025,.609,.035,.83,.01,.22,.017,.443,.021,.67,.003,.227,0,.406-.011,.54-.01,.133-.024,.217-.045,.25-.026,.04-.187,.068-.479,.085-.294,.017-.594,.005-.9-.035s-.483-.11-.53-.21c-.033-.026-.048-.142-.045-.345,.004-.204,.014-.397,.03-.58,.017-.184,.037-.417,.061-.7,.022-.283,.038-.519,.045-.705l.1-2.65-.3,.471c-.113,.159-.197,.233-.25,.22-.087-.033-.21-.115-.37-.245s-.304-.28-.43-.45c-.127-.17-.174-.308-.141-.415,.054-.16,.227-.366,.521-.62,.293-.253,.59-.433,.89-.54,.333-.093,.688-.111,1.065-.055,.376,.057,.602,.132,.675,.225Z"/><path d="M28.235,125.127c.213,.066,.42,.245,.62,.535s.356,.611,.47,.965,.187,.697,.22,1.03c.014,.14,.025,.295,.035,.465,.011,.17,.012,.395,.005,.675-.006,.28-.024,.55-.055,.811-.03,.26-.085,.529-.165,.81s-.18,.523-.3,.73c-.12,.206-.28,.378-.48,.515-.199,.137-.433,.212-.699,.225-.707,.04-1.277-.029-1.71-.21-.434-.18-.757-.523-.971-1.029-.1-.233-.166-.58-.199-1.04-.034-.46-.035-.934-.006-1.42,.03-.487,.099-.961,.205-1.421s.24-.8,.4-1.02c.547-.747,1.423-.953,2.63-.62Zm-.81,5.14c.073-.006,.133-.104,.18-.295,.047-.189,.075-.426,.085-.71,.01-.283,.015-.518,.015-.705v-.5c-.007-.146-.023-.296-.05-.449s-.06-.283-.1-.391c-.04-.106-.08-.177-.12-.21-.061-.04-.144-.007-.25,.101-.106,.106-.193,.253-.26,.439-.054,.167-.084,.469-.091,.905-.006,.437,.004,.774,.03,1.015,.026,.254,.095,.455,.205,.605,.11,.149,.229,.215,.355,.194Z"/><path d="M24.961,137.227c.047,.054,.075,.195,.085,.426,.01,.229,.007,.486-.01,.77s-.032,.642-.045,1.075c-.014,.434-.014,.82,0,1.16,.006,.22,.017,.496,.029,.83,.014,.333,.025,.609,.035,.83,.01,.22,.017,.443,.021,.67,.003,.227,0,.406-.011,.54-.01,.133-.024,.217-.045,.25-.026,.04-.187,.068-.479,.085-.294,.017-.594,.005-.9-.035s-.483-.11-.53-.21c-.033-.026-.048-.142-.045-.345,.004-.204,.014-.397,.03-.58,.017-.184,.037-.417,.061-.7,.022-.283,.038-.519,.045-.705l.1-2.65-.3,.471c-.113,.159-.197,.233-.25,.22-.087-.033-.21-.115-.37-.245s-.304-.28-.43-.45c-.127-.17-.174-.308-.141-.415,.054-.16,.227-.366,.521-.62,.293-.253,.59-.433,.89-.54,.333-.093,.688-.111,1.065-.055,.376,.057,.602,.132,.675,.225Z"/><path d="M28.98,137.227c.047,.054,.075,.195,.085,.426,.01,.229,.007,.486-.01,.77s-.032,.642-.045,1.075c-.014,.434-.014,.82,0,1.16,.006,.22,.017,.496,.029,.83,.014,.333,.025,.609,.035,.83,.01,.22,.017,.443,.021,.67,.003,.227,0,.406-.011,.54-.01,.133-.024,.217-.045,.25-.026,.04-.187,.068-.479,.085-.294,.017-.594,.005-.9-.035s-.483-.11-.53-.21c-.033-.026-.048-.142-.045-.345,.004-.204,.014-.397,.03-.58,.017-.184,.037-.417,.061-.7,.022-.283,.038-.519,.045-.705l.1-2.65-.3,.471c-.113,.159-.197,.233-.25,.22-.087-.033-.21-.115-.37-.245s-.304-.28-.43-.45c-.127-.17-.174-.308-.141-.415,.054-.16,.227-.366,.521-.62,.293-.253,.59-.433,.89-.54,.333-.093,.688-.111,1.065-.055,.376,.057,.602,.132,.675,.225Z"/><path d="M24.78,149.227c.047,.054,.075,.195,.085,.426,.01,.229,.007,.486-.01,.77s-.032,.642-.045,1.075c-.014,.434-.014,.82,0,1.16,.006,.22,.017,.496,.029,.83,.014,.333,.025,.609,.035,.83,.01,.22,.017,.443,.021,.67,.003,.227,0,.406-.011,.54-.01,.133-.024,.217-.045,.25-.026,.04-.187,.068-.479,.085-.294,.017-.594,.005-.9-.035s-.483-.11-.53-.21c-.033-.026-.048-.142-.045-.345,.004-.204,.014-.397,.03-.58,.017-.184,.037-.417,.061-.7,.022-.283,.038-.519,.045-.705l.1-2.65-.3,.471c-.113,.159-.197,.233-.25,.22-.087-.033-.21-.115-.37-.245s-.304-.28-.43-.45c-.127-.17-.174-.308-.141-.415,.054-.16,.227-.366,.521-.62,.293-.253,.59-.433,.89-.54,.333-.093,.688-.111,1.065-.055,.376,.057,.602,.132,.675,.225Z"/><path d="M29.13,154.028c.14,.06,.21,.536,.21,1.43,0,.14-.267,.264-.8,.37-.273,.054-.614,.08-1.021,.08s-.821-.014-1.245-.04c-.423-.026-.678-.04-.765-.04-.12,0-.195-.208-.226-.625-.029-.417,.006-.719,.105-.905,.24-.5,.597-1.03,1.07-1.59,.093-.106,.206-.248,.34-.425,.133-.177,.26-.349,.38-.516,.12-.166,.19-.263,.21-.29,.073-.086,.1-.196,.08-.329-.021-.134-.077-.21-.17-.23-.047-.007-.085,.014-.115,.06-.03,.047-.05,.103-.06,.165-.011,.063-.023,.136-.04,.216s-.039,.137-.065,.17c-.066,.08-.276,.086-.63,.02s-.573-.144-.66-.229c-.04-.094-.06-.264-.06-.511s.029-.526,.09-.84c.06-.313,.137-.52,.229-.62,.167-.193,.344-.321,.53-.385s.457-.095,.811-.095c.333,0,.653,.113,.96,.34s.506,.477,.6,.75c.054,.146,.104,.335,.15,.565,.046,.229,.081,.489,.104,.779s-.002,.512-.075,.665c-.1,.214-.248,.459-.444,.735-.197,.276-.391,.523-.58,.74-.19,.217-.36,.401-.511,.555-.149,.153-.238,.236-.265,.25,.014-.007,.031-.012,.055-.015,.023-.004,.07-.014,.141-.03,.069-.017,.14-.033,.21-.05s.153-.035,.25-.056c.097-.02,.189-.036,.28-.05,.09-.013,.183-.026,.279-.04,.097-.013,.186-.021,.266-.024,.08-.004,.154-.002,.225,.005s.122,.02,.155,.04Z"/><path d="M24.725,161.227c.047,.054,.075,.195,.085,.426,.01,.229,.007,.486-.01,.77s-.032,.642-.045,1.075c-.014,.434-.014,.82,0,1.16,.006,.22,.017,.496,.029,.83,.014,.333,.025,.609,.035,.83,.01,.22,.017,.443,.021,.67,.003,.227,0,.406-.011,.54-.01,.133-.024,.217-.045,.25-.026,.04-.187,.068-.479,.085-.294,.017-.594,.005-.9-.035s-.483-.11-.53-.21c-.033-.026-.048-.142-.045-.345,.004-.204,.014-.397,.03-.58,.017-.184,.037-.417,.061-.7,.022-.283,.038-.519,.045-.705l.1-2.65-.3,.471c-.113,.159-.197,.233-.25,.22-.087-.033-.21-.115-.37-.245s-.304-.28-.43-.45c-.127-.17-.174-.308-.141-.415,.054-.16,.227-.366,.521-.62,.293-.253,.59-.433,.89-.54,.333-.093,.688-.111,1.065-.055,.376,.057,.602,.132,.675,.225Z"/><path d="M28.815,164.398c.166,.166,.32,.376,.46,.63,.087,.153,.121,.363,.104,.63s-.05,.51-.1,.729c-.05,.221-.104,.4-.165,.54-.113,.261-.347,.5-.7,.721-.354,.22-.727,.329-1.12,.329-.406,0-.718-.031-.935-.095s-.425-.188-.625-.375c-.153-.146-.283-.395-.39-.745-.107-.35-.137-.585-.091-.705,.054-.14,.296-.284,.726-.435s.682-.182,.755-.095c.033,.04,.083,.142,.15,.305,.066,.163,.136,.305,.21,.425,.073,.12,.143,.177,.21,.17,.113-.026,.163-.22,.149-.58-.013-.359-.063-.586-.149-.68-.027-.033-.087-.055-.181-.065-.093-.01-.187-.016-.279-.02-.094-.003-.181-.021-.261-.055s-.123-.084-.13-.15c-.02-.113-.031-.255-.035-.425-.003-.17,.019-.321,.065-.455,.047-.087,.215-.161,.505-.225s.452-.119,.485-.165c.073-.094,.109-.237,.109-.431s-.046-.303-.14-.33c-.06-.013-.104,.017-.13,.091-.026,.073-.05,.163-.07,.27-.02,.106-.047,.184-.08,.23-.066,.079-.276,.086-.63,.02s-.569-.144-.649-.23c-.047-.086-.07-.25-.07-.489s.031-.511,.095-.811,.139-.5,.226-.6c.113-.127,.229-.222,.35-.285s.255-.108,.405-.135c.149-.026,.345-.04,.585-.04,.227,0,.451,.054,.675,.16s.411,.238,.565,.395c.152,.157,.26,.322,.319,.495,.054,.134,.102,.312,.146,.535,.043,.224,.071,.467,.085,.729,.013,.264-.017,.472-.09,.625-.114,.233-.233,.431-.36,.591Z"/><path d="M24.73,173.227c.047,.054,.075,.195,.085,.426,.01,.229,.007,.486-.01,.77s-.032,.642-.045,1.075c-.014,.434-.014,.82,0,1.16,.006,.22,.017,.496,.029,.83,.014,.333,.025,.609,.035,.83,.01,.22,.017,.443,.021,.67,.003,.227,0,.406-.011,.54-.01,.133-.024,.217-.045,.25-.026,.04-.187,.068-.479,.085-.294,.017-.594,.005-.9-.035s-.483-.11-.53-.21c-.033-.026-.048-.142-.045-.345,.004-.204,.014-.397,.03-.58,.017-.184,.037-.417,.061-.7,.022-.283,.038-.519,.045-.705l.1-2.65-.3,.471c-.113,.159-.197,.233-.25,.22-.087-.033-.21-.115-.37-.245s-.304-.28-.43-.45c-.127-.17-.174-.308-.141-.415,.054-.16,.227-.366,.521-.62,.293-.253,.59-.433,.89-.54,.333-.093,.688-.111,1.065-.055,.376,.057,.602,.132,.675,.225Z"/><path d="M29.221,174.477c.053,.034,.09,.474,.109,1.32,.021,.847,.023,1.367,.011,1.561-.007,.053-.016,.276-.025,.67s-.021,.774-.035,1.145-.023,.572-.03,.605c-.02,.073-.281,.111-.784,.114-.504,.004-.775-.034-.815-.114-.02-.101-.025-.197-.015-.29,.01-.094,.028-.264,.055-.511,.026-.246,.04-.463,.04-.649,.007-.566-.014-.873-.06-.92-.027-.026-.391-.04-1.091-.04s-1.069-.01-1.109-.03c-.061-.026-.119-.205-.175-.535-.058-.33-.079-.545-.065-.645,.007-.033,.05-.141,.13-.32s.187-.405,.32-.675c.133-.271,.263-.505,.39-.705,.08-.133,.162-.28,.245-.44,.083-.159,.15-.3,.2-.42s.1-.231,.149-.335c.051-.103,.097-.182,.141-.234,.043-.054,.085-.08,.125-.08,.146,0,.354,.115,.625,.345,.27,.23,.411,.385,.425,.465,0,.033-.087,.24-.26,.62-.174,.38-.347,.754-.521,1.12l-.27,.55,.75,.01c.033-.006,.045-.253,.035-.739-.011-.487,.008-.743,.055-.771,.073-.04,.315-.071,.725-.095,.41-.023,.652-.015,.726,.024Z"/><path d="M24.915,185.227c.047,.054,.075,.195,.085,.426,.01,.229,.007,.486-.01,.77s-.032,.642-.045,1.075c-.014,.434-.014,.82,0,1.16,.006,.22,.017,.496,.029,.83,.014,.333,.025,.609,.035,.83,.01,.22,.017,.443,.021,.67,.003,.227,0,.406-.011,.54-.01,.133-.024,.217-.045,.25-.026,.04-.187,.068-.479,.085-.294,.017-.594,.005-.9-.035s-.483-.11-.53-.21c-.033-.026-.048-.142-.045-.345,.004-.204,.014-.397,.03-.58,.017-.184,.037-.417,.061-.7,.022-.283,.038-.519,.045-.705l.1-2.65-.3,.471c-.113,.159-.197,.233-.25,.22-.087-.033-.21-.115-.37-.245s-.304-.28-.43-.45c-.127-.17-.174-.308-.141-.415,.054-.16,.227-.366,.521-.62,.293-.253,.59-.433,.89-.54,.333-.093,.688-.111,1.065-.055,.376,.057,.602,.132,.675,.225Z"/><path d="M27.505,187.408c.094,.02,.164,.033,.21,.04,.047,.007,.119,.024,.216,.055s.175,.061,.234,.09c.061,.03,.134,.073,.221,.13,.086,.057,.161,.12,.225,.19s.13,.158,.2,.265c.069,.107,.135,.224,.194,.351,.08,.187,.131,.432,.15,.734,.021,.304,.019,.579-.005,.825-.023,.247-.055,.437-.095,.57-.094,.293-.205,.538-.335,.734-.131,.197-.277,.342-.44,.436s-.32,.158-.47,.195c-.15,.036-.322,.055-.516,.055-.319,0-.619-.061-.899-.18-.28-.12-.504-.28-.67-.48-.054-.06-.102-.139-.146-.235-.043-.096-.08-.206-.109-.33-.03-.123-.054-.227-.07-.31-.017-.083-.035-.185-.055-.305-.021-.12-.03-.184-.03-.19-.014-.073,.078-.165,.274-.274,.197-.11,.405-.195,.625-.256,.221-.06,.351-.062,.391-.01,.013,.027,.047,.125,.1,.295,.054,.17,.127,.312,.221,.425,.093,.114,.216,.164,.369,.15,.021,0,.04-.005,.061-.015,.02-.011,.036-.023,.05-.04s.025-.035,.035-.056c.01-.02,.019-.046,.024-.079,.007-.034,.012-.063,.016-.091,.003-.026,.008-.06,.015-.1s.01-.073,.01-.1c0-.027,.002-.063,.006-.11,.003-.047,.008-.08,.015-.1,.007-.134-.068-.301-.225-.5-.157-.2-.375-.351-.655-.45-.233-.087-.429-.198-.585-.335-.157-.137-.259-.252-.306-.346-.086-.187-.058-.728,.085-1.625,.144-.896,.275-1.361,.396-1.395,.206-.066,.767-.07,1.68-.01,.193,.013,.375,.015,.545,.005s.318-.01,.445,0,.2,.035,.22,.075c.066,.14,.066,.448,0,.925s-.149,.722-.25,.734c-.153,.021-.335,.03-.545,.03s-.404-.007-.585-.02l-.27-.021c0,.007-.002,.016-.005,.025-.004,.01-.011,.028-.021,.055s-.019,.054-.024,.08c-.007,.026-.014,.059-.021,.095-.007,.037-.012,.072-.015,.105-.004,.033-.005,.066-.005,.1s.005,.063,.015,.09c.01,.027,.023,.049,.04,.065s.038,.028,.064,.035Z"/><path d="M24.815,197.227c.047,.054,.075,.195,.085,.426,.01,.229,.007,.486-.01,.77s-.032,.642-.045,1.075c-.014,.434-.014,.82,0,1.16,.006,.22,.017,.496,.029,.83,.014,.333,.025,.609,.035,.83,.01,.22,.017,.443,.021,.67,.003,.227,0,.406-.011,.54-.01,.133-.024,.217-.045,.25-.026,.04-.187,.068-.479,.085-.294,.017-.594,.005-.9-.035s-.483-.11-.53-.21c-.033-.026-.048-.142-.045-.345,.004-.204,.014-.397,.03-.58,.017-.184,.037-.417,.061-.7,.022-.283,.038-.519,.045-.705l.1-2.65-.3,.471c-.113,.159-.197,.233-.25,.22-.087-.033-.21-.115-.37-.245s-.304-.28-.43-.45c-.127-.17-.174-.308-.141-.415,.054-.16,.227-.366,.521-.62,.293-.253,.59-.433,.89-.54,.333-.093,.688-.111,1.065-.055,.376,.057,.602,.132,.675,.225Z"/><path d="M28.854,200.078c.16,.12,.275,.394,.346,.82,.069,.427,.098,.829,.085,1.21-.014,.38-.04,.646-.08,.8-.073,.273-.29,.51-.65,.71-.359,.2-.75,.316-1.17,.35-.52,.04-.955-.1-1.305-.42-.351-.32-.578-.76-.686-1.32-.04-.187-.073-.516-.1-.989s-.015-1.025,.035-1.655,.158-1.092,.325-1.385c.013-.021,.05-.084,.109-.19,.061-.106,.104-.182,.13-.225,.027-.044,.072-.113,.136-.21,.062-.097,.116-.17,.16-.221,.043-.05,.102-.111,.175-.185,.073-.073,.143-.128,.21-.165,.066-.036,.142-.068,.225-.095s.172-.04,.266-.04c.819,0,1.38,.16,1.68,.479,.093,.107,.173,.317,.24,.63,.066,.313,.1,.596,.1,.846s-.023,.422-.07,.515c-.093,.087-.34,.165-.739,.235-.4,.069-.637,.062-.71-.025-.034-.04-.061-.121-.08-.245-.021-.123-.045-.227-.075-.31s-.075-.118-.135-.105c-.054,.014-.117,.33-.19,.95,.88-.066,1.47,.014,1.77,.24Zm-1.289,2.149c.093-.013,.147-.156,.164-.43s-.015-.456-.095-.55c-.06-.073-.273-.12-.64-.14,.02,.233,.064,.439,.135,.619,.07,.181,.146,.312,.225,.396,.08,.083,.15,.118,.211,.104Z"/><path d="M24.695,209.227c.047,.054,.075,.195,.085,.426,.01,.229,.007,.486-.01,.77s-.032,.642-.045,1.075c-.014,.434-.014,.82,0,1.16,.006,.22,.017,.496,.029,.83,.014,.333,.025,.609,.035,.83,.01,.22,.017,.443,.021,.67,.003,.227,0,.406-.011,.54-.01,.133-.024,.217-.045,.25-.026,.04-.187,.068-.479,.085-.294,.017-.594,.005-.9-.035s-.483-.11-.53-.21c-.033-.026-.048-.142-.045-.345,.004-.204,.014-.397,.03-.58,.017-.184,.037-.417,.061-.7,.022-.283,.038-.519,.045-.705l.1-2.65-.3,.471c-.113,.159-.197,.233-.25,.22-.087-.033-.21-.115-.37-.245s-.304-.28-.43-.45c-.127-.17-.174-.308-.141-.415,.054-.16,.227-.366,.521-.62,.293-.253,.59-.433,.89-.54,.333-.093,.688-.111,1.065-.055,.376,.057,.602,.132,.675,.225Z"/><path d="M25.455,209.108c.181-.101,.547-.153,1.101-.16,.553-.007,1.083,.021,1.59,.085s.793,.139,.859,.225c.067,.087,.101,.207,.101,.36s-.023,.318-.07,.495-.106,.378-.18,.604-.146,.445-.22,.655c-.074,.21-.139,.437-.195,.68-.057,.244-.092,.462-.105,.655-.013,.347-.02,.696-.02,1.05s.005,.67,.015,.95,.012,.52,.005,.72-.023,.323-.05,.37c-.026,.04-.189,.07-.49,.09-.3,.021-.604,.012-.915-.024-.31-.037-.491-.105-.545-.205-.026-.167-.028-.342-.005-.525,.023-.183,.062-.472,.115-.865,.054-.393,.083-.71,.09-.949,.007-.307,.047-.67,.12-1.091,.073-.42,.144-.766,.21-1.039l.1-.4c-1.073,.073-1.643,.07-1.71-.01-.033-.04-.053-.186-.06-.436s.012-.506,.055-.77c.044-.264,.112-.419,.205-.465Z"/><path d="M24.725,221.227c.047,.054,.075,.195,.085,.426,.01,.229,.007,.486-.01,.77s-.032,.642-.045,1.075c-.014,.434-.014,.82,0,1.16,.006,.22,.017,.496,.029,.83,.014,.333,.025,.609,.035,.83,.01,.22,.017,.443,.021,.67,.003,.227,0,.406-.011,.54-.01,.133-.024,.217-.045,.25-.026,.04-.187,.068-.479,.085-.294,.017-.594,.005-.9-.035s-.483-.11-.53-.21c-.033-.026-.048-.142-.045-.345,.004-.204,.014-.397,.03-.58,.017-.184,.037-.417,.061-.7,.022-.283,.038-.519,.045-.705l.1-2.65-.3,.471c-.113,.159-.197,.233-.25,.22-.087-.033-.21-.115-.37-.245s-.304-.28-.43-.45c-.127-.17-.174-.308-.141-.415,.054-.16,.227-.366,.521-.62,.293-.253,.59-.433,.89-.54,.333-.093,.688-.111,1.065-.055,.376,.057,.602,.132,.675,.225Z"/><path d="M28.806,224.457c.22,.227,.37,.437,.45,.63,.133,.32,.151,.78,.055,1.38-.097,.601-.245,.967-.445,1.101-.253,.173-.483,.295-.689,.364-.207,.07-.497,.105-.87,.105h-.021c-.38,0-.678-.037-.895-.11s-.438-.193-.665-.359c-.167-.12-.295-.335-.385-.646-.09-.31-.134-.632-.13-.965,.003-.333,.041-.623,.114-.87,.021-.04,.042-.085,.065-.135s.043-.09,.06-.12,.046-.068,.085-.115c.04-.046,.067-.076,.08-.09l.17-.17c-.126-.16-.246-.356-.359-.59-.101-.26-.129-.629-.085-1.105,.043-.477,.115-.808,.215-.995,.16-.306,.405-.529,.735-.67,.33-.14,.665-.196,1.005-.17,.466,.047,.848,.167,1.145,.36s.492,.424,.585,.689c.047,.134,.092,.312,.135,.535,.044,.224,.074,.469,.091,.735s-.016,.474-.096,.62c-.106,.233-.223,.43-.35,.59Zm-1.01,1.34c.033-.246-.016-.455-.146-.625s-.281-.222-.455-.155c-.133,.047-.229,.16-.285,.341-.057,.18-.074,.363-.055,.55,.021,.187,.071,.354,.155,.5,.083,.146,.178,.22,.285,.22,.066,0,.123-.007,.17-.02,.046-.014,.086-.04,.12-.08,.033-.04,.062-.077,.085-.11s.041-.081,.055-.145,.023-.113,.03-.15c.006-.036,.013-.094,.02-.17,.007-.077,.014-.128,.021-.155Zm-.601-3.02c-.16,.007-.263,.153-.31,.439-.047,.287-.021,.497,.08,.63,.04,.054,.137,.087,.29,.101s.253-.021,.3-.101c.047-.1,.073-.233,.08-.399,.007-.167-.026-.322-.101-.465-.073-.144-.187-.212-.34-.205Z"/><path d="M24.815,233.227c.047,.054,.075,.195,.085,.426,.01,.229,.007,.486-.01,.77s-.032,.642-.045,1.075c-.014,.434-.014,.82,0,1.16,.006,.22,.017,.496,.029,.83,.014,.333,.025,.609,.035,.83,.01,.22,.017,.443,.021,.67,.003,.227,0,.406-.011,.54-.01,.133-.024,.217-.045,.25-.026,.04-.187,.068-.479,.085-.294,.017-.594,.005-.9-.035s-.483-.11-.53-.21c-.033-.026-.048-.142-.045-.345,.004-.204,.014-.397,.03-.58,.017-.184,.037-.417,.061-.7,.022-.283,.038-.519,.045-.705l.1-2.65-.3,.471c-.113,.159-.197,.233-.25,.22-.087-.033-.21-.115-.37-.245s-.304-.28-.43-.45c-.127-.17-.174-.308-.141-.415,.054-.16,.227-.366,.521-.62,.293-.253,.59-.433,.89-.54,.333-.093,.688-.111,1.065-.055,.376,.057,.602,.132,.675,.225Z"/><path d="M27.184,232.938c.261-.021,.504,.008,.73,.085,.227,.076,.423,.191,.59,.345s.307,.34,.42,.56c.113,.221,.196,.467,.25,.74,.04,.187,.073,.517,.101,.99,.026,.474,.015,1.024-.035,1.655-.05,.63-.159,1.091-.325,1.385-.014,.02-.05,.083-.11,.189-.06,.107-.104,.182-.13,.226-.026,.043-.071,.114-.135,.215-.063,.1-.117,.173-.16,.22s-.102,.106-.175,.18c-.073,.074-.144,.129-.21,.165-.066,.037-.144,.068-.23,.096-.086,.026-.173,.04-.26,.04-.826,0-1.387-.16-1.68-.48-.146-.153-.25-.443-.311-.87-.06-.427-.047-.673,.04-.739,.087-.087,.332-.165,.735-.235s.639-.065,.705,.015c.033,.047,.06,.132,.08,.255,.02,.124,.045,.228,.075,.311,.029,.083,.074,.118,.135,.104,.013,0,.026-.028,.04-.085,.013-.057,.028-.14,.045-.25,.017-.109,.03-.211,.04-.305s.023-.215,.04-.365c.017-.149,.028-.255,.035-.314-.881,.06-1.471-.021-1.771-.24-.167-.127-.283-.401-.35-.825-.067-.423-.094-.825-.08-1.205,.013-.38,.04-.649,.08-.81,.066-.273,.281-.509,.645-.705s.755-.312,1.175-.345Zm-.25,2.72c.061,.066,.273,.109,.641,.13-.047-.594-.197-.87-.45-.83-.1,.02-.177,.117-.23,.29-.053,.174-.04,.31,.04,.41Z"/><path d="M24.721,250.028c.14,.06,.21,.536,.21,1.43,0,.14-.267,.264-.8,.37-.273,.054-.614,.08-1.021,.08s-.821-.014-1.245-.04c-.423-.026-.678-.04-.765-.04-.12,0-.195-.208-.226-.625-.029-.417,.006-.719,.105-.905,.24-.5,.597-1.03,1.07-1.59,.093-.106,.206-.248,.34-.425,.133-.177,.26-.349,.38-.516,.12-.166,.19-.263,.21-.29,.073-.086,.1-.196,.08-.329-.021-.134-.077-.21-.17-.23-.047-.007-.085,.014-.115,.06-.03,.047-.05,.103-.06,.165-.011,.063-.023,.136-.04,.216s-.039,.137-.065,.17c-.066,.08-.276,.086-.63,.02s-.573-.144-.66-.229c-.04-.094-.06-.264-.06-.511s.029-.526,.09-.84c.06-.313,.137-.52,.229-.62,.167-.193,.344-.321,.53-.385s.457-.095,.811-.095c.333,0,.653,.113,.96,.34s.506,.477,.6,.75c.054,.146,.104,.335,.15,.565,.046,.229,.081,.489,.104,.779s-.002,.512-.075,.665c-.1,.214-.248,.459-.444,.735-.197,.276-.391,.523-.58,.74-.19,.217-.36,.401-.511,.555-.149,.153-.238,.236-.265,.25,.014-.007,.031-.012,.055-.015,.023-.004,.07-.014,.141-.03,.069-.017,.14-.033,.21-.05s.153-.035,.25-.056c.097-.02,.189-.036,.28-.05,.09-.013,.183-.026,.279-.04,.097-.013,.186-.021,.266-.024,.08-.004,.154-.002,.225,.005s.122,.02,.155,.04Z"/><path d="M28.35,245.127c.213,.066,.42,.245,.62,.535s.356,.611,.47,.965,.187,.697,.22,1.03c.014,.14,.025,.295,.035,.465,.011,.17,.012,.395,.005,.675-.006,.28-.024,.55-.055,.811-.03,.26-.085,.529-.165,.81s-.18,.523-.3,.73c-.12,.206-.28,.378-.48,.515-.199,.137-.433,.212-.699,.225-.707,.04-1.277-.029-1.71-.21-.434-.18-.757-.523-.971-1.029-.1-.233-.166-.58-.199-1.04-.034-.46-.035-.934-.006-1.42,.03-.487,.099-.961,.205-1.421s.24-.8,.4-1.02c.547-.747,1.423-.953,2.63-.62Zm-.81,5.14c.073-.006,.133-.104,.18-.295,.047-.189,.075-.426,.085-.71,.01-.283,.015-.518,.015-.705v-.5c-.007-.146-.023-.296-.05-.449s-.06-.283-.1-.391c-.04-.106-.08-.177-.12-.21-.061-.04-.144-.007-.25,.101-.106,.106-.193,.253-.26,.439-.054,.167-.084,.469-.091,.905-.006,.437,.004,.774,.03,1.015,.026,.254,.095,.455,.205,.605,.11,.149,.229,.215,.355,.194Z"/><path d="M25.306,262.028c.14,.06,.21,.536,.21,1.43,0,.14-.267,.264-.8,.37-.273,.054-.614,.08-1.021,.08s-.821-.014-1.245-.04c-.423-.026-.678-.04-.765-.04-.12,0-.195-.208-.226-.625-.029-.417,.006-.719,.105-.905,.24-.5,.597-1.03,1.07-1.59,.093-.106,.206-.248,.34-.425,.133-.177,.26-.349,.38-.516,.12-.166,.19-.263,.21-.29,.073-.086,.1-.196,.08-.329-.021-.134-.077-.21-.17-.23-.047-.007-.085,.014-.115,.06-.03,.047-.05,.103-.06,.165-.011,.063-.023,.136-.04,.216s-.039,.137-.065,.17c-.066,.08-.276,.086-.63,.02s-.573-.144-.66-.229c-.04-.094-.06-.264-.06-.511s.029-.526,.09-.84c.06-.313,.137-.52,.229-.62,.167-.193,.344-.321,.53-.385s.457-.095,.811-.095c.333,0,.653,.113,.96,.34s.506,.477,.6,.75c.054,.146,.104,.335,.15,.565,.046,.229,.081,.489,.104,.779s-.002,.512-.075,.665c-.1,.214-.248,.459-.444,.735-.197,.276-.391,.523-.58,.74-.19,.217-.36,.401-.511,.555-.149,.153-.238,.236-.265,.25,.014-.007,.031-.012,.055-.015,.023-.004,.07-.014,.141-.03,.069-.017,.14-.033,.21-.05s.153-.035,.25-.056c.097-.02,.189-.036,.28-.05,.09-.013,.183-.026,.279-.04,.097-.013,.186-.021,.266-.024,.08-.004,.154-.002,.225,.005s.122,.02,.155,.04Z"/><path d="M28.966,257.227c.047,.054,.075,.195,.085,.426,.01,.229,.007,.486-.01,.77s-.032,.642-.045,1.075c-.014,.434-.014,.82,0,1.16,.006,.22,.017,.496,.029,.83,.014,.333,.025,.609,.035,.83,.01,.22,.017,.443,.021,.67,.003,.227,0,.406-.011,.54-.01,.133-.024,.217-.045,.25-.026,.04-.187,.068-.479,.085-.294,.017-.594,.005-.9-.035s-.483-.11-.53-.21c-.033-.026-.048-.142-.045-.345,.004-.204,.014-.397,.03-.58,.017-.184,.037-.417,.061-.7,.022-.283,.038-.519,.045-.705l.1-2.65-.3,.471c-.113,.159-.197,.233-.25,.22-.087-.033-.21-.115-.37-.245s-.304-.28-.43-.45c-.127-.17-.174-.308-.141-.415,.054-.16,.227-.366,.521-.62,.293-.253,.59-.433,.89-.54,.333-.093,.688-.111,1.065-.055,.376,.057,.602,.132,.675,.225Z"/><path d="M24.931,274.028c.14,.06,.21,.536,.21,1.43,0,.14-.267,.264-.8,.37-.273,.054-.614,.08-1.021,.08s-.821-.014-1.245-.04c-.423-.026-.678-.04-.765-.04-.12,0-.195-.208-.226-.625-.029-.417,.006-.719,.105-.905,.24-.5,.597-1.03,1.07-1.59,.093-.106,.206-.248,.34-.425,.133-.177,.26-.349,.38-.516,.12-.166,.19-.263,.21-.29,.073-.086,.1-.196,.08-.329-.021-.134-.077-.21-.17-.23-.047-.007-.085,.014-.115,.06-.03,.047-.05,.103-.06,.165-.011,.063-.023,.136-.04,.216s-.039,.137-.065,.17c-.066,.08-.276,.086-.63,.02s-.573-.144-.66-.229c-.04-.094-.06-.264-.06-.511s.029-.526,.09-.84c.06-.313,.137-.52,.229-.62,.167-.193,.344-.321,.53-.385s.457-.095,.811-.095c.333,0,.653,.113,.96,.34s.506,.477,.6,.75c.054,.146,.104,.335,.15,.565,.046,.229,.081,.489,.104,.779s-.002,.512-.075,.665c-.1,.214-.248,.459-.444,.735-.197,.276-.391,.523-.58,.74-.19,.217-.36,.401-.511,.555-.149,.153-.238,.236-.265,.25,.014-.007,.031-.012,.055-.015,.023-.004,.07-.014,.141-.03,.069-.017,.14-.033,.21-.05s.153-.035,.25-.056c.097-.02,.189-.036,.28-.05,.09-.013,.183-.026,.279-.04,.097-.013,.186-.021,.266-.024,.08-.004,.154-.002,.225,.005s.122,.02,.155,.04Z"/><path d="M29.31,274.028c.14,.06,.21,.536,.21,1.43,0,.14-.267,.264-.8,.37-.273,.054-.614,.08-1.021,.08s-.821-.014-1.245-.04c-.423-.026-.678-.04-.765-.04-.12,0-.195-.208-.226-.625-.029-.417,.006-.719,.105-.905,.24-.5,.597-1.03,1.07-1.59,.093-.106,.206-.248,.34-.425,.133-.177,.26-.349,.38-.516,.12-.166,.19-.263,.21-.29,.073-.086,.1-.196,.08-.329-.021-.134-.077-.21-.17-.23-.047-.007-.085,.014-.115,.06-.03,.047-.05,.103-.06,.165-.011,.063-.023,.136-.04,.216s-.039,.137-.065,.17c-.066,.08-.276,.086-.63,.02s-.573-.144-.66-.229c-.04-.094-.06-.264-.06-.511s.029-.526,.09-.84c.06-.313,.137-.52,.229-.62,.167-.193,.344-.321,.53-.385s.457-.095,.811-.095c.333,0,.653,.113,.96,.34s.506,.477,.6,.75c.054,.146,.104,.335,.15,.565,.046,.229,.081,.489,.104,.779s-.002,.512-.075,.665c-.1,.214-.248,.459-.444,.735-.197,.276-.391,.523-.58,.74-.19,.217-.36,.401-.511,.555-.149,.153-.238,.236-.265,.25,.014-.007,.031-.012,.055-.015,.023-.004,.07-.014,.141-.03,.069-.017,.14-.033,.21-.05s.153-.035,.25-.056c.097-.02,.189-.036,.28-.05,.09-.013,.183-.026,.279-.04,.097-.013,.186-.021,.266-.024,.08-.004,.154-.002,.225,.005s.122,.02,.155,.04Z"/><path d="M24.881,286.028c.14,.06,.21,.536,.21,1.43,0,.14-.267,.264-.8,.37-.273,.054-.614,.08-1.021,.08s-.821-.014-1.245-.04c-.423-.026-.678-.04-.765-.04-.12,0-.195-.208-.226-.625-.029-.417,.006-.719,.105-.905,.24-.5,.597-1.03,1.07-1.59,.093-.106,.206-.248,.34-.425,.133-.177,.26-.349,.38-.516,.12-.166,.19-.263,.21-.29,.073-.086,.1-.196,.08-.329-.021-.134-.077-.21-.17-.23-.047-.007-.085,.014-.115,.06-.03,.047-.05,.103-.06,.165-.011,.063-.023,.136-.04,.216s-.039,.137-.065,.17c-.066,.08-.276,.086-.63,.02s-.573-.144-.66-.229c-.04-.094-.06-.264-.06-.511s.029-.526,.09-.84c.06-.313,.137-.52,.229-.62,.167-.193,.344-.321,.53-.385s.457-.095,.811-.095c.333,0,.653,.113,.96,.34s.506,.477,.6,.75c.054,.146,.104,.335,.15,.565,.046,.229,.081,.489,.104,.779s-.002,.512-.075,.665c-.1,.214-.248,.459-.444,.735-.197,.276-.391,.523-.58,.74-.19,.217-.36,.401-.511,.555-.149,.153-.238,.236-.265,.25,.014-.007,.031-.012,.055-.015,.023-.004,.07-.014,.141-.03,.069-.017,.14-.033,.21-.05s.153-.035,.25-.056c.097-.02,.189-.036,.28-.05,.09-.013,.183-.026,.279-.04,.097-.013,.186-.021,.266-.024,.08-.004,.154-.002,.225,.005s.122,.02,.155,.04Z"/><path d="M28.99,284.398c.166,.166,.32,.376,.46,.63,.087,.153,.121,.363,.104,.63s-.05,.51-.1,.729c-.05,.221-.104,.4-.165,.54-.113,.261-.347,.5-.7,.721-.354,.22-.727,.329-1.12,.329-.406,0-.718-.031-.935-.095s-.425-.188-.625-.375c-.153-.146-.283-.395-.39-.745-.107-.35-.137-.585-.091-.705,.054-.14,.296-.284,.726-.435s.682-.182,.755-.095c.033,.04,.083,.142,.15,.305,.066,.163,.136,.305,.21,.425,.073,.12,.143,.177,.21,.17,.113-.026,.163-.22,.149-.58-.013-.359-.063-.586-.149-.68-.027-.033-.087-.055-.181-.065-.093-.01-.187-.016-.279-.02-.094-.003-.181-.021-.261-.055s-.123-.084-.13-.15c-.02-.113-.031-.255-.035-.425-.003-.17,.019-.321,.065-.455,.047-.087,.215-.161,.505-.225s.452-.119,.485-.165c.073-.094,.109-.237,.109-.431s-.046-.303-.14-.33c-.06-.013-.104,.017-.13,.091-.026,.073-.05,.163-.07,.27-.02,.106-.047,.184-.08,.23-.066,.079-.276,.086-.63,.02s-.569-.144-.649-.23c-.047-.086-.07-.25-.07-.489s.031-.511,.095-.811,.139-.5,.226-.6c.113-.127,.229-.222,.35-.285s.255-.108,.405-.135c.149-.026,.345-.04,.585-.04,.227,0,.451,.054,.675,.16s.411,.238,.565,.395c.152,.157,.26,.322,.319,.495,.054,.134,.102,.312,.146,.535,.043,.224,.071,.467,.085,.729,.013,.264-.017,.472-.09,.625-.114,.233-.233,.431-.36,.591Z"/><path d="M24.89,298.028c.14,.06,.21,.536,.21,1.43,0,.14-.267,.264-.8,.37-.273,.054-.614,.08-1.021,.08s-.821-.014-1.245-.04c-.423-.026-.678-.04-.765-.04-.12,0-.195-.208-.226-.625-.029-.417,.006-.719,.105-.905,.24-.5,.597-1.03,1.07-1.59,.093-.106,.206-.248,.34-.425,.133-.177,.26-.349,.38-.516,.12-.166,.19-.263,.21-.29,.073-.086,.1-.196,.08-.329-.021-.134-.077-.21-.17-.23-.047-.007-.085,.014-.115,.06-.03,.047-.05,.103-.06,.165-.011,.063-.023,.136-.04,.216s-.039,.137-.065,.17c-.066,.08-.276,.086-.63,.02s-.573-.144-.66-.229c-.04-.094-.06-.264-.06-.511s.029-.526,.09-.84c.06-.313,.137-.52,.229-.62,.167-.193,.344-.321,.53-.385s.457-.095,.811-.095c.333,0,.653,.113,.96,.34s.506,.477,.6,.75c.054,.146,.104,.335,.15,.565,.046,.229,.081,.489,.104,.779s-.002,.512-.075,.665c-.1,.214-.248,.459-.444,.735-.197,.276-.391,.523-.58,.74-.19,.217-.36,.401-.511,.555-.149,.153-.238,.236-.265,.25,.014-.007,.031-.012,.055-.015,.023-.004,.07-.014,.141-.03,.069-.017,.14-.033,.21-.05s.153-.035,.25-.056c.097-.02,.189-.036,.28-.05,.09-.013,.183-.026,.279-.04,.097-.013,.186-.021,.266-.024,.08-.004,.154-.002,.225,.005s.122,.02,.155,.04Z"/><path d="M29.39,294.477c.053,.034,.09,.474,.109,1.32,.021,.847,.023,1.367,.011,1.561-.007,.053-.016,.276-.025,.67s-.021,.774-.035,1.145-.023,.572-.03,.605c-.02,.073-.281,.111-.784,.114-.504,.004-.775-.034-.815-.114-.02-.101-.025-.197-.015-.29,.01-.094,.028-.264,.055-.511,.026-.246,.04-.463,.04-.649,.007-.566-.014-.873-.06-.92-.027-.026-.391-.04-1.091-.04s-1.069-.01-1.109-.03c-.061-.026-.119-.205-.175-.535-.058-.33-.079-.545-.065-.645,.007-.033,.05-.141,.13-.32s.187-.405,.32-.675c.133-.271,.263-.505,.39-.705,.08-.133,.162-.28,.245-.44,.083-.159,.15-.3,.2-.42s.1-.231,.149-.335c.051-.103,.097-.182,.141-.234,.043-.054,.085-.08,.125-.08,.146,0,.354,.115,.625,.345,.27,.23,.411,.385,.425,.465,0,.033-.087,.24-.26,.62-.174,.38-.347,.754-.521,1.12l-.27,.55,.75,.01c.033-.006,.045-.253,.035-.739-.011-.487,.008-.743,.055-.771,.073-.04,.315-.071,.725-.095,.41-.023,.652-.015,.726,.024Z"/></g></svg>