<?xml version="1.0" encoding="UTF-8"?><svg id="Layer_1" xmlns="http://www.w3.org/2000/svg" width="525" height="262" viewBox="0 0 525 262"><defs><style>.cls-1{fill:#ffed9f;}.cls-2{fill:#ed1c24;}</style></defs><rect class="cls-1" x="-679.567" y="-327.264" width="1915.702" height="1076"/><g><g><path class="cls-2" d="M73.586,101.912c-.401,.897-2.54,1.744-6.428,2.543-3.886,.796-7.798,1.194-11.734,1.194s-6.155-.648-6.651-1.943c-.799-1.592-1.221-5.754-1.271-12.482-.05-6.725,.074-13.552,.374-20.479,.3-6.924,.3-13.427,0-19.505,0-1.096,.125-3.912,.374-8.445,.247-4.536,.321-7.747,.223-9.642,0-.398-.847-.597-2.54-.597s-3.538,.05-5.531,.149c-1.996,.101-3.886-.05-5.68-.449s-2.789-1.144-2.991-2.243c-.597-2.888-.422-7.299,.523-13.228,.948-5.929,2.044-9.568,3.291-10.914,1.245-1.343,5.876-2.513,13.899-3.511,8.021-.995,16.169-1.245,24.441-.748,8.27,.502,13.101,1.945,14.499,4.337,.995,1.792,1.643,6.203,1.943,13.228,.297,7.025-.449,11.187-2.243,12.482-.597,.199-1.595,.425-2.988,.671-1.399,.249-2.718,.449-3.963,.597-1.247,.151-2.418,.449-3.511,.897-1.099,.449-1.696,.971-1.794,1.571-1.396,6.678-1.943,16.991-1.646,30.941,.098,.897,.199,3.042,.3,6.428,.098,3.389,.199,6.327,.3,8.819,.096,2.492,.149,5.255,.149,8.294s-.101,5.605-.3,7.699c-.199,2.091-.549,3.538-1.046,4.334Z"/><path class="cls-2" d="M120.521,103.557c-.202,1.194-4.286,1.943-12.257,2.24-7.975,.3-12.31-.196-13.005-1.494-.897-1.794-1.42-4.658-1.571-8.594-.149-3.936-.05-8.719,.3-14.351,.348-5.629,.523-8.992,.523-10.091,0-2.888-.125-7.323-.374-13.302s-.547-11.832-.894-17.565c-.35-5.727-.6-11.434-.748-17.113s-.101-10.388,.149-14.125c.249-3.737,.823-5.804,1.72-6.205,1.096-.695,5.083-.918,11.959-.671,6.874,.249,10.51,.873,10.911,1.868,.3,.799,.897,7.946,1.794,21.45,.897,13.504,1.444,24.887,1.643,34.155,.796,25.811,.748,40.411-.149,43.798Z"/><path class="cls-2" d="M129.935,102.06c-.894-.993-1.42-4.207-1.569-9.64-.149-5.43-.149-11.71,0-18.836,.149-7.124,.074-14.82-.223-23.093-.101-3.387-.252-7.548-.449-12.482-.202-4.931-.35-9.042-.449-12.331-.101-3.288-.202-6.651-.3-10.091-.101-3.437-.074-6.128,.074-8.071,.151-1.943,.374-3.164,.674-3.663,.395-.695,2.665-1.144,6.8-1.346,4.135-.199,8.344,0,12.631,.6,4.284,.597,6.776,1.643,7.474,3.137,.499,.401,.698,2.118,.6,5.157-.101,3.042-.252,5.932-.449,8.671-.202,2.742-.475,6.229-.823,10.462-.35,4.239-.576,7.75-.674,10.539-.098,4.584-.074,10.216,.077,16.891,.149,6.678,.321,12.209,.523,16.593l.297,6.426c15.046-1.093,23.021-1.046,23.919,.151,.496,.698,1.046,2.641,1.643,5.828,.597,3.19,.823,6.479,.671,9.865-.149,3.389-.873,5.483-2.166,6.28-2.492,1.396-7.5,2.24-15.022,2.54-7.527,.3-14.701,.101-21.525-.597-6.829-.695-10.741-1.693-11.736-2.991Z"/><path class="cls-2" d="M184.943,102.06c-.894-.993-1.42-4.207-1.569-9.64-.149-5.43-.149-11.71,0-18.836,.149-7.124,.074-14.82-.223-23.093-.101-3.387-.252-7.548-.449-12.482-.202-4.931-.35-9.042-.449-12.331-.101-3.288-.202-6.651-.3-10.091-.101-3.437-.074-6.128,.074-8.071,.151-1.943,.374-3.164,.674-3.663,.395-.695,2.665-1.144,6.8-1.346,4.135-.199,8.344,0,12.631,.6,4.284,.597,6.776,1.643,7.474,3.137,.499,.401,.698,2.118,.6,5.157-.101,3.042-.252,5.932-.449,8.671-.202,2.742-.475,6.229-.823,10.462-.35,4.239-.576,7.75-.674,10.539-.098,4.584-.074,10.216,.077,16.891,.149,6.678,.321,12.209,.523,16.593l.297,6.426c15.046-1.093,23.021-1.046,23.919,.151,.496,.698,1.046,2.641,1.643,5.828,.597,3.19,.823,6.479,.671,9.865-.149,3.389-.873,5.483-2.166,6.28-2.492,1.396-7.5,2.24-15.022,2.54-7.527,.3-14.701,.101-21.525-.597-6.829-.695-10.741-1.693-11.736-2.991Z"/><path class="cls-2" d="M271.49,104.006c-.998,1.194-5.531,1.943-13.602,2.24-8.071,.3-12.405-.149-13.005-1.346-.101-.496-.149-2.413-.149-5.754s.024-7.548,.074-12.631,.125-10.038,.226-14.873c.098-4.83,.098-8.968,0-12.405-.101-3.44-.252-5.207-.449-5.308-4.387-7.869-8.472-14.895-12.259-21.076-1.595-2.391-3.116-5.754-4.557-10.088-1.446-4.337-2.415-8.148-2.917-11.436-.496-3.288-.496-5.531,0-6.725,.897-1.096,5.207-1.943,12.931-2.543,7.721-.597,12.034-.597,12.931,0,.395,.202,.746,.725,1.046,1.571s.547,1.818,.748,2.914c.196,1.099,.372,2.168,.523,3.214,.149,1.046,.273,1.993,.374,2.84,.096,.847,.149,1.322,.149,1.42,.199,.499,.547,2.941,1.046,7.325,.499,4.385,1.12,8.246,1.868,11.582,.748,3.341,1.518,5.059,2.317,5.157,.597,.101,1.144-.523,1.646-1.868,.496-1.343,.945-3.087,1.343-5.231,.398-2.142,.748-4.26,1.048-6.351,.297-2.094,.571-4.111,.82-6.054,.249-1.943,.472-3.164,.674-3.663,0-.098,.048-.449,.149-1.046,.098-.6,.199-1.147,.3-1.646,.098-.496,.273-1.144,.523-1.943,.247-.796,.472-1.545,.671-2.243,.199-.695,.425-1.42,.674-2.168,.247-.746,.496-1.393,.746-1.943,.249-.547,.547-1.019,.897-1.42,.348-.395,.674-.645,.971-.746,1.197-.499,5.106-.6,11.736-.3,6.625,.3,10.736,.948,12.331,1.943,.897,.401,1.293,1.494,1.197,3.288-.101,1.794-.449,3.737-1.048,5.831-.597,2.091-1.444,4.483-2.54,7.174-1.099,2.691-2.144,5.109-3.14,7.251-.998,2.142-1.919,4.185-2.766,6.128s-1.37,3.19-1.569,3.737c-.202,.549-.549,1.295-1.046,2.243-.502,.948-1.099,1.943-1.794,2.988-.698,1.046-1.42,2.144-2.168,3.288-.746,1.147-1.494,2.219-2.243,3.214-.746,.998-1.42,1.919-2.017,2.766s-1.099,1.47-1.494,1.868l-.449,.746c-.799,5.881-1.147,13.079-1.046,21.602,.098,8.52,.297,14.871,.597,19.056,.3,4.185,.199,7.325-.3,9.419Z"/><path class="cls-2" d="M324.107,104.006c-1.298,1.194-5.831,1.818-13.605,1.868-7.771,.05-11.808-.425-12.105-1.42-.401-.995-.897-8.896-1.497-23.693-.597-14.799-.799-30.517-.597-47.16,.199-16.641,1.197-26.756,2.988-30.344,.6-1.197,4.111-1.518,10.539-.971,6.428,.549,10.388,1.521,11.882,2.914,.499,.401,.847,.998,1.048,1.794,.196,.799,.297,1.868,.297,3.214s-.024,2.614-.074,3.811c-.05,1.194-.175,2.816-.374,4.857-.199,2.044-.297,3.763-.297,5.157-.202,4.687-.226,8.971-.074,12.856,.149,3.886,.422,7.126,.82,9.717l.449,4.034c6.078-28.2,10.563-42.749,13.454-43.646,2.29-.796,6.375-.247,12.257,1.643,5.879,1.895,9.019,3.44,9.417,4.634,.3,.6,.526,1.622,.674,3.065,.149,1.446-.027,3.986-.523,7.623-.502,3.639-1.595,7.352-3.288,11.136-1.696,3.787-3.514,7.623-5.457,11.511-1.943,3.886-3.464,6.776-4.56,8.668l-1.643,2.991c3.487,6.678,6.375,13.653,8.668,20.925,.6,1.794,1.271,3.912,2.02,6.354,.746,2.444,1.346,4.334,1.794,5.68,.446,1.346,.894,2.742,1.343,4.185,.449,1.446,.748,2.519,.897,3.214,.151,.698,.173,1.147,.074,1.346-.894,1.794-4.958,3.265-12.182,4.408-7.224,1.147-11.235,1.123-12.031-.074-1.497-1.892-2.84-4.358-4.037-7.4-1.197-3.039-2.118-6.054-2.766-9.042-.65-2.988-1.194-5.804-1.643-8.445-.449-2.638-.823-4.783-1.123-6.428-.297-1.643-.499-2.415-.597-2.317-.3,0-.35,2.766-.149,8.297,.196,5.531,.395,10.738,.597,15.619,.199,4.883,0,8.023-.597,9.419Z"/><path class="cls-2" d="M391.221,104.006c-1.298,1.194-5.831,1.818-13.605,1.868-7.771,.05-11.808-.425-12.105-1.42-.401-.995-.897-8.896-1.497-23.693-.597-14.799-.799-30.517-.597-47.16,.199-16.641,1.197-26.756,2.988-30.344,.6-1.197,4.111-1.518,10.539-.971,6.428,.549,10.388,1.521,11.882,2.914,.499,.401,.847,.998,1.048,1.794,.196,.799,.297,1.868,.297,3.214s-.024,2.614-.074,3.811c-.05,1.194-.175,2.816-.374,4.857-.199,2.044-.297,3.763-.297,5.157-.202,4.687-.226,8.971-.074,12.856,.149,3.886,.422,7.126,.82,9.717l.449,4.034c6.078-28.2,10.563-42.749,13.454-43.646,2.29-.796,6.375-.247,12.257,1.643,5.879,1.895,9.019,3.44,9.417,4.634,.3,.6,.526,1.622,.674,3.065,.149,1.446-.027,3.986-.523,7.623-.502,3.639-1.595,7.352-3.288,11.136-1.696,3.787-3.514,7.623-5.457,11.511-1.943,3.886-3.464,6.776-4.56,8.668l-1.643,2.991c3.487,6.678,6.375,13.653,8.668,20.925,.6,1.794,1.271,3.912,2.02,6.354,.746,2.444,1.346,4.334,1.794,5.68,.446,1.346,.894,2.742,1.343,4.185,.449,1.446,.748,2.519,.897,3.214,.151,.698,.173,1.147,.074,1.346-.894,1.794-4.958,3.265-12.182,4.408-7.224,1.147-11.235,1.123-12.031-.074-1.497-1.892-2.84-4.358-4.037-7.4-1.197-3.039-2.118-6.054-2.766-9.042-.65-2.988-1.194-5.804-1.643-8.445-.449-2.638-.823-4.783-1.123-6.428-.297-1.643-.499-2.415-.597-2.317-.3,0-.35,2.766-.149,8.297,.196,5.531,.395,10.738,.597,15.619,.199,4.883,0,8.023-.597,9.419Z"/><path class="cls-2" d="M465.208,105.797c-1.794,.6-7.4,.65-16.816,.151-9.417-.499-14.274-1.197-14.574-2.094-.499-1.093-1.271-8.841-2.317-23.244-1.046-14.398-1.545-29.67-1.494-45.815,.048-16.142,1.37-25.71,3.96-28.699,.995-1.197,5.406-2.168,13.231-2.914,7.822-.748,15.593-1.048,23.319-.897,7.721,.149,12.031,.624,12.928,1.42,1.396,1.494,1.943,6.428,1.646,14.799-.3,8.368-.897,13.103-1.794,14.199-.3,.3-1.221,.523-2.766,.671-1.545,.151-3.288,.202-5.231,.151s-3.886-.151-5.831-.3c-1.943-.149-3.562-.273-4.857-.374l-2.091-.149-.151,7.474c10.465-1.393,16.792-1.393,18.985,0,.395,.3,.722,.971,.971,2.017,.247,1.046,.398,2.317,.449,3.811,.048,1.497,.048,3.092,0,4.785-.05,1.696-.149,3.389-.3,5.083-.149,1.693-.297,3.211-.449,4.557-.149,1.346-.276,2.468-.374,3.363l-.149,1.197-21.973-1.197c-.398,.502-.549,3.193-.449,8.074,.098,4.883,.247,7.723,.449,8.52,.098,.101,.499,.149,1.197,.149s1.619-.048,2.766-.149c1.144-.098,2.415-.223,3.811-.374,1.393-.149,2.84-.348,4.334-.597,1.494-.247,2.938-.547,4.334-.897,1.396-.348,2.641-.695,3.737-1.046,1.096-.348,1.943-.722,2.543-1.123,1.293-.897,2.54,.674,3.737,4.708,1.194,4.037,2.041,8.35,2.54,12.931,.499,4.586,.547,7.078,.151,7.474-.401,.3-2.044,.674-4.934,1.123-2.89,.446-6.256,.971-10.091,1.569-3.835,.597-6.651,1.147-8.445,1.643Z"/><path class="cls-2" d="M523.205,92.644c.098,3.588-.425,6.678-1.569,9.268-1.147,2.593-2.914,4.236-5.305,4.934-2.195,.897-5.632,1.218-10.314,.971-4.687-.249-7.875-1.224-9.568-2.917-3.19-3.188-4.087-7.869-2.691-14.051,.3-1.194,1.07-2.317,2.317-3.363,1.245-1.046,2.641-1.868,4.185-2.466s3.065-.995,4.56-1.197c.796-.297,2.19-.372,4.185-.223,1.993,.149,4.01,.374,6.054,.671,2.041,.3,3.886,1.173,5.531,2.617,1.643,1.446,2.516,3.363,2.614,5.754Zm-25.559-14.348c-1.197-.6-2.07-3.888-2.617-9.868-.549-5.977-.772-12.007-.671-18.085,.098-6.078,.297-10.314,.597-12.708,.395-2.988,.597-7.299,.597-12.928s.05-10.614,.149-14.948c.098-4.334,.547-7.15,1.346-8.445,.6-.995,4.61-1.37,12.034-1.123,7.423,.249,11.235,.775,11.436,1.571,.196,.698,.422,2.293,.671,4.783,.247,2.492,.472,6.378,.671,11.659,.199,5.282,.151,11.413-.149,18.385-.202,8.968-.698,17.591-1.494,25.861-.799,8.273-1.696,13.204-2.691,14.796-.398,.799-3.564,1.298-9.491,1.494-5.929,.202-9.393,.053-10.388-.446Z"/></g><g><path class="cls-2" d="M54.307,247.471c-1.885,2.617-4.789,4.944-8.715,6.982-3.927,2.035-8.091,3.515-12.489,4.438-4.398,.922-8.693,1.599-12.879,2.035-4.189,.437-7.697,.509-10.525,.22-2.825-.292-4.345-.775-4.554-1.457-.943-1.937-1.807-6.375-2.591-13.31-.786-6.933-.971-14.475-.549-22.622,.522-10.763,.678-20.075,.471-27.93-.212-7.855-.078-14.571,.39-20.147,.471-5.577,1.545-9.286,3.221-11.13,1.258-1.356,5.157-2.715,11.702-4.073,6.543-1.356,11.962-1.356,16.257,0,7.329,2.232,13.245,5.528,17.749,9.893,4.501,4.365,8.113,10.766,10.838,19.202,.943,2.911,1.492,6.935,1.651,12.075,.156,5.14-.081,10.474-.708,16.002-.628,5.528-1.754,11.032-3.377,16.51-1.623,5.481-3.587,9.919-5.89,13.313Zm-25.131-57.608c-.733,1.26-1.311,9.237-1.726,23.929-.421,14.695-.265,22.283,.471,22.769,.522,.387,1.333,.266,2.432-.364,1.102-.63,2.226-1.72,3.377-3.273,1.152-1.552,1.989-3.249,2.513-5.094,.839-3.49,1.336-9.017,1.495-16.583,.156-7.566-.343-12.948-1.495-16.149-1.883-3.975-3.718-6.011-5.497-6.109-.628,0-1.152,.292-1.57,.873Z"/><path class="cls-2" d="M131.744,227.393c.522,5.435-.368,11.856-2.672,19.277-2.304,7.418-5.444,11.856-9.424,13.31-2.41,.777-5.996,1.31-10.76,1.601-4.766,.289-9.845,.168-15.236-.364-5.394-.532-10.263-2.038-14.608-4.51-4.345-2.474-6.886-5.794-7.617-9.965-1.049-5.238-1.754-12.096-2.12-20.584-.368-8.485-.471-15.64-.315-21.459,.156-5.817,.131-10.812-.078-14.981-.315-1.165-.471-5.432-.471-12.804s.68-12.801,2.041-16.291c.522-1.359,4.685-1.818,12.486-1.384,7.801,.437,12.227,1.434,13.273,2.983,1.046,1.746,1.595,10.598,1.651,26.548,.05,15.955-.184,24.66-.708,26.114-.209,1.651-.34,4.704-.39,9.164-.056,4.461,.022,6.935,.234,7.418,.315,1.457,1.177,2.327,2.591,2.619,1.414,.292,2.722-.023,3.927-.945,1.202-.92,1.807-2.255,1.807-4.001-.106-.194-.106-4.458,0-12.801,.103-8.34,.103-12.558,0-12.657-.212-.873-.315-7.418-.315-19.638s.053-18.959,.159-20.22c.103-1.067,.653-1.914,1.648-2.547,.993-.63,2.067-1.018,3.221-1.165,1.149-.145,2.772-.313,4.867-.509,2.094-.194,3.718-.385,4.869-.581,1.779-.292,3.771-.096,5.971,.581,2.198,.679,3.506,1.408,3.927,2.183,.206,.39,.443,5.675,.706,15.857,.259,10.182,.522,20.731,.786,31.641,.259,10.91,.443,16.947,.549,18.109Z"/><path class="cls-2" d="M227.084,254.744c-1.255,2.521-3.402,4.363-6.44,5.528-3.037,1.162-6.152,1.694-9.346,1.599-3.196-.098-6.624-.581-10.288-1.454-2.828-.581-5.104-2.908-6.833-6.982-1.726-4.073-3.43-9.988-5.104-17.748-1.676-7.759-3.143-13.53-4.398-17.311-1.676-4.559-3.274-10.96-4.791-19.204-1.52-8.242-2.541-15.467-3.062-21.674-.524-6.207-.524-10.474,0-12.804,.628-1.454,3.115-2.712,7.46-3.781,4.345-1.067,8.403-1.622,12.174-1.674,3.771-.046,6.283,.17,7.538,.656,.418,.387,.837,1.769,1.258,4.146,.416,2.379,.731,4.825,.943,7.346,.209,2.524,.471,6.207,.784,11.058,.209,1.067,.575,5.77,1.102,14.111,.522,8.34,1.177,15.686,1.963,22.038,.784,6.354,1.62,9.601,2.513,9.746,.887,.147,1.726-2.836,2.513-8.945,.784-6.111,1.464-13.287,2.041-21.532,.575-8.24,.968-12.801,1.177-13.674,0-.191,.053-.821,.159-1.891,.103-1.067,.209-2.108,.312-3.128,.103-1.018,.287-2.276,.549-3.781,.262-1.503,.496-2.908,.708-4.218,.209-1.31,.443-2.668,.706-4.073s.524-2.619,.786-3.637c.259-1.018,.575-1.914,.943-2.691,.365-.775,.706-1.26,1.021-1.454,.731-.387,2.301-.63,4.713-.728,2.407-.096,4.97-.046,7.695,.145,2.722,.196,5.341,.607,7.854,1.237,2.513,.633,4.189,1.431,5.026,2.4,.943,.777,1.361,2.888,1.258,6.328-.106,3.443-.471,7.155-1.099,11.13-.628,3.978-1.52,8.508-2.672,13.602-1.152,5.091-2.251,9.699-3.297,13.819-1.049,4.122-2.019,7.979-2.906,11.567-.892,3.588-1.442,5.915-1.651,6.982-.839,4.851-4.607,14.498-11.309,28.95Z"/><path class="cls-2" d="M288.655,236.705c-.418-1.165-2.488-2.012-6.203-2.547-3.718-.532-6.102-.266-7.148,.801-.628,.679-1.177,2.96-1.648,6.837-.471,3.88-.996,7.664-1.57,11.347-.577,3.686-1.286,5.77-2.122,6.256-1.467,.486-3.824,.777-7.067,.873-3.246,.098-6.808-.22-10.682-.945-3.874-.728-6.387-1.674-7.538-2.839-.943-.775-1.364-2.859-1.258-6.253,.103-3.394,.471-7.057,1.102-10.985,.628-3.926,1.514-8.387,2.669-13.382,1.152-4.993,2.251-9.503,3.299-13.53,1.046-4.022,2.014-7.806,2.906-11.347,.887-3.539,1.436-5.84,1.648-6.909,.837-4.75,4.658-14.206,11.465-28.366,.837-1.94,2.226-3.492,4.164-4.657,1.936-1.162,4.161-1.865,6.674-2.108,2.516-.24,5.001-.266,7.463-.072,2.457,.194,4.998,.581,7.617,1.162,2.828,.584,5.001,2.911,6.518,6.984,1.517,4.073,2.959,9.818,4.32,17.239,1.361,7.418,2.722,13.116,4.086,17.092,2.513,6.982,4.711,16.973,6.596,29.968,1.885,12.998,2.301,20.61,1.258,22.839-.736,1.361-2.962,2.573-6.677,3.637-3.718,1.069-7.173,1.651-10.366,1.746-3.196,.098-5.369-.096-6.518-.581-.63-.581-1.155-2.642-1.573-6.184-.418-3.539-.733-7.054-.943-10.546s-.368-5.331-.471-5.528Zm-2.041-18.329c.418-.194,.365-1.093-.156-2.691-.524-1.601-1.258-3.105-2.198-4.51-.943-1.405-1.782-2.012-2.516-1.818-1.361,.387-2.46,1.842-3.297,4.363-.839,2.524-1.049,4.073-.63,4.657,1.046,.777,2.594,1.067,4.635,.87,2.041-.191,3.428-.483,4.161-.87Z"/><path class="cls-2" d="M318.184,256.635c-.312-.387-.131-4.678,.552-12.876,.678-8.193,1.358-17.164,2.041-26.912,.68-9.746,.809-16.169,.393-19.274-.421-4.365-.343-10.376,.234-18.039,.575-7.659,1.386-12.85,2.435-15.565,.628-1.746,2.644-3.079,6.046-4.001,3.402-.92,6.571-1.284,9.505-1.09,2.928,.194,5.026,.437,6.281,.726,1.361,.679,3.324,5.215,5.89,13.602,2.566,8.389,4.95,16.609,7.148,24.657,2.2,8.051,3.455,12.075,3.771,12.075,.312,.098,.471-1.55,.471-4.946s-.056-7.54-.159-12.437c-.103-4.897-.209-9.82-.312-14.767-.106-4.946-.028-9.188,.234-12.729,.259-3.539,.653-5.357,1.18-5.455,1.149-.289,3.534-.145,7.145,.437,3.614,.584,7.042,1.359,10.288,2.327,3.244,.971,5.079,1.746,5.497,2.327,.209,.488,.131,4.9-.234,13.24-.368,8.34-.733,16.609-1.099,24.802-.368,8.196-.237,14.767,.39,19.713,.524,3.105,.812,9.454,.865,19.055,.053,9.603-.34,15.18-1.177,16.73-1.155,1.069-5.16,1.844-12.017,2.327-6.858,.486-10.76-.046-11.702-1.599-.418-.775-1.021-2.593-1.804-5.455-.786-2.859-1.86-5.551-3.221-8.074-.943-1.648-2.304-4.484-4.083-8.511-1.782-4.022-3.299-7.635-4.554-10.836l-1.885-4.802c.731,23.18,.628,35.544-.315,37.097-.106,.289-.393,.558-.865,.798-.471,.243-1.046,.413-1.726,.509-.683,.098-1.336,.196-1.963,.292-.628,.098-1.414,.145-2.357,.145s-1.676,.026-2.198,.075c-.527,.049-1.233,.049-2.122,0s-1.439-.075-1.648-.075c-2.513,0-5.394-.266-8.64-.798s-5.341-1.431-6.283-2.691Z"/><path class="cls-2" d="M445.724,247.471c-1.885,2.617-4.789,4.944-8.715,6.982-3.927,2.035-8.091,3.515-12.489,4.438-4.398,.922-8.693,1.599-12.879,2.035-4.189,.437-7.697,.509-10.525,.22-2.825-.292-4.345-.775-4.554-1.457-.943-1.937-1.807-6.375-2.591-13.31-.786-6.933-.971-14.475-.549-22.622,.522-10.763,.678-20.075,.471-27.93-.212-7.855-.078-14.571,.39-20.147,.471-5.577,1.545-9.286,3.221-11.13,1.258-1.356,5.157-2.715,11.702-4.073,6.543-1.356,11.962-1.356,16.257,0,7.329,2.232,13.245,5.528,17.749,9.893,4.501,4.365,8.113,10.766,10.838,19.202,.943,2.911,1.492,6.935,1.651,12.075,.156,5.14-.081,10.474-.708,16.002-.628,5.528-1.754,11.032-3.377,16.51-1.623,5.481-3.587,9.919-5.89,13.313Zm-25.131-57.608c-.733,1.26-1.311,9.237-1.726,23.929-.421,14.695-.265,22.283,.471,22.769,.522,.387,1.333,.266,2.432-.364,1.102-.63,2.226-1.72,3.377-3.273,1.152-1.552,1.989-3.249,2.513-5.094,.839-3.49,1.336-9.017,1.495-16.583,.156-7.566-.343-12.948-1.495-16.149-1.883-3.975-3.718-6.011-5.497-6.109-.628,0-1.152,.292-1.57,.873Z"/><path class="cls-2" d="M500.7,256.343c-.421,.873-2.669,1.697-6.755,2.474-4.083,.775-8.194,1.162-12.33,1.162s-6.468-.63-6.989-1.891c-.839-1.55-1.283-5.6-1.336-12.148-.053-6.545,.078-13.189,.393-19.93,.315-6.739,.315-13.067,0-18.982,0-1.067,.131-3.807,.393-8.219,.259-4.414,.337-7.54,.234-9.384,0-.387-.89-.581-2.669-.581s-3.718,.049-5.812,.145c-2.097,.098-4.083-.049-5.968-.437-1.885-.387-2.931-1.113-3.143-2.183-.628-2.81-.443-7.103,.549-12.874,.996-5.77,2.147-9.312,3.458-10.621,1.308-1.307,6.175-2.446,14.606-3.417,8.428-.969,16.99-1.211,25.683-.728,8.69,.488,13.766,1.893,15.236,4.221,1.046,1.744,1.726,6.036,2.041,12.874,.312,6.837-.471,10.887-2.357,12.148-.628,.194-1.676,.413-3.14,.653-1.47,.243-2.856,.437-4.164,.581-1.311,.147-2.541,.437-3.69,.873-1.155,.437-1.782,.945-1.885,1.529-1.467,6.499-2.041,16.536-1.729,30.112,.103,.873,.209,2.96,.315,6.256,.103,3.298,.209,6.158,.315,8.583,.1,2.425,.156,5.114,.156,8.072s-.106,5.455-.315,7.493c-.209,2.035-.577,3.443-1.099,4.218Z"/></g></g></svg>