<?xml version="1.0" encoding="UTF-8"?><svg id="Layer_1" xmlns="http://www.w3.org/2000/svg" width="475" height="270.376" viewBox="0 0 475 270.376"><defs><style>.cls-1{fill:#ed1c24;}</style></defs><g><path class="cls-1" d="M181.067,120.862c-11.495,.57-21.282-1.45-29.361-6.059-8.082-4.609-13.317-11.524-15.706-20.742-1.594-6.486-2.474-14.681-2.646-24.582-.17-9.901,.71-19.829,2.646-29.79,1.934-9.957,4.837-17.042,8.707-21.253,6.256-6.599,12.632-11.267,19.12-13.998,6.486-2.732,12.517-3.3,18.096-1.709,5.916,1.596,11.549,6.26,16.9,14,5.348,7.739,8.42,15.649,9.218,23.729,.226,2.504,.427,5.321,.597,8.449,.17,3.132,.228,7.37,.17,12.72s-.314,10.471-.767,15.364c-.457,4.894-1.311,10.045-2.562,15.448-1.253,5.407-2.845,10.073-4.779,14-1.936,3.926-4.582,7.255-7.938,9.985-3.358,2.732-7.255,4.213-11.694,4.439Zm-14.168-74.771c-.913,2.847-1.51,8.254-1.793,16.217-.285,7.969-.143,13.942,.427,17.926,.341,4.096,1.223,7.2,2.646,9.304,1.422,2.107,3.1,3.046,5.036,2.816,1.366-.228,2.416-1.906,3.159-5.036,.739-3.13,1.194-6.999,1.366-11.61,.17-4.609,.281-8.449,.341-11.522,.055-3.073,.027-5.805-.086-8.195-.115-3.641-.656-7.196-1.621-10.669-.968-3.471-1.963-5.604-2.989-6.402-.683-.453-1.364-.513-2.047-.17-.683,.341-1.395,1.138-2.135,2.39-.74,1.253-1.51,2.901-2.304,4.95Z"/><path class="cls-1" d="M268.212,114.376c-1.366,2.96-3.7,5.12-6.999,6.486-3.302,1.366-6.687,1.99-10.158,1.879-3.473-.115-7.2-.683-11.181-1.709-3.073-.683-5.549-3.413-7.425-8.193-1.879-4.781-3.729-11.721-5.549-20.828-1.821-9.103-3.415-15.875-4.779-20.313-1.823-5.348-3.559-12.859-5.208-22.535-1.651-9.672-2.761-18.151-3.329-25.435-.57-7.282-.57-12.291,0-15.023,.683-1.707,3.385-3.184,8.109-4.439,4.722-1.249,9.134-1.904,13.23-1.963,4.098-.055,6.829,.201,8.195,.769,.453,.455,.909,2.078,1.366,4.865,.453,2.79,.794,5.661,1.024,8.619,.228,2.962,.513,7.286,.853,12.974,.228,1.255,.624,6.773,1.196,16.56,.568,9.79,1.28,18.41,2.133,25.864s1.764,11.265,2.732,11.438c.964,.17,1.877-3.329,2.73-10.5,.853-7.169,1.594-15.589,2.219-25.265,.624-9.672,1.05-15.021,1.28-16.047,0-.226,.057-.966,.172-2.219,.111-1.251,.226-2.474,.341-3.67,.113-1.196,.312-2.673,.597-4.439,.283-1.762,.54-3.413,.769-4.95,.226-1.536,.482-3.13,.767-4.781,.283-1.647,.568-3.073,.853-4.267,.283-1.196,.626-2.246,1.026-3.159,.398-.909,.767-1.477,1.11-1.707,.794-.453,2.501-.739,5.12-.853,2.617-.113,5.405-.055,8.365,.17,2.958,.23,5.805,.712,8.537,1.45,2.73,.742,4.55,1.682,5.462,2.818,1.024,.911,1.477,3.387,1.366,7.425-.115,4.041-.513,8.394-1.196,13.058-.683,4.668-1.651,9.987-2.902,15.963-1.253,5.975-2.449,11.382-3.586,16.217-1.138,4.839-2.191,9.362-3.157,13.571-.968,4.213-1.567,6.943-1.793,8.195-.913,5.692-5.009,17.015-12.291,33.972Z"/><path class="cls-1" d="M331.373,105.669c.111,4.098-.486,7.626-1.793,10.584-1.309,2.962-3.329,4.839-6.059,5.633-2.506,1.026-6.432,1.393-11.78,1.11-5.35-.285-8.991-1.395-10.925-3.327-3.645-3.641-4.668-8.991-3.073-16.047,.341-1.366,1.221-2.646,2.646-3.842,1.422-1.196,3.013-2.133,4.779-2.816,1.764-.683,3.499-1.136,5.206-1.366,.911-.341,2.503-.427,4.781-.256,2.275,.17,4.579,.427,6.913,.769,2.332,.341,4.439,1.339,6.316,2.987,1.879,1.651,2.874,3.842,2.989,6.572Zm-29.191-16.387c-1.366-.683-2.365-4.439-2.989-11.267-.626-6.829-.882-13.713-.767-20.656,.111-6.941,.341-11.778,.683-14.51,.453-3.415,.681-8.336,.681-14.767s.057-12.121,.172-17.07c.111-4.952,.624-8.166,1.536-9.645,.683-1.136,5.262-1.563,13.741-1.282,8.478,.287,12.831,.884,13.06,1.793,.226,.798,.482,2.619,.767,5.462,.283,2.847,.54,7.286,.769,13.317,.226,6.033,.17,13.033-.17,20.996-.23,10.244-.798,20.088-1.709,29.534-.911,9.448-1.936,15.081-3.073,16.9-.455,.913-4.07,1.481-10.839,1.707-6.773,.23-10.728,.059-11.864-.511Z"/><path class="cls-1" d="M198.294,12.68c8.208-2.322,18.687,6.684,17.702,15.472-.393,3.501-2.508,6.101-7.699,11.786-11.259,12.33-20.312,20.912-24.41,24.952-9.508,9.373-15.976,17.593-21.406,24.492-14.094,17.91-16.543,25.347-22.935,26.241-6.233,.872-12.887-4.942-13.277-11.604-.406-6.948,6.187-11.667,24.518-31.03,15.563-16.44,23.345-24.659,29.051-33.239,10.975-16.503,11.558-25.12,18.455-27.071Z"/></g><g><path class="cls-1" d="M51.911,255.626c-1.806,2.707-4.587,5.115-8.348,7.22-3.759,2.106-7.746,3.636-11.958,4.587-4.211,.954-8.325,1.655-12.334,2.107-4.012,.45-7.37,.526-10.078,.224-2.707-.3-4.162-.801-4.363-1.504-.902-2.004-1.73-6.592-2.482-13.763-.752-7.168-.929-14.965-.526-23.389,.501-11.132,.651-20.758,.45-28.88-.202-8.122-.074-15.065,.376-20.832,.452-5.766,1.478-9.601,3.085-11.507,1.202-1.403,4.938-2.807,11.206-4.211,6.265-1.404,11.455-1.404,15.567,0,7.018,2.308,12.684,5.715,16.998,10.228,4.309,4.513,7.77,11.13,10.378,19.854,.902,3.009,1.43,7.172,1.58,12.485,.15,5.315-.076,10.83-.678,16.546-.602,5.715-1.679,11.408-3.233,17.071-1.556,5.668-3.436,10.255-5.641,13.763Zm-24.067-59.564c-.701,1.305-1.254,9.552-1.654,24.743-.401,15.193-.251,23.04,.452,23.541,.501,.401,1.278,.276,2.332-.376,1.052-.652,2.129-1.78,3.233-3.385,1.103-1.603,1.903-3.358,2.406-5.265,.802-3.609,1.28-9.326,1.43-17.147,.15-7.822-.327-13.387-1.43-16.696-1.804-4.11-3.56-6.217-5.263-6.317-.602,0-1.106,.3-1.505,.902Z"/><path class="cls-1" d="M126.066,234.87c.501,5.617-.352,12.258-2.557,19.93-2.207,7.671-5.214,12.258-9.024,13.763-2.308,.802-5.742,1.354-10.304,1.654-4.564,.302-9.427,.174-14.591-.376-5.165-.55-9.828-2.106-13.987-4.663-4.162-2.557-6.595-5.99-7.296-10.304-1.003-5.415-1.681-12.507-2.03-21.284-.352-8.773-.452-16.169-.302-22.186,.152-6.017,.125-11.18-.074-15.493-.302-1.204-.452-5.616-.452-13.237s.651-13.237,1.956-16.847c.501-1.403,4.486-1.88,11.958-1.43,7.47,.452,11.706,1.482,12.711,3.083,1,1.806,1.527,10.958,1.578,27.452,.051,16.496-.175,25.495-.676,26.999-.202,1.706-.327,4.865-.376,9.476-.052,4.614,.024,7.172,.226,7.672,.3,1.504,1.128,2.406,2.482,2.707,1.354,.3,2.606-.024,3.759-.978,1.153-.952,1.731-2.332,1.731-4.137-.101-.199-.101-4.611,0-13.235,.098-8.623,.098-12.986,0-13.087-.202-.902-.302-7.671-.302-20.306s.049-19.603,.15-20.908c.099-1.103,.625-1.979,1.58-2.633,.952-.651,1.979-1.052,3.083-1.202,1.103-.152,2.657-.325,4.663-.528,2.004-.199,3.559-.4,4.663-.602,1.704-.3,3.611-.098,5.717,.602,2.106,.703,3.358,1.455,3.759,2.257,.201,.401,.427,5.865,.678,16.395,.25,10.53,.501,21.434,.752,32.715,.25,11.282,.425,17.524,.526,18.728Z"/><path class="cls-1" d="M210.145,264.802c-.401,.902-2.557,1.755-6.467,2.557-3.911,.804-7.848,1.204-11.809,1.204s-6.192-.652-6.693-1.956c-.804-1.603-1.229-5.791-1.278-12.559-.052-6.769,.074-13.637,.376-20.608,.3-6.969,.3-13.512,0-19.63,0-1.103,.125-3.933,.376-8.498,.25-4.562,.324-7.795,.226-9.702,0-.4-.853-.602-2.557-.602s-3.56,.052-5.565,.152c-2.008,.099-3.911-.051-5.717-.452-1.806-.4-2.807-1.151-3.008-2.256-.602-2.908-.427-7.345,.526-13.313,.951-5.964,2.053-9.626,3.309-10.98,1.253-1.354,5.916-2.532,13.989-3.535,8.07-1.001,16.268-1.253,24.593-.752,8.321,.502,13.185,1.956,14.589,4.363,1.001,1.804,1.655,6.241,1.956,13.311,.302,7.069-.45,11.258-2.256,12.559-.602,.202-1.605,.428-3.009,.676-1.404,.253-2.733,.452-3.985,.602-1.256,.152-2.433,.452-3.535,.904-1.104,.45-1.706,.978-1.804,1.58-1.406,6.718-1.956,17.098-1.655,31.136,.099,.902,.201,3.06,.3,6.467,.099,3.41,.201,6.371,.302,8.876,.098,2.507,.15,5.29,.15,8.348s-.101,5.639-.3,7.746c-.202,2.106-.553,3.56-1.054,4.361Z"/><path class="cls-1" d="M262.791,244.496c-.403-1.204-2.384-2.08-5.943-2.633-3.56-.55-5.841-.275-6.843,.828-.602,.703-1.13,3.06-1.58,7.07-.452,4.011-.954,7.922-1.504,11.732-.553,3.812-1.231,5.968-2.031,6.469-1.406,.502-3.662,.804-6.769,.902-3.109,.101-6.519-.226-10.228-.978-3.712-.752-6.118-1.73-7.22-2.933-.902-.801-1.305-2.957-1.204-6.467,.099-3.51,.452-7.296,1.054-11.357,.602-4.061,1.452-8.672,2.557-13.837,1.101-5.164,2.154-9.827,3.158-13.989,1.001-4.161,1.93-8.07,2.783-11.733,.851-3.658,1.377-6.039,1.58-7.145,.801-4.911,4.461-14.689,10.98-29.33,.801-2.004,2.129-3.611,3.987-4.813,1.853-1.204,3.985-1.93,6.393-2.181,2.406-.25,4.786-.275,7.145-.076,2.355,.202,4.786,.602,7.295,1.204,2.707,.602,4.788,3.009,6.243,7.22,1.452,4.211,2.832,10.152,4.135,17.824,1.303,7.671,2.606,13.563,3.911,17.674,2.407,7.219,4.513,17.548,6.319,30.986,1.804,13.438,2.203,21.309,1.202,23.615-.701,1.404-2.834,2.657-6.393,3.759-3.56,1.106-6.87,1.706-9.926,1.806-3.06,.101-5.14-.099-6.243-.602-.602-.602-1.104-2.731-1.504-6.393-.403-3.66-.703-7.295-.904-10.906-.202-3.609-.352-5.513-.45-5.715Zm-1.956-18.952c.4-.201,.349-1.128-.152-2.783-.502-1.654-1.202-3.208-2.106-4.663-.902-1.452-1.706-2.08-2.406-1.88-1.305,.401-2.358,1.905-3.159,4.513-.804,2.608-1.003,4.211-.602,4.813,1.001,.804,2.482,1.104,4.437,.902,1.956-.199,3.284-.501,3.987-.902Z"/><path class="cls-1" d="M293.925,267.51c-1.104-1.806-1.73-5.088-1.88-9.852-.15-4.762-.025-9.778,.376-15.041,.4-5.265,.727-10.703,.978-16.321,.25-5.616,.226-10.279-.076-13.989-.701-6.317-1.028-14.614-.976-24.893,.049-10.279,.575-16.42,1.578-18.426,1.001-1.806,3.987-3.409,8.95-4.815,4.965-1.403,10.203-2.129,15.719-2.18,5.514-.051,10.429,.728,14.741,2.332,10.127,4.511,16.546,13.938,19.254,28.278,.501,2.809,.4,5.641-.302,8.498-.703,2.857-1.73,5.29-3.083,7.295-1.354,2.008-2.76,3.835-4.211,5.491-1.455,1.654-2.684,2.883-3.685,3.685l-1.655,1.204c.4,0,.978,.126,1.73,.376,.754,.251,2.006,1.104,3.761,2.557,1.753,1.453,3.333,3.436,4.739,5.941,1.903,3.711,2.556,8.374,1.954,13.989-.6,5.617-2.207,10.378-4.813,14.289-2.406,3.711-5.816,6.72-10.228,9.024-4.414,2.308-8.95,3.786-13.613,4.437-4.663,.652-9.174,.952-13.537,.904-4.361-.052-7.998-.376-10.904-.978-2.91-.602-4.513-1.204-4.815-1.806Zm23.615-70.395c-.099,.703-.126,1.607-.074,2.707,.049,1.106,.125,2.181,.226,3.235,.098,1.052,.248,2.03,.45,2.933,.201,.902,.4,1.556,.602,1.956,.602,.6,1.58,.878,2.933,.826,1.354-.049,2.633-.7,3.835-1.956,1.204-1.253,1.554-2.68,1.054-4.285-.703-2.908-2.509-4.965-5.415-6.168-2.106-.902-3.309-.651-3.611,.752Zm.152,45.576c.199,.804,1.027,1.33,2.482,1.58,1.452,.251,2.881-.049,4.287-.902,1.403-.851,2.154-2.129,2.256-3.835,0-3.009-1.254-5.514-3.759-7.522-1.806-1.301-3.009-1.301-3.611,0-.602,1.305-1.079,3.185-1.428,5.641-.354,2.458-.428,4.137-.226,5.039Z"/><path class="cls-1" d="M396.056,264.802c-.401,.902-2.557,1.755-6.467,2.557-3.911,.804-7.848,1.204-11.809,1.204s-6.192-.652-6.693-1.956c-.804-1.603-1.229-5.791-1.278-12.559-.052-6.769,.074-13.637,.376-20.608,.3-6.969,.3-13.512,0-19.63,0-1.103,.125-3.933,.376-8.498,.25-4.562,.324-7.795,.226-9.702,0-.4-.853-.602-2.557-.602s-3.56,.052-5.565,.152c-2.008,.099-3.911-.051-5.717-.452-1.806-.4-2.807-1.151-3.008-2.256-.602-2.908-.427-7.345,.526-13.313,.951-5.964,2.053-9.626,3.309-10.98,1.253-1.354,5.916-2.532,13.989-3.535,8.07-1.001,16.268-1.253,24.593-.752,8.321,.502,13.185,1.956,14.589,4.363,1.001,1.804,1.655,6.241,1.956,13.311,.302,7.069-.45,11.258-2.256,12.559-.602,.202-1.605,.428-3.009,.676-1.404,.253-2.733,.452-3.985,.602-1.256,.152-2.433,.452-3.535,.904-1.104,.45-1.706,.978-1.804,1.58-1.406,6.718-1.956,17.098-1.655,31.136,.099,.902,.201,3.06,.3,6.467,.099,3.41,.201,6.371,.302,8.876,.098,2.507,.15,5.29,.15,8.348s-.101,5.639-.3,7.746c-.202,2.106-.553,3.56-1.054,4.361Z"/><path class="cls-1" d="M450.505,268.713c-1.806,.602-7.446,.652-16.922,.15-9.476-.501-14.365-1.204-14.665-2.106-.504-1.103-1.28-8.898-2.332-23.389-1.054-14.49-1.556-29.858-1.504-46.102,.049-16.245,1.377-25.872,3.985-28.88,1.001-1.204,5.438-2.181,13.311-2.933,7.871-.752,15.693-1.054,23.465-.902,7.77,.15,12.109,.627,13.011,1.428,1.403,1.504,1.956,6.469,1.655,14.891-.302,8.424-.904,13.188-1.806,14.291-.302,.3-1.229,.526-2.783,.676-1.556,.15-3.309,.202-5.265,.15-1.956-.049-3.909-.15-5.865-.3s-3.587-.275-4.889-.376l-2.106-.15-.15,7.52c10.528-1.404,16.895-1.404,19.102,0,.4,.3,.727,.978,.978,2.03,.25,1.054,.4,2.332,.452,3.835,.049,1.505,.049,3.11,0,4.815-.052,1.706-.152,3.409-.302,5.113-.15,1.706-.3,3.235-.452,4.589-.15,1.354-.276,2.482-.376,3.383l-.15,1.204-22.111-1.204c-.401,.502-.551,3.21-.45,8.122,.098,4.914,.248,7.772,.45,8.574,.099,.101,.501,.15,1.204,.15s1.629-.049,2.783-.15c1.151-.099,2.429-.226,3.835-.376,1.403-.15,2.857-.351,4.361-.602,1.505-.25,2.957-.55,4.363-.902,1.403-.351,2.655-.701,3.759-1.054,1.103-.351,1.956-.727,2.557-1.128,1.303-.904,2.557,.676,3.761,4.737,1.204,4.061,2.053,8.401,2.557,13.011,.501,4.614,.55,7.121,.15,7.52-.403,.302-2.057,.678-4.963,1.13-2.91,.45-6.295,.978-10.154,1.578-3.862,.602-6.694,1.155-8.498,1.655Z"/></g></svg>